{"glyphs":{"0":{"ha":857,"x_min":50,"x_max":807,"o":"m 428 -8 q 593 30 522 -8 q 711 133 664 68 q 783 281 758 199 q 807 453 807 364 q 783 622 807 540 q 711 769 758 704 q 593 872 664 835 q 428 910 522 910 q 264 872 335 910 q 145 770 193 835 q 74 624 97 706 q 50 453 50 542 q 74 281 50 364 q 145 133 97 199 q 264 30 193 68 q 428 -8 335 -8 m 428 18 q 251 69 331 17 q 126 218 172 121 q 78 451 79 315 q 126 683 79 586 q 251 833 172 781 q 428 883 331 885 q 606 833 526 885 q 731 683 685 781 q 779 451 778 586 q 731 218 778 315 q 606 69 685 121 q 428 18 526 17 "},"1":{"ha":428,"x_min":82,"x_max":264,"o":"m 82 904 l 82 876 l 236 876 l 236 0 l 264 0 l 264 904 l 82 904 "},"2":{"ha":689,"x_min":68,"x_max":629,"o":"m 74 0 l 629 0 l 629 26 l 119 26 l 126 17 q 274 168 197 90 q 418 325 351 246 q 526 484 485 404 q 567 644 567 564 q 536 783 567 722 q 450 880 506 844 q 321 915 394 915 q 183 880 239 915 q 97 785 126 844 q 68 650 68 725 q 76 582 68 613 q 99 526 85 551 q 133 478 114 500 l 150 493 q 110 562 124 522 q 96 651 96 601 q 106 727 96 686 q 140 805 115 768 q 209 865 165 842 q 319 889 253 889 q 392 876 354 889 q 464 836 431 864 q 518 760 497 808 q 539 643 539 713 q 501 494 539 571 q 396 335 463 417 q 246 170 329 254 q 74 0 163 86 "},"3":{"ha":719,"x_min":103,"x_max":624,"o":"m 564 904 l 119 904 l 119 878 l 524 878 l 519 888 l 207 501 l 213 497 q 275 521 238 511 q 350 531 313 531 q 528 469 461 531 q 596 300 596 407 q 560 152 596 217 q 460 51 524 88 q 311 15 396 15 q 202 39 254 15 q 117 101 150 63 l 103 81 q 194 14 140 39 q 311 -11 249 -11 q 473 28 403 -11 q 583 137 543 67 q 624 299 624 207 q 603 412 624 363 q 544 494 582 461 q 458 542 507 526 q 354 554 410 557 q 286 547 318 554 q 229 524 254 539 l 251 521 l 564 904 "},"4":{"ha":703,"x_min":32,"x_max":678,"o":"m 32 251 l 517 251 l 517 0 l 544 0 l 544 251 l 678 251 l 678 276 l 544 276 l 544 915 l 543 915 l 32 253 l 32 251 m 521 846 l 517 860 l 517 276 l 71 276 l 78 272 l 521 846 "},"5":{"ha":754,"x_min":154,"x_max":639,"o":"m 353 -11 q 497 27 432 -11 q 600 130 561 65 q 639 272 639 194 q 601 414 639 350 q 500 515 564 478 q 357 553 436 551 q 279 543 319 553 q 213 517 239 533 l 221 508 l 221 878 l 596 878 l 596 904 l 194 904 l 194 472 l 196 472 q 262 511 221 494 q 351 528 303 528 q 483 493 425 528 q 576 401 542 458 q 611 272 611 343 q 576 144 611 203 q 481 50 540 86 q 349 14 422 14 q 251 33 297 14 q 172 86 206 53 l 154 68 q 244 10 193 31 q 353 -11 294 -11 "},"6":{"ha":722,"x_min":68,"x_max":640,"o":"m 354 -11 q 499 26 433 -11 q 602 128 564 64 q 640 269 640 192 q 602 411 640 347 q 500 513 564 475 q 358 551 436 551 q 222 519 286 551 q 118 426 157 488 l 126 422 q 201 565 147 490 q 342 716 256 639 q 544 871 428 793 l 526 894 q 369 773 450 838 q 221 633 289 708 q 110 469 153 558 q 68 274 68 379 q 107 130 68 194 q 210 27 146 65 q 354 -11 275 -11 m 353 14 q 223 49 282 14 q 129 141 164 83 q 94 269 94 199 l 94 281 q 129 410 94 354 q 223 496 164 465 q 353 526 282 526 q 484 492 425 526 q 578 399 543 457 q 613 269 613 340 q 578 141 613 199 q 484 49 543 83 q 353 14 425 14 "},"7":{"ha":661,"x_min":63,"x_max":622,"o":"m 622 904 l 63 904 l 63 878 l 603 878 l 586 890 l 186 0 l 219 0 l 622 904 "},"8":{"ha":706,"x_min":68,"x_max":639,"o":"m 68 272 l 68 272 q 106 130 68 194 q 208 27 144 65 q 351 -11 272 -11 q 494 27 429 -11 q 599 130 560 65 q 639 272 639 194 q 610 394 639 339 q 533 488 582 449 q 425 542 485 526 q 515 607 479 561 q 550 710 550 653 q 526 813 550 767 q 456 888 501 860 q 347 915 410 915 q 239 888 285 915 q 169 815 193 861 q 144 711 144 769 q 181 607 144 654 q 275 542 218 560 q 169 487 215 525 q 95 393 122 449 q 68 272 68 338 m 94 272 l 94 272 q 128 401 94 343 q 220 493 163 458 q 349 528 278 528 q 481 493 421 528 q 576 401 540 458 q 611 272 611 343 q 576 144 611 203 q 481 49 540 85 q 349 14 421 14 q 220 49 278 14 q 128 144 163 85 q 94 272 94 203 m 171 710 l 171 710 q 223 841 171 792 q 350 890 275 890 q 473 841 424 890 q 522 710 522 792 q 473 597 522 642 q 350 551 424 551 q 223 597 275 551 q 171 710 171 642 "},"9":{"ha":728,"x_min":68,"x_max":640,"o":"m 351 318 q 492 348 436 318 q 597 442 549 378 l 576 435 q 505 315 556 382 q 369 170 454 247 q 161 13 283 93 l 181 -11 q 338 112 257 46 q 488 254 419 178 q 599 419 557 331 q 640 610 640 507 q 602 767 640 701 q 499 868 564 832 q 354 904 433 904 q 210 865 275 904 q 107 759 146 825 q 68 611 68 693 q 106 464 68 531 q 209 358 144 397 q 351 318 274 318 m 356 344 q 226 380 285 344 q 131 476 167 415 q 96 611 96 536 q 131 746 96 686 q 226 841 167 806 q 356 876 285 876 q 482 844 425 876 q 574 756 539 813 q 614 622 610 699 l 614 604 q 543 413 614 481 q 356 344 472 344 "},"A":{"ha":985,"x_min":88,"x_max":899,"o":"m 88 0 l 115 0 l 503 978 l 485 974 l 868 0 l 899 0 l 494 1019 l 492 1019 l 88 0 m 256 390 l 253 365 l 735 365 l 732 390 l 256 390 "},"Á":{"ha":985,"x_min":88,"x_max":899,"o":"m 88 0 l 115 0 l 503 978 l 485 974 l 868 0 l 899 0 l 494 1019 l 492 1019 l 88 0 m 256 390 l 253 365 l 735 365 l 732 390 l 256 390 m 638 1214 l 607 1214 l 483 1029 l 510 1029 l 638 1214 "},"Ă":{"ha":985,"x_min":88,"x_max":899,"o":"m 88 0 l 115 0 l 503 978 l 485 974 l 868 0 l 899 0 l 494 1019 l 492 1019 l 88 0 m 256 390 l 253 365 l 735 365 l 732 390 l 256 390 m 496 1050 q 581 1078 543 1050 q 643 1157 619 1107 q 667 1269 667 1207 l 643 1269 q 622 1172 640 1217 q 570 1101 603 1128 q 496 1074 538 1074 q 421 1101 454 1074 q 367 1172 388 1128 q 346 1269 347 1217 l 322 1269 q 347 1157 324 1207 q 409 1078 371 1107 q 496 1050 447 1050 "},"Ắ":{"ha":985,"x_min":88,"x_max":899,"o":"m 88 0 l 115 0 l 503 978 l 485 974 l 868 0 l 899 0 l 494 1019 l 492 1019 l 88 0 m 256 390 l 253 365 l 735 365 l 732 390 l 256 390 m 496 1050 q 581 1078 543 1050 q 643 1157 619 1107 q 667 1269 667 1207 l 643 1269 q 622 1172 640 1217 q 570 1101 603 1128 q 496 1074 538 1074 q 421 1101 454 1074 q 367 1172 388 1128 q 346 1269 347 1217 l 322 1269 q 347 1157 324 1207 q 409 1078 371 1107 q 496 1050 447 1050 m 635 1508 l 604 1508 l 481 1324 l 507 1324 l 635 1508 "},"Ặ":{"ha":985,"x_min":88,"x_max":899,"o":"m 88 0 l 115 0 l 503 978 l 485 974 l 868 0 l 899 0 l 494 1019 l 492 1019 l 88 0 m 256 390 l 253 365 l 735 365 l 732 390 l 256 390 m 461 -108 q 470 -130 461 -121 q 493 -139 479 -139 q 515 -130 506 -139 q 524 -108 524 -121 q 515 -87 524 -96 q 493 -78 506 -78 q 470 -87 479 -78 q 461 -108 461 -96 m 496 1050 q 581 1078 543 1050 q 643 1157 619 1107 q 667 1269 667 1207 l 643 1269 q 622 1172 640 1217 q 570 1101 603 1128 q 496 1074 538 1074 q 421 1101 454 1074 q 367 1172 388 1128 q 346 1269 347 1217 l 322 1269 q 347 1157 324 1207 q 409 1078 371 1107 q 496 1050 447 1050 "},"Ằ":{"ha":985,"x_min":88,"x_max":899,"o":"m 88 0 l 115 0 l 503 978 l 485 974 l 868 0 l 899 0 l 494 1019 l 492 1019 l 88 0 m 256 390 l 253 365 l 735 365 l 732 390 l 256 390 m 496 1050 q 581 1078 543 1050 q 643 1157 619 1107 q 667 1269 667 1207 l 643 1269 q 622 1172 640 1217 q 570 1101 603 1128 q 496 1074 538 1074 q 421 1101 454 1074 q 367 1172 388 1128 q 346 1269 347 1217 l 322 1269 q 347 1157 324 1207 q 409 1078 371 1107 q 496 1050 447 1050 m 358 1522 l 486 1338 l 513 1338 l 389 1522 l 358 1522 "},"Ẳ":{"ha":985,"x_min":88,"x_max":899,"o":"m 88 0 l 115 0 l 503 978 l 485 974 l 868 0 l 899 0 l 494 1019 l 492 1019 l 88 0 m 256 390 l 253 365 l 735 365 l 732 390 l 256 390 m 496 1050 q 581 1078 543 1050 q 643 1157 619 1107 q 667 1269 667 1207 l 643 1269 q 622 1172 640 1217 q 570 1101 603 1128 q 496 1074 538 1074 q 421 1101 454 1074 q 367 1172 388 1128 q 346 1269 347 1217 l 322 1269 q 347 1157 324 1207 q 409 1078 371 1107 q 496 1050 447 1050 m 499 1324 l 513 1310 q 572 1363 547 1338 q 597 1425 597 1388 q 585 1476 597 1457 q 556 1503 574 1494 q 518 1511 539 1511 q 464 1496 488 1511 q 419 1447 440 1481 l 435 1436 q 474 1477 457 1465 q 517 1489 490 1489 q 561 1470 547 1489 q 575 1424 575 1451 q 553 1372 575 1394 q 499 1324 531 1350 "},"Ẵ":{"ha":985,"x_min":88,"x_max":899,"o":"m 88 0 l 115 0 l 503 978 l 485 974 l 868 0 l 899 0 l 494 1019 l 492 1019 l 88 0 m 256 390 l 253 365 l 735 365 l 732 390 l 256 390 m 496 1050 q 581 1078 543 1050 q 643 1157 619 1107 q 667 1269 667 1207 l 643 1269 q 622 1172 640 1217 q 570 1101 603 1128 q 496 1074 538 1074 q 421 1101 454 1074 q 367 1172 388 1128 q 346 1269 347 1217 l 322 1269 q 347 1157 324 1207 q 409 1078 371 1107 q 496 1050 447 1050 m 589 1363 q 638 1378 615 1363 q 675 1426 661 1393 q 690 1514 689 1460 l 668 1517 q 641 1413 664 1439 q 589 1386 618 1386 q 540 1403 560 1386 q 501 1443 519 1421 q 458 1488 482 1467 q 396 1508 435 1508 q 347 1492 371 1508 q 308 1443 324 1476 q 292 1356 293 1410 l 314 1353 q 331 1433 317 1404 q 363 1472 344 1461 q 396 1483 381 1483 q 444 1465 425 1483 q 482 1426 464 1447 q 526 1382 503 1401 q 589 1363 550 1363 "},"Â":{"ha":985,"x_min":88,"x_max":899,"o":"m 88 0 l 115 0 l 503 978 l 485 974 l 868 0 l 899 0 l 494 1019 l 492 1019 l 88 0 m 256 390 l 253 365 l 735 365 l 732 390 l 256 390 m 651 1067 l 681 1067 l 494 1278 l 493 1278 l 308 1067 l 338 1067 l 504 1258 l 486 1257 l 651 1067 "},"Ấ":{"ha":985,"x_min":88,"x_max":899,"o":"m 88 0 l 115 0 l 503 978 l 485 974 l 868 0 l 899 0 l 494 1019 l 492 1019 l 88 0 m 256 390 l 253 365 l 735 365 l 732 390 l 256 390 m 646 1100 l 675 1100 l 489 1311 l 488 1311 l 303 1100 l 332 1100 l 499 1292 l 481 1290 l 646 1100 m 782 1403 l 751 1403 l 628 1218 l 654 1218 l 782 1403 "},"Ậ":{"ha":985,"x_min":88,"x_max":899,"o":"m 88 0 l 115 0 l 503 978 l 485 974 l 868 0 l 899 0 l 494 1019 l 492 1019 l 88 0 m 256 390 l 253 365 l 735 365 l 732 390 l 256 390 m 461 -108 q 470 -130 461 -121 q 493 -139 479 -139 q 515 -130 506 -139 q 524 -108 524 -121 q 515 -87 524 -96 q 493 -78 506 -78 q 470 -87 479 -78 q 461 -108 461 -96 m 651 1067 l 681 1067 l 494 1278 l 493 1278 l 308 1067 l 338 1067 l 504 1258 l 486 1257 l 651 1067 "},"Ầ":{"ha":985,"x_min":88,"x_max":899,"o":"m 88 0 l 115 0 l 503 978 l 485 974 l 868 0 l 899 0 l 494 1019 l 492 1019 l 88 0 m 256 390 l 253 365 l 735 365 l 732 390 l 256 390 m 639 1090 l 668 1090 l 482 1301 l 481 1301 l 296 1090 l 325 1090 l 492 1282 l 474 1281 l 639 1090 m 178 1415 l 306 1231 l 332 1231 l 208 1415 l 178 1415 "},"Ẩ":{"ha":985,"x_min":88,"x_max":899,"o":"m 88 0 l 115 0 l 503 978 l 485 974 l 868 0 l 899 0 l 494 1019 l 492 1019 l 88 0 m 256 390 l 253 365 l 735 365 l 732 390 l 256 390 m 640 1101 l 669 1101 l 483 1313 l 482 1313 l 297 1101 l 326 1101 l 493 1293 l 475 1292 l 640 1101 m 632 1225 l 646 1211 q 706 1264 681 1239 q 731 1326 731 1289 q 719 1377 731 1358 q 690 1404 707 1396 q 651 1413 672 1413 q 597 1397 621 1413 q 553 1349 574 1382 l 568 1338 q 607 1378 590 1367 q 650 1390 624 1390 q 694 1372 681 1390 q 708 1325 708 1353 q 686 1274 708 1296 q 632 1225 664 1251 "},"Ẫ":{"ha":985,"x_min":88,"x_max":899,"o":"m 88 0 l 115 0 l 503 978 l 485 974 l 868 0 l 899 0 l 494 1019 l 492 1019 l 88 0 m 256 390 l 253 365 l 735 365 l 732 390 l 256 390 m 647 1074 l 676 1074 l 490 1285 l 489 1285 l 304 1074 l 333 1074 l 500 1265 l 482 1264 l 647 1074 m 586 1310 q 636 1325 614 1310 q 672 1374 658 1340 q 688 1463 686 1408 l 665 1464 q 638 1360 661 1386 q 588 1335 615 1335 q 538 1351 558 1335 q 499 1390 517 1368 q 456 1435 479 1414 q 393 1456 432 1456 q 345 1440 368 1456 q 306 1390 322 1424 q 289 1303 290 1357 l 311 1300 q 328 1381 314 1353 q 360 1419 342 1408 q 394 1431 378 1431 q 442 1413 422 1431 q 481 1374 461 1394 q 524 1330 500 1350 q 586 1310 549 1310 "},"Ȁ":{"ha":985,"x_min":88,"x_max":899,"o":"m 88 0 l 115 0 l 503 978 l 485 974 l 868 0 l 899 0 l 494 1019 l 492 1019 l 88 0 m 256 390 l 253 365 l 735 365 l 732 390 l 256 390 m 293 1257 l 421 1072 l 447 1072 l 324 1257 l 293 1257 m 428 1257 l 556 1072 l 582 1072 l 458 1257 l 428 1257 "},"Ä":{"ha":985,"x_min":88,"x_max":899,"o":"m 88 0 l 115 0 l 503 978 l 485 974 l 868 0 l 899 0 l 494 1019 l 492 1019 l 88 0 m 256 390 l 253 365 l 735 365 l 732 390 l 256 390 m 346 1092 l 346 1092 q 355 1070 346 1079 q 376 1061 364 1061 q 398 1070 389 1061 q 407 1092 407 1079 q 398 1113 407 1104 q 376 1122 389 1122 q 355 1113 364 1122 q 346 1092 346 1104 m 576 1092 l 576 1092 q 585 1070 576 1079 q 608 1061 594 1061 q 629 1070 619 1061 q 639 1092 639 1079 q 629 1113 639 1104 q 608 1122 619 1122 q 585 1113 594 1122 q 576 1092 576 1104 "},"Ạ":{"ha":985,"x_min":88,"x_max":899,"o":"m 88 0 l 115 0 l 503 978 l 485 974 l 868 0 l 899 0 l 494 1019 l 492 1019 l 88 0 m 256 390 l 253 365 l 735 365 l 732 390 l 256 390 m 461 -108 q 470 -130 461 -121 q 493 -139 479 -139 q 515 -130 506 -139 q 524 -108 524 -121 q 515 -87 524 -96 q 493 -78 506 -78 q 470 -87 479 -78 q 461 -108 461 -96 "},"À":{"ha":985,"x_min":88,"x_max":899,"o":"m 88 0 l 115 0 l 503 978 l 485 974 l 868 0 l 899 0 l 494 1019 l 492 1019 l 88 0 m 256 390 l 253 365 l 735 365 l 732 390 l 256 390 m 361 1228 l 489 1043 l 515 1043 l 392 1228 l 361 1228 "},"Ả":{"ha":985,"x_min":88,"x_max":899,"o":"m 88 0 l 115 0 l 503 978 l 485 974 l 868 0 l 899 0 l 494 1019 l 492 1019 l 88 0 m 256 390 l 253 365 l 735 365 l 732 390 l 256 390 m 501 1031 l 515 1017 q 575 1069 550 1044 q 600 1132 600 1094 q 588 1183 600 1164 q 559 1210 576 1201 q 521 1218 542 1218 q 467 1203 490 1218 q 422 1154 443 1188 l 438 1143 q 476 1184 460 1172 q 519 1196 493 1196 q 564 1177 550 1196 q 578 1131 578 1158 q 556 1079 578 1101 q 501 1031 533 1057 "},"Ȃ":{"ha":985,"x_min":88,"x_max":899,"o":"m 88 0 l 115 0 l 503 978 l 485 974 l 868 0 l 899 0 l 494 1019 l 492 1019 l 88 0 m 256 390 l 253 365 l 735 365 l 732 390 l 256 390 m 490 1244 q 405 1215 443 1244 q 344 1137 367 1186 q 319 1024 321 1088 l 344 1024 q 365 1121 346 1076 q 416 1192 383 1165 q 490 1219 449 1219 q 565 1192 532 1219 q 619 1121 599 1165 q 642 1024 639 1076 l 664 1024 q 639 1137 663 1088 q 577 1215 615 1186 q 490 1244 539 1244 "},"Ā":{"ha":985,"x_min":88,"x_max":899,"o":"m 88 0 l 115 0 l 503 978 l 485 974 l 868 0 l 899 0 l 494 1019 l 492 1019 l 88 0 m 256 390 l 253 365 l 735 365 l 732 390 l 256 390 m 332 1076 l 332 1053 l 653 1053 l 653 1076 l 332 1076 "},"Ą":{"ha":985,"x_min":88,"x_max":949,"o":"m 88 0 l 115 0 l 503 978 l 485 974 l 868 0 l 899 0 l 494 1019 l 492 1019 l 88 0 m 256 390 l 253 365 l 735 365 l 732 390 l 256 390 m 843 -261 q 907 -239 879 -261 q 949 -186 935 -217 l 931 -174 q 894 -218 917 -200 q 846 -236 872 -236 q 793 -214 817 -236 q 769 -153 769 -192 q 803 -74 769 -112 q 899 0 836 -35 l 879 17 q 784 -56 825 -11 q 743 -154 743 -101 q 774 -232 743 -203 q 843 -261 804 -261 "},"Å":{"ha":985,"x_min":88,"x_max":899,"o":"m 88 0 l 115 0 l 503 978 l 485 974 l 868 0 l 899 0 l 494 1019 l 492 1019 l 88 0 m 256 390 l 253 365 l 735 365 l 732 390 l 256 390 m 403 1161 q 428 1097 403 1122 q 493 1072 454 1072 q 558 1097 532 1072 q 583 1161 583 1122 q 558 1226 583 1200 q 493 1251 532 1251 q 428 1226 454 1251 q 403 1161 403 1200 m 425 1161 q 445 1209 425 1189 q 493 1229 465 1229 q 540 1209 519 1229 q 560 1161 560 1189 q 540 1115 560 1135 q 493 1094 519 1094 q 445 1115 465 1094 q 425 1161 425 1135 "},"Ǻ":{"ha":985,"x_min":88,"x_max":899,"o":"m 88 0 l 115 0 l 503 978 l 485 974 l 868 0 l 899 0 l 494 1019 l 492 1019 l 88 0 m 256 390 l 253 365 l 735 365 l 732 390 l 256 390 m 403 1161 q 428 1097 403 1122 q 493 1072 454 1072 q 558 1097 532 1072 q 583 1161 583 1122 q 558 1226 583 1200 q 493 1251 532 1251 q 428 1226 454 1251 q 403 1161 403 1200 m 425 1161 q 445 1209 425 1189 q 493 1229 465 1229 q 540 1209 519 1229 q 560 1161 560 1189 q 540 1115 560 1135 q 493 1094 519 1094 q 445 1115 465 1094 q 425 1161 425 1135 m 638 1489 l 607 1489 l 483 1304 l 510 1304 l 638 1489 "},"Ã":{"ha":985,"x_min":88,"x_max":899,"o":"m 88 0 l 115 0 l 503 978 l 485 974 l 868 0 l 899 0 l 494 1019 l 492 1019 l 88 0 m 256 390 l 253 365 l 735 365 l 732 390 l 256 390 m 592 1069 q 641 1085 618 1069 q 678 1133 664 1100 q 693 1221 692 1167 l 671 1224 q 644 1119 667 1146 q 592 1093 621 1093 q 542 1110 563 1093 q 504 1150 522 1128 q 461 1194 485 1174 q 399 1215 438 1215 q 350 1199 374 1215 q 311 1150 326 1183 q 294 1063 296 1117 l 317 1060 q 333 1140 319 1111 q 365 1179 347 1168 q 399 1190 383 1190 q 447 1172 428 1190 q 485 1133 467 1154 q 529 1089 506 1108 q 592 1069 553 1069 "},"Æ":{"ha":1282,"x_min":33,"x_max":1172,"o":"m 643 975 l 643 0 l 1172 0 l 1172 28 l 671 28 l 671 478 l 1099 478 l 1099 504 l 671 504 l 671 947 l 1153 947 l 1153 975 l 643 975 m 661 964 l 643 975 l 33 0 l 64 0 l 649 928 q 655 946 651 936 q 661 964 658 956 m 231 311 l 228 286 l 656 286 l 656 311 l 231 311 "},"Ǽ":{"ha":1282,"x_min":33,"x_max":1172,"o":"m 643 975 l 643 0 l 1172 0 l 1172 28 l 671 28 l 671 478 l 1099 478 l 1099 504 l 671 504 l 671 947 l 1153 947 l 1153 975 l 643 975 m 661 964 l 643 975 l 33 0 l 64 0 l 649 928 q 655 946 651 936 q 661 964 658 956 m 231 311 l 228 286 l 656 286 l 656 311 l 231 311 m 1008 1214 l 978 1214 l 854 1029 l 881 1029 l 1008 1214 "},"B":{"ha":796,"x_min":165,"x_max":694,"o":"m 358 975 l 165 975 l 165 0 l 397 0 q 508 16 454 0 q 603 64 561 32 q 669 142 644 96 q 694 251 694 189 q 661 371 694 319 q 575 454 628 422 q 461 494 522 486 l 461 485 q 566 532 526 496 q 624 619 606 568 q 643 726 643 671 q 569 917 643 860 q 358 975 496 975 m 393 501 l 193 501 l 193 949 l 360 949 q 546 897 476 949 q 615 725 615 846 q 563 565 615 628 q 393 501 511 501 m 394 25 l 193 25 l 193 475 l 394 475 q 521 451 458 475 q 625 377 583 428 q 667 247 667 326 q 629 124 667 174 q 530 50 592 75 q 394 25 468 25 "},"C":{"ha":958,"x_min":103,"x_max":856,"o":"m 856 60 l 839 83 q 725 34 786 53 q 596 15 664 15 q 403 52 489 15 q 257 153 318 89 q 163 303 196 218 q 131 481 131 388 q 167 667 131 581 q 268 820 204 754 q 417 923 332 886 q 599 960 503 960 q 727 942 665 960 q 842 892 789 924 l 856 915 q 734 967 799 949 q 599 986 669 986 q 406 947 496 986 q 247 840 315 908 q 141 679 179 771 q 103 482 103 588 q 138 292 103 382 q 238 135 172 203 q 394 28 303 67 q 596 -11 485 -11 q 692 -2 646 -11 q 778 23 738 7 q 856 60 819 39 "},"Ć":{"ha":958,"x_min":103,"x_max":856,"o":"m 856 60 l 839 83 q 725 34 786 53 q 596 15 664 15 q 403 52 489 15 q 257 153 318 89 q 163 303 196 218 q 131 481 131 388 q 167 667 131 581 q 268 820 204 754 q 417 923 332 886 q 599 960 503 960 q 727 942 665 960 q 842 892 789 924 l 856 915 q 734 967 799 949 q 599 986 669 986 q 406 947 496 986 q 247 840 315 908 q 141 679 179 771 q 103 482 103 588 q 138 292 103 382 q 238 135 172 203 q 394 28 303 67 q 596 -11 485 -11 q 692 -2 646 -11 q 778 23 738 7 q 856 60 819 39 m 719 1226 l 689 1226 l 565 1042 l 592 1042 l 719 1226 "},"Č":{"ha":958,"x_min":103,"x_max":856,"o":"m 856 60 l 839 83 q 725 34 786 53 q 596 15 664 15 q 403 52 489 15 q 257 153 318 89 q 163 303 196 218 q 131 481 131 388 q 167 667 131 581 q 268 820 204 754 q 417 923 332 886 q 599 960 503 960 q 727 942 665 960 q 842 892 789 924 l 856 915 q 734 967 799 949 q 599 986 669 986 q 406 947 496 986 q 247 840 315 908 q 141 679 179 771 q 103 482 103 588 q 138 292 103 382 q 238 135 172 203 q 394 28 303 67 q 596 -11 485 -11 q 692 -2 646 -11 q 778 23 738 7 q 856 60 819 39 m 417 1254 l 388 1254 l 574 1044 l 575 1044 l 760 1254 l 731 1254 l 564 1063 l 582 1064 l 417 1254 "},"Ç":{"ha":958,"x_min":103,"x_max":856,"o":"m 856 60 l 839 83 q 725 34 786 53 q 596 15 664 15 q 403 52 489 15 q 257 153 318 89 q 163 303 196 218 q 131 481 131 388 q 167 667 131 581 q 268 820 204 754 q 417 923 332 886 q 599 960 503 960 q 727 942 665 960 q 842 892 789 924 l 856 915 q 734 967 799 949 q 599 986 669 986 q 406 947 496 986 q 247 840 315 908 q 141 679 179 771 q 103 482 103 588 q 138 292 103 382 q 238 135 172 203 q 394 28 303 67 q 596 -11 485 -11 q 692 -2 646 -11 q 778 23 738 7 q 856 60 819 39 m 468 -251 l 454 -272 q 507 -299 475 -289 q 578 -310 539 -310 q 653 -298 619 -310 q 708 -262 688 -286 q 728 -203 728 -239 q 691 -119 728 -149 q 586 -90 654 -90 q 522 -99 556 -90 q 472 -117 488 -107 l 493 -122 l 588 -6 l 565 7 l 464 -117 l 483 -135 q 531 -120 500 -126 q 585 -114 561 -114 q 671 -140 643 -114 q 699 -203 699 -165 q 665 -266 699 -244 q 575 -287 632 -287 q 511 -277 538 -287 q 468 -251 485 -267 "},"Ĉ":{"ha":958,"x_min":103,"x_max":856,"o":"m 856 60 l 839 83 q 725 34 786 53 q 596 15 664 15 q 403 52 489 15 q 257 153 318 89 q 163 303 196 218 q 131 481 131 388 q 167 667 131 581 q 268 820 204 754 q 417 923 332 886 q 599 960 503 960 q 727 942 665 960 q 842 892 789 924 l 856 915 q 734 967 799 949 q 599 986 669 986 q 406 947 496 986 q 247 840 315 908 q 141 679 179 771 q 103 482 103 588 q 138 292 103 382 q 238 135 172 203 q 394 28 303 67 q 596 -11 485 -11 q 692 -2 646 -11 q 778 23 738 7 q 856 60 819 39 m 733 1079 l 763 1079 l 576 1290 l 575 1290 l 390 1079 l 419 1079 l 586 1271 l 568 1269 l 733 1079 "},"Ċ":{"ha":958,"x_min":103,"x_max":856,"o":"m 856 60 l 839 83 q 725 34 786 53 q 596 15 664 15 q 403 52 489 15 q 257 153 318 89 q 163 303 196 218 q 131 481 131 388 q 167 667 131 581 q 268 820 204 754 q 417 923 332 886 q 599 960 503 960 q 727 942 665 960 q 842 892 789 924 l 856 915 q 734 967 799 949 q 599 986 669 986 q 406 947 496 986 q 247 840 315 908 q 141 679 179 771 q 103 482 103 588 q 138 292 103 382 q 238 135 172 203 q 394 28 303 67 q 596 -11 485 -11 q 692 -2 646 -11 q 778 23 738 7 q 856 60 819 39 m 543 1103 q 552 1081 543 1090 q 575 1072 561 1072 q 597 1081 588 1072 q 606 1103 606 1090 q 597 1124 606 1115 q 575 1133 588 1133 q 552 1124 561 1133 q 543 1103 543 1115 "},"D":{"ha":1008,"x_min":165,"x_max":906,"o":"m 165 0 l 435 0 q 613 34 528 0 q 763 132 697 68 q 867 285 829 196 q 906 486 906 375 q 877 655 906 569 q 787 813 849 740 q 626 931 725 886 q 389 975 528 975 l 165 975 l 165 0 m 193 26 l 193 947 l 383 947 q 611 906 517 947 q 765 797 706 865 q 851 648 824 729 q 878 488 878 567 q 842 296 878 381 q 743 151 806 211 q 598 58 681 90 q 422 26 515 26 l 193 26 "},"Ǆ":{"ha":1976,"x_min":165,"x_max":1894,"o":"m 165 0 l 435 0 q 613 34 528 0 q 763 132 697 68 q 867 285 829 196 q 906 486 906 375 q 877 655 906 569 q 787 813 849 740 q 626 931 725 886 q 389 975 528 975 l 165 975 l 165 0 m 193 26 l 193 947 l 383 947 q 611 906 517 947 q 765 797 706 865 q 851 648 824 729 q 878 488 878 567 q 842 296 878 381 q 743 151 806 211 q 598 58 681 90 q 422 26 515 26 l 193 26 m 1090 0 l 1894 0 l 1894 26 l 1131 26 l 1133 19 l 1850 975 l 1194 975 q 1162 984 1171 975 q 1153 1007 1153 993 l 1153 1024 l 1124 1024 l 1124 1011 q 1133 972 1124 985 q 1159 953 1142 958 q 1203 949 1176 949 l 1815 949 l 1806 957 q 1721 844 1764 901 q 1633 728 1678 788 q 1541 607 1588 668 q 1448 484 1494 546 q 1356 360 1401 422 q 1265 238 1310 299 q 1176 117 1219 176 q 1090 0 1132 57 m 1335 1239 l 1306 1239 l 1492 1029 l 1493 1029 l 1678 1239 l 1649 1239 l 1482 1047 l 1500 1049 l 1335 1239 "},"Ð":{"ha":1008,"x_min":15,"x_max":906,"o":"m 165 0 l 435 0 q 613 34 528 0 q 763 132 697 68 q 867 285 829 196 q 906 486 906 375 q 877 655 906 569 q 787 813 849 740 q 626 931 725 886 q 389 975 528 975 l 165 975 l 165 0 m 193 26 l 193 947 l 383 947 q 611 906 517 947 q 765 797 706 865 q 851 648 824 729 q 878 488 878 567 q 842 296 878 381 q 743 151 806 211 q 598 58 681 90 q 422 26 515 26 l 193 26 m 15 500 l 15 474 l 338 474 l 338 500 l 15 500 "},"Ď":{"ha":1008,"x_min":165,"x_max":906,"o":"m 165 0 l 435 0 q 613 34 528 0 q 763 132 697 68 q 867 285 829 196 q 906 486 906 375 q 877 655 906 569 q 787 813 849 740 q 626 931 725 886 q 389 975 528 975 l 165 975 l 165 0 m 193 26 l 193 947 l 383 947 q 611 906 517 947 q 765 797 706 865 q 851 648 824 729 q 878 488 878 567 q 842 296 878 381 q 743 151 806 211 q 598 58 681 90 q 422 26 515 26 l 193 26 m 246 1239 l 217 1239 l 403 1029 l 404 1029 l 589 1239 l 560 1239 l 393 1047 l 411 1049 l 246 1239 "},"Đ":{"ha":1008,"x_min":15,"x_max":906,"o":"m 165 0 l 435 0 q 613 34 528 0 q 763 132 697 68 q 867 285 829 196 q 906 486 906 375 q 877 655 906 569 q 787 813 849 740 q 626 931 725 886 q 389 975 528 975 l 165 975 l 165 0 m 193 26 l 193 947 l 383 947 q 611 906 517 947 q 765 797 706 865 q 851 648 824 729 q 878 488 878 567 q 842 296 878 381 q 743 151 806 211 q 598 58 681 90 q 422 26 515 26 l 193 26 m 15 500 l 15 474 l 338 474 l 338 500 l 15 500 "},"ǅ":{"ha":1519,"x_min":165,"x_max":1469,"o":"m 165 0 l 435 0 q 613 34 528 0 q 763 132 697 68 q 867 285 829 196 q 906 486 906 375 q 877 655 906 569 q 787 813 849 740 q 626 931 725 886 q 389 975 528 975 l 165 975 l 165 0 m 193 26 l 193 947 l 383 947 q 611 906 517 947 q 765 797 706 865 q 851 648 824 729 q 878 488 878 567 q 842 296 878 381 q 743 151 806 211 q 598 58 681 90 q 422 26 515 26 l 193 26 m 1129 500 l 1435 500 l 1426 508 l 1065 0 l 1463 0 l 1463 25 l 1104 25 l 1111 18 l 1469 525 l 1128 525 q 1093 534 1104 525 q 1082 557 1082 543 l 1082 574 l 1058 574 l 1058 565 q 1077 512 1058 524 q 1129 500 1096 500 m 1119 804 l 1090 804 l 1276 594 l 1278 594 l 1463 804 l 1433 804 l 1267 613 l 1285 614 l 1119 804 "},"E":{"ha":876,"x_min":165,"x_max":767,"o":"m 165 975 l 165 0 l 767 0 l 767 26 l 193 26 l 193 479 l 693 479 l 693 506 l 193 506 l 193 949 l 747 949 l 747 975 l 165 975 "},"É":{"ha":876,"x_min":165,"x_max":767,"o":"m 165 975 l 165 0 l 767 0 l 767 26 l 193 26 l 193 479 l 693 479 l 693 506 l 193 506 l 193 949 l 747 949 l 747 975 l 165 975 m 583 1214 l 553 1214 l 429 1029 l 456 1029 l 583 1214 "},"Ĕ":{"ha":876,"x_min":165,"x_max":767,"o":"m 165 975 l 165 0 l 767 0 l 767 26 l 193 26 l 193 479 l 693 479 l 693 506 l 193 506 l 193 949 l 747 949 l 747 975 l 165 975 m 442 1050 q 527 1078 489 1050 q 589 1157 565 1107 q 613 1269 613 1207 l 589 1269 q 567 1172 586 1217 q 516 1101 549 1128 q 442 1074 483 1074 q 367 1101 400 1074 q 313 1172 333 1128 q 292 1269 293 1217 l 268 1269 q 293 1157 269 1207 q 355 1078 317 1107 q 442 1050 393 1050 "},"Ě":{"ha":876,"x_min":165,"x_max":767,"o":"m 165 975 l 165 0 l 767 0 l 767 26 l 193 26 l 193 479 l 693 479 l 693 506 l 193 506 l 193 949 l 747 949 l 747 975 l 165 975 m 282 1240 l 253 1240 l 439 1031 l 440 1031 l 625 1240 l 596 1240 l 429 1049 l 447 1050 l 282 1240 "},"Ê":{"ha":876,"x_min":165,"x_max":767,"o":"m 165 975 l 165 0 l 767 0 l 767 26 l 193 26 l 193 479 l 693 479 l 693 506 l 193 506 l 193 949 l 747 949 l 747 975 l 165 975 m 599 1065 l 628 1065 l 442 1276 l 440 1276 l 256 1065 l 285 1065 l 451 1257 l 433 1256 l 599 1065 "},"Ế":{"ha":876,"x_min":165,"x_max":767,"o":"m 165 975 l 165 0 l 767 0 l 767 26 l 193 26 l 193 479 l 693 479 l 693 506 l 193 506 l 193 949 l 747 949 l 747 975 l 165 975 m 592 1099 l 621 1099 l 435 1310 l 433 1310 l 249 1099 l 278 1099 l 444 1290 l 426 1289 l 592 1099 m 728 1401 l 697 1401 l 574 1217 l 600 1217 l 728 1401 "},"Ệ":{"ha":876,"x_min":165,"x_max":767,"o":"m 165 975 l 165 0 l 767 0 l 767 26 l 193 26 l 193 479 l 693 479 l 693 506 l 193 506 l 193 949 l 747 949 l 747 975 l 165 975 m 408 -108 q 417 -130 408 -121 q 440 -139 426 -139 q 462 -130 453 -139 q 471 -108 471 -121 q 462 -87 471 -96 q 440 -78 453 -78 q 417 -87 426 -78 q 408 -108 408 -96 m 599 1065 l 628 1065 l 442 1276 l 440 1276 l 256 1065 l 285 1065 l 451 1257 l 433 1256 l 599 1065 "},"Ề":{"ha":876,"x_min":125,"x_max":767,"o":"m 165 975 l 165 0 l 767 0 l 767 26 l 193 26 l 193 479 l 693 479 l 693 506 l 193 506 l 193 949 l 747 949 l 747 975 l 165 975 m 586 1089 l 615 1089 l 429 1300 l 428 1300 l 243 1089 l 272 1089 l 439 1281 l 421 1279 l 586 1089 m 125 1414 l 253 1229 l 279 1229 l 156 1414 l 125 1414 "},"Ể":{"ha":876,"x_min":165,"x_max":767,"o":"m 165 975 l 165 0 l 767 0 l 767 26 l 193 26 l 193 479 l 693 479 l 693 506 l 193 506 l 193 949 l 747 949 l 747 975 l 165 975 m 588 1100 l 617 1100 l 431 1311 l 429 1311 l 244 1100 l 274 1100 l 440 1292 l 422 1290 l 588 1100 m 579 1224 l 593 1210 q 653 1263 628 1238 q 678 1325 678 1288 q 666 1376 678 1357 q 637 1403 654 1394 q 599 1411 619 1411 q 544 1396 568 1411 q 500 1347 521 1381 l 515 1336 q 554 1377 538 1365 q 597 1389 571 1389 q 642 1370 628 1389 q 656 1324 656 1351 q 633 1272 656 1294 q 579 1224 611 1250 "},"Ễ":{"ha":876,"x_min":165,"x_max":767,"o":"m 165 975 l 165 0 l 767 0 l 767 26 l 193 26 l 193 479 l 693 479 l 693 506 l 193 506 l 193 949 l 747 949 l 747 975 l 165 975 m 594 1074 l 624 1074 l 438 1285 l 436 1285 l 251 1074 l 281 1074 l 447 1265 l 429 1264 l 594 1074 m 533 1310 q 583 1325 561 1310 q 619 1374 606 1340 q 635 1463 633 1408 l 613 1464 q 585 1360 608 1386 q 535 1335 563 1335 q 485 1351 506 1335 q 446 1390 464 1368 q 403 1435 426 1414 q 340 1456 379 1456 q 292 1440 315 1456 q 253 1390 269 1424 q 236 1303 238 1357 l 258 1300 q 275 1381 261 1353 q 307 1419 289 1408 q 342 1431 325 1431 q 389 1413 369 1431 q 428 1374 408 1394 q 472 1330 447 1350 q 533 1310 496 1310 "},"Ȅ":{"ha":876,"x_min":165,"x_max":767,"o":"m 165 975 l 165 0 l 767 0 l 767 26 l 193 26 l 193 479 l 693 479 l 693 506 l 193 506 l 193 949 l 747 949 l 747 975 l 165 975 m 240 1257 l 368 1072 l 394 1072 l 271 1257 l 240 1257 m 375 1257 l 503 1072 l 529 1072 l 406 1257 l 375 1257 "},"Ë":{"ha":876,"x_min":165,"x_max":767,"o":"m 165 975 l 165 0 l 767 0 l 767 26 l 193 26 l 193 479 l 693 479 l 693 506 l 193 506 l 193 949 l 747 949 l 747 975 l 165 975 m 293 1090 l 293 1090 q 302 1069 293 1078 q 324 1060 311 1060 q 345 1069 336 1060 q 354 1090 354 1078 q 345 1112 354 1103 q 324 1121 336 1121 q 302 1112 311 1121 q 293 1090 293 1103 m 524 1090 l 524 1090 q 533 1069 524 1078 q 556 1060 542 1060 q 576 1069 567 1060 q 586 1090 586 1078 q 576 1112 586 1103 q 556 1121 567 1121 q 533 1112 542 1121 q 524 1090 524 1103 "},"Ė":{"ha":876,"x_min":165,"x_max":767,"o":"m 165 975 l 165 0 l 767 0 l 767 26 l 193 26 l 193 479 l 693 479 l 693 506 l 193 506 l 193 949 l 747 949 l 747 975 l 165 975 m 408 1089 q 417 1067 408 1076 q 440 1058 426 1058 q 462 1067 453 1058 q 471 1089 471 1076 q 462 1110 471 1101 q 440 1119 453 1119 q 417 1110 426 1119 q 408 1089 408 1101 "},"Ẹ":{"ha":876,"x_min":165,"x_max":767,"o":"m 165 975 l 165 0 l 767 0 l 767 26 l 193 26 l 193 479 l 693 479 l 693 506 l 193 506 l 193 949 l 747 949 l 747 975 l 165 975 m 408 -108 q 417 -130 408 -121 q 440 -139 426 -139 q 462 -130 453 -139 q 471 -108 471 -121 q 462 -87 471 -96 q 440 -78 453 -78 q 417 -87 426 -78 q 408 -108 408 -96 "},"È":{"ha":876,"x_min":165,"x_max":767,"o":"m 165 975 l 165 0 l 767 0 l 767 26 l 193 26 l 193 479 l 693 479 l 693 506 l 193 506 l 193 949 l 747 949 l 747 975 l 165 975 m 307 1228 l 435 1043 l 461 1043 l 338 1228 l 307 1228 "},"Ẻ":{"ha":876,"x_min":165,"x_max":767,"o":"m 165 975 l 165 0 l 767 0 l 767 26 l 193 26 l 193 479 l 693 479 l 693 506 l 193 506 l 193 949 l 747 949 l 747 975 l 165 975 m 447 1029 l 461 1015 q 521 1068 496 1043 q 546 1131 546 1093 q 534 1181 546 1163 q 505 1208 522 1200 q 467 1217 488 1217 q 413 1201 436 1217 q 368 1153 389 1186 l 383 1142 q 422 1183 406 1171 q 465 1194 439 1194 q 510 1176 496 1194 q 524 1129 524 1157 q 501 1078 524 1100 q 447 1029 479 1056 "},"Ȇ":{"ha":876,"x_min":165,"x_max":767,"o":"m 165 975 l 165 0 l 767 0 l 767 26 l 193 26 l 193 479 l 693 479 l 693 506 l 193 506 l 193 949 l 747 949 l 747 975 l 165 975 m 438 1244 q 352 1215 390 1244 q 291 1137 314 1186 q 267 1024 268 1088 l 292 1024 q 312 1121 293 1076 q 363 1192 331 1165 q 438 1219 396 1219 q 513 1192 479 1219 q 566 1121 546 1165 q 589 1024 586 1076 l 611 1024 q 586 1137 610 1088 q 524 1215 563 1186 q 438 1244 486 1244 "},"Ē":{"ha":876,"x_min":165,"x_max":767,"o":"m 165 975 l 165 0 l 767 0 l 767 26 l 193 26 l 193 479 l 693 479 l 693 506 l 193 506 l 193 949 l 747 949 l 747 975 l 165 975 m 279 1076 l 279 1053 l 600 1053 l 600 1076 l 279 1076 "},"Ę":{"ha":876,"x_min":165,"x_max":815,"o":"m 165 975 l 165 0 l 767 0 l 767 26 l 193 26 l 193 479 l 693 479 l 693 506 l 193 506 l 193 949 l 747 949 l 747 975 l 165 975 m 710 -261 q 774 -239 746 -261 q 815 -186 801 -217 l 797 -174 q 761 -218 783 -200 q 713 -236 739 -236 q 660 -214 683 -236 q 636 -153 636 -192 q 669 -74 636 -112 q 765 0 703 -35 l 746 17 q 651 -56 692 -11 q 610 -154 610 -101 q 640 -232 610 -203 q 710 -261 671 -261 "},"Ẽ":{"ha":876,"x_min":165,"x_max":767,"o":"m 165 975 l 165 0 l 767 0 l 767 26 l 193 26 l 193 479 l 693 479 l 693 506 l 193 506 l 193 949 l 747 949 l 747 975 l 165 975 m 539 1068 q 588 1083 565 1068 q 625 1132 611 1099 q 640 1219 639 1165 l 618 1222 q 591 1118 614 1144 q 539 1092 568 1092 q 490 1109 510 1092 q 451 1149 469 1126 q 408 1193 432 1172 q 346 1214 385 1214 q 297 1198 321 1214 q 258 1149 274 1182 q 242 1061 243 1115 l 264 1058 q 281 1138 267 1110 q 313 1178 294 1167 q 346 1189 331 1189 q 394 1171 375 1189 q 432 1132 414 1153 q 476 1088 453 1107 q 539 1068 500 1068 "},"F":{"ha":793,"x_min":165,"x_max":692,"o":"m 165 975 l 165 0 l 193 0 l 193 464 l 638 464 l 638 490 l 193 490 l 193 949 l 692 949 l 692 975 l 165 975 "},"G":{"ha":1021,"x_min":103,"x_max":885,"o":"m 885 60 l 885 422 l 621 422 l 621 396 l 857 396 l 857 78 q 732 31 804 47 q 597 15 660 15 q 404 51 490 15 q 257 152 318 88 q 163 301 196 217 q 131 485 131 386 q 167 668 131 582 q 267 819 203 754 q 417 922 332 885 q 601 960 503 960 q 687 951 644 960 q 769 928 729 943 q 843 892 808 913 l 857 915 q 735 967 800 949 q 600 986 671 986 q 407 947 497 986 q 249 840 317 908 q 142 680 181 771 q 103 485 103 589 q 138 292 103 382 q 238 133 172 201 q 395 27 303 65 q 600 -11 488 -11 q 674 -6 636 -11 q 751 8 713 -1 q 823 31 789 18 q 885 60 857 44 "},"Ğ":{"ha":1021,"x_min":103,"x_max":885,"o":"m 885 60 l 885 422 l 621 422 l 621 396 l 857 396 l 857 78 q 732 31 804 47 q 597 15 660 15 q 404 51 490 15 q 257 152 318 88 q 163 301 196 217 q 131 485 131 386 q 167 668 131 582 q 267 819 203 754 q 417 922 332 885 q 601 960 503 960 q 687 951 644 960 q 769 928 729 943 q 843 892 808 913 l 857 915 q 735 967 800 949 q 600 986 671 986 q 407 947 497 986 q 249 840 317 908 q 142 680 181 771 q 103 485 103 589 q 138 292 103 382 q 238 133 172 201 q 395 27 303 65 q 600 -11 488 -11 q 674 -6 636 -11 q 751 8 713 -1 q 823 31 789 18 q 885 60 857 44 m 560 1049 q 645 1077 607 1049 q 707 1156 683 1106 q 731 1268 731 1206 l 707 1268 q 685 1171 704 1215 q 634 1099 667 1126 q 560 1072 601 1072 q 485 1099 518 1072 q 431 1171 451 1126 q 410 1268 411 1215 l 386 1268 q 411 1156 388 1206 q 473 1077 435 1106 q 560 1049 511 1049 "},"Ǧ":{"ha":1021,"x_min":103,"x_max":885,"o":"m 885 60 l 885 422 l 621 422 l 621 396 l 857 396 l 857 78 q 732 31 804 47 q 597 15 660 15 q 404 51 490 15 q 257 152 318 88 q 163 301 196 217 q 131 485 131 386 q 167 668 131 582 q 267 819 203 754 q 417 922 332 885 q 601 960 503 960 q 687 951 644 960 q 769 928 729 943 q 843 892 808 913 l 857 915 q 735 967 800 949 q 600 986 671 986 q 407 947 497 986 q 249 840 317 908 q 142 680 181 771 q 103 485 103 589 q 138 292 103 382 q 238 133 172 201 q 395 27 303 65 q 600 -11 488 -11 q 674 -6 636 -11 q 751 8 713 -1 q 823 31 789 18 q 885 60 857 44 m 399 1239 l 369 1239 l 556 1029 l 557 1029 l 742 1239 l 713 1239 l 546 1047 l 564 1049 l 399 1239 "},"Ĝ":{"ha":1021,"x_min":103,"x_max":885,"o":"m 885 60 l 885 422 l 621 422 l 621 396 l 857 396 l 857 78 q 732 31 804 47 q 597 15 660 15 q 404 51 490 15 q 257 152 318 88 q 163 301 196 217 q 131 485 131 386 q 167 668 131 582 q 267 819 203 754 q 417 922 332 885 q 601 960 503 960 q 687 951 644 960 q 769 928 729 943 q 843 892 808 913 l 857 915 q 735 967 800 949 q 600 986 671 986 q 407 947 497 986 q 249 840 317 908 q 142 680 181 771 q 103 485 103 589 q 138 292 103 382 q 238 133 172 201 q 395 27 303 65 q 600 -11 488 -11 q 674 -6 636 -11 q 751 8 713 -1 q 823 31 789 18 q 885 60 857 44 m 715 1064 l 744 1064 l 558 1275 l 557 1275 l 372 1064 l 401 1064 l 568 1256 l 550 1254 l 715 1064 "},"Ģ":{"ha":1021,"x_min":103,"x_max":885,"o":"m 885 60 l 885 422 l 621 422 l 621 396 l 857 396 l 857 78 q 732 31 804 47 q 597 15 660 15 q 404 51 490 15 q 257 152 318 88 q 163 301 196 217 q 131 485 131 386 q 167 668 131 582 q 267 819 203 754 q 417 922 332 885 q 601 960 503 960 q 687 951 644 960 q 769 928 729 943 q 843 892 808 913 l 857 915 q 735 967 800 949 q 600 986 671 986 q 407 947 497 986 q 249 840 317 908 q 142 680 181 771 q 103 485 103 589 q 138 292 103 382 q 238 133 172 201 q 395 27 303 65 q 600 -11 488 -11 q 674 -6 636 -11 q 751 8 713 -1 q 823 31 789 18 q 885 60 857 44 m 478 -256 q 533 -205 514 -236 q 556 -137 551 -174 q 557 -64 560 -100 l 526 -64 q 518 -169 533 -124 q 464 -243 503 -215 l 478 -256 "},"Ġ":{"ha":1021,"x_min":103,"x_max":885,"o":"m 885 60 l 885 422 l 621 422 l 621 396 l 857 396 l 857 78 q 732 31 804 47 q 597 15 660 15 q 404 51 490 15 q 257 152 318 88 q 163 301 196 217 q 131 485 131 386 q 167 668 131 582 q 267 819 203 754 q 417 922 332 885 q 601 960 503 960 q 687 951 644 960 q 769 928 729 943 q 843 892 808 913 l 857 915 q 735 967 800 949 q 600 986 671 986 q 407 947 497 986 q 249 840 317 908 q 142 680 181 771 q 103 485 103 589 q 138 292 103 382 q 238 133 172 201 q 395 27 303 65 q 600 -11 488 -11 q 674 -6 636 -11 q 751 8 713 -1 q 823 31 789 18 q 885 60 857 44 m 525 1089 q 534 1067 525 1076 q 557 1058 543 1058 q 578 1067 569 1058 q 588 1089 588 1076 q 578 1110 588 1101 q 557 1119 569 1119 q 534 1110 543 1119 q 525 1089 525 1101 "},"H":{"ha":1021,"x_min":165,"x_max":857,"o":"m 857 975 l 829 975 l 829 504 l 193 504 l 193 975 l 165 975 l 165 0 l 193 0 l 193 478 l 829 478 l 829 0 l 857 0 l 857 975 "},"Ħ":{"ha":1242,"x_min":165,"x_max":1076,"o":"m 165 708 l 165 683 l 1076 683 l 1076 708 l 165 708 m 926 975 l 899 975 l 899 504 l 263 504 l 263 975 l 235 975 l 235 0 l 263 0 l 263 478 l 899 478 l 899 0 l 926 0 l 926 975 "},"Ĥ":{"ha":1021,"x_min":165,"x_max":857,"o":"m 857 975 l 829 975 l 829 504 l 193 504 l 193 975 l 165 975 l 165 0 l 193 0 l 193 478 l 829 478 l 829 0 l 857 0 l 857 975 m 669 1064 l 699 1064 l 513 1275 l 511 1275 l 326 1064 l 356 1064 l 522 1256 l 504 1254 l 669 1064 "},"I":{"ha":358,"x_min":165,"x_max":193,"o":"m 165 975 l 165 0 l 193 0 l 193 975 l 165 975 "},"Ĳ":{"ha":788,"x_min":165,"x_max":622,"o":"m 165 975 l 165 0 l 193 0 l 193 975 l 165 975 m 622 129 l 622 975 l 596 975 l 596 133 q 528 -87 596 -7 q 358 -172 460 -167 l 358 -197 l 358 -197 q 491 -157 431 -194 q 587 -47 551 -119 q 622 129 622 25 "},"Í":{"ha":358,"x_min":165,"x_max":324,"o":"m 165 975 l 165 0 l 193 0 l 193 975 l 165 975 m 324 1214 l 293 1214 l 169 1029 l 196 1029 l 324 1214 "},"Ĭ":{"ha":358,"x_min":8,"x_max":353,"o":"m 165 975 l 165 0 l 193 0 l 193 975 l 165 975 m 182 1050 q 267 1078 229 1050 q 329 1157 306 1107 q 353 1269 353 1207 l 329 1269 q 308 1172 326 1217 q 256 1101 289 1128 q 182 1074 224 1074 q 107 1101 140 1074 q 53 1172 74 1128 q 32 1269 33 1217 l 8 1269 q 33 1157 10 1207 q 95 1078 57 1107 q 182 1050 133 1050 "},"Î":{"ha":358,"x_min":-6,"x_max":367,"o":"m 165 975 l 165 0 l 193 0 l 193 975 l 165 975 m 338 1065 l 367 1065 l 181 1276 l 179 1276 l -6 1065 l 24 1065 l 190 1257 l 172 1256 l 338 1065 "},"Ȉ":{"ha":358,"x_min":-21,"x_max":268,"o":"m 165 975 l 165 0 l 193 0 l 193 975 l 165 975 m -21 1257 l 107 1072 l 133 1072 l 10 1257 l -21 1257 m 114 1257 l 242 1072 l 268 1072 l 144 1257 l 114 1257 "},"Ï":{"ha":358,"x_min":32,"x_max":325,"o":"m 165 975 l 165 0 l 193 0 l 193 975 l 165 975 m 32 1090 l 32 1090 q 41 1069 32 1078 q 63 1060 50 1060 q 84 1069 75 1060 q 93 1090 93 1078 q 84 1112 93 1103 q 63 1121 75 1121 q 41 1112 50 1121 q 32 1090 32 1103 m 263 1090 l 263 1090 q 272 1069 263 1078 q 294 1060 281 1060 q 315 1069 306 1060 q 325 1090 325 1078 q 315 1112 325 1103 q 294 1121 306 1121 q 272 1112 281 1121 q 263 1090 263 1103 "},"İ":{"ha":358,"x_min":147,"x_max":210,"o":"m 165 975 l 165 0 l 193 0 l 193 975 l 165 975 m 147 1089 q 156 1067 147 1076 q 179 1058 165 1058 q 201 1067 192 1058 q 210 1089 210 1076 q 201 1110 210 1101 q 179 1119 192 1119 q 156 1110 165 1119 q 147 1089 147 1101 "},"Ị":{"ha":358,"x_min":147,"x_max":210,"o":"m 165 975 l 165 0 l 193 0 l 193 975 l 165 975 m 147 -108 q 156 -130 147 -121 q 179 -139 165 -139 q 201 -130 192 -139 q 210 -108 210 -121 q 201 -87 210 -96 q 179 -78 192 -78 q 156 -87 165 -78 q 147 -108 147 -96 "},"Ì":{"ha":358,"x_min":47,"x_max":201,"o":"m 165 975 l 165 0 l 193 0 l 193 975 l 165 975 m 47 1228 l 175 1043 l 201 1043 l 78 1228 l 47 1228 "},"Ỉ":{"ha":358,"x_min":108,"x_max":286,"o":"m 165 975 l 165 0 l 193 0 l 193 975 l 165 975 m 188 1029 l 201 1015 q 261 1068 236 1043 q 286 1131 286 1093 q 274 1181 286 1163 q 245 1208 263 1200 q 207 1217 228 1217 q 153 1201 176 1217 q 108 1153 129 1186 l 124 1142 q 163 1183 146 1171 q 206 1194 179 1194 q 250 1176 236 1194 q 264 1129 264 1157 q 242 1078 264 1100 q 188 1029 219 1056 "},"Ȋ":{"ha":358,"x_min":6,"x_max":350,"o":"m 165 975 l 165 0 l 193 0 l 193 975 l 165 975 m 176 1244 q 91 1215 129 1244 q 30 1137 53 1186 q 6 1024 7 1088 l 31 1024 q 51 1121 32 1076 q 102 1192 69 1165 q 176 1219 135 1219 q 251 1192 218 1219 q 305 1121 285 1165 q 328 1024 325 1076 l 350 1024 q 325 1137 349 1088 q 263 1215 301 1186 q 176 1244 225 1244 "},"Ī":{"ha":358,"x_min":19,"x_max":340,"o":"m 165 975 l 165 0 l 193 0 l 193 975 l 165 975 m 19 1076 l 19 1053 l 340 1053 l 340 1076 l 19 1076 "},"Į":{"ha":354,"x_min":35,"x_max":240,"o":"m 136 -261 q 199 -239 171 -261 q 240 -186 226 -217 l 224 -174 q 187 -218 208 -200 q 138 -236 165 -236 q 85 -214 108 -236 q 63 -153 63 -192 q 95 -74 63 -112 q 190 0 128 -35 l 185 8 l 172 17 q 76 -57 117 -12 q 35 -154 35 -101 q 65 -232 35 -203 q 136 -261 96 -261 m 165 975 l 165 0 l 193 0 l 193 975 l 165 975 "},"Ĩ":{"ha":358,"x_min":-19,"x_max":379,"o":"m 165 975 l 165 0 l 193 0 l 193 975 l 165 975 m 278 1068 q 327 1083 304 1068 q 364 1132 350 1099 q 379 1219 378 1165 l 357 1222 q 330 1118 353 1144 q 278 1092 307 1092 q 228 1109 249 1092 q 190 1149 208 1126 q 147 1193 171 1172 q 85 1214 124 1214 q 36 1198 60 1214 q -3 1149 13 1182 q -19 1061 -18 1115 l 3 1058 q 19 1138 6 1110 q 51 1178 33 1167 q 85 1189 69 1189 q 133 1171 114 1189 q 171 1132 153 1153 q 215 1088 192 1107 q 278 1068 239 1068 "},"J":{"ha":429,"x_min":0,"x_max":264,"o":"m 264 129 l 264 975 l 238 975 l 238 133 q 169 -87 238 -7 q 0 -172 101 -167 l 0 -197 l 0 -197 q 133 -157 72 -194 q 228 -47 193 -119 q 264 129 264 25 "},"Ĵ":{"ha":429,"x_min":0,"x_max":425,"o":"m 264 129 l 264 975 l 238 975 l 238 133 q 169 -87 238 -7 q 0 -172 101 -167 l 0 -197 l 0 -197 q 133 -157 72 -194 q 228 -47 193 -119 q 264 129 264 25 m 396 1065 l 425 1065 l 239 1276 l 238 1276 l 53 1065 l 82 1065 l 249 1257 l 231 1256 l 396 1065 "},"K":{"ha":890,"x_min":165,"x_max":817,"o":"m 193 507 l 193 975 l 165 975 l 165 0 l 193 0 l 192 436 l 332 569 l 781 0 l 817 0 l 353 588 l 757 975 l 721 975 l 188 464 l 192 460 l 193 507 "},"Ķ":{"ha":890,"x_min":165,"x_max":817,"o":"m 193 507 l 193 975 l 165 975 l 165 0 l 193 0 l 192 436 l 332 569 l 781 0 l 817 0 l 353 588 l 757 975 l 721 975 l 188 464 l 192 460 l 193 507 m 361 -256 q 416 -205 397 -236 q 439 -137 435 -174 q 440 -64 443 -100 l 410 -64 q 401 -169 417 -124 q 347 -243 386 -215 l 361 -256 "},"L":{"ha":821,"x_min":165,"x_max":751,"o":"m 165 975 l 165 0 l 751 0 l 751 26 l 193 26 l 193 975 l 165 975 "},"Ǉ":{"ha":1251,"x_min":165,"x_max":1085,"o":"m 165 975 l 165 0 l 751 0 l 751 26 l 193 26 l 193 975 l 165 975 m 1085 129 l 1085 975 l 1058 975 l 1058 133 q 990 -87 1058 -7 q 821 -172 922 -167 l 821 -197 l 821 -197 q 953 -157 893 -194 q 1049 -47 1014 -119 q 1085 129 1085 25 "},"Ĺ":{"ha":821,"x_min":165,"x_max":751,"o":"m 165 975 l 165 0 l 751 0 l 751 26 l 193 26 l 193 975 l 165 975 m 324 1214 l 293 1214 l 169 1029 l 196 1029 l 324 1214 "},"Ľ":{"ha":796,"x_min":165,"x_max":751,"o":"m 165 975 l 165 0 l 751 0 l 751 26 l 193 26 l 193 975 l 165 975 m 375 794 l 375 794 q 420 849 403 818 q 443 916 438 881 q 442 989 449 951 l 410 979 q 405 889 418 931 q 363 819 392 847 l 375 794 "},"Ļ":{"ha":821,"x_min":165,"x_max":751,"o":"m 165 975 l 165 0 l 751 0 l 751 26 l 193 26 l 193 975 l 165 975 m 368 -256 q 423 -205 404 -236 q 446 -137 442 -174 q 447 -64 450 -100 l 417 -64 q 408 -169 424 -124 q 354 -243 393 -215 l 368 -256 "},"Ŀ":{"ha":863,"x_min":165,"x_max":808,"o":"m 165 975 l 165 0 l 751 0 l 751 26 l 193 26 l 193 975 l 165 975 m 746 515 l 746 515 q 756 494 746 503 q 778 485 765 485 q 799 494 790 485 q 808 515 808 503 q 799 538 808 529 q 778 547 790 547 q 756 538 765 547 q 746 515 746 529 "},"ǈ":{"ha":1121,"x_min":165,"x_max":1011,"o":"m 165 975 l 165 0 l 751 0 l 751 26 l 193 26 l 193 975 l 165 975 m 910 -251 q 971 -151 949 -211 q 993 -10 993 -90 l 993 525 l 965 525 l 965 -14 q 944 -140 965 -85 q 889 -235 924 -196 l 910 -251 m 949 690 q 958 669 949 678 q 981 660 967 660 q 1002 669 993 660 q 1011 690 1011 678 q 1002 712 1011 703 q 981 721 993 721 q 958 712 967 721 q 949 690 949 703 "},"Ł":{"ha":796,"x_min":44,"x_max":751,"o":"m 486 572 l 44 411 l 46 386 l 488 547 l 486 572 m 165 975 l 165 0 l 751 0 l 751 26 l 193 26 l 193 975 l 165 975 "},"M":{"ha":1242,"x_min":165,"x_max":1078,"o":"m 165 0 l 193 0 l 193 922 l 189 913 l 619 306 l 622 306 l 1053 913 l 1050 924 l 1050 0 l 1078 0 l 1078 992 l 1076 992 l 615 336 l 628 336 l 167 992 l 165 992 l 165 0 "},"N":{"ha":1129,"x_min":165,"x_max":964,"o":"m 963 -18 l 964 -18 l 964 975 l 938 975 l 938 39 l 951 38 l 167 990 l 165 990 l 165 0 l 193 0 l 192 939 l 185 925 l 963 -18 "},"Ǌ":{"ha":1558,"x_min":165,"x_max":1393,"o":"m 963 -18 l 964 -18 l 964 975 l 938 975 l 938 39 l 951 38 l 167 990 l 165 990 l 165 0 l 193 0 l 192 939 l 185 925 l 963 -18 m 1393 129 l 1393 975 l 1367 975 l 1367 133 q 1299 -87 1367 -7 q 1129 -172 1231 -167 l 1129 -197 l 1129 -197 q 1262 -157 1201 -194 q 1358 -47 1322 -119 q 1393 129 1393 25 "},"Ń":{"ha":1129,"x_min":165,"x_max":964,"o":"m 963 -18 l 964 -18 l 964 975 l 938 975 l 938 39 l 951 38 l 167 990 l 165 990 l 165 0 l 193 0 l 192 939 l 185 925 l 963 -18 m 708 1213 l 678 1213 l 554 1028 l 581 1028 l 708 1213 "},"Ň":{"ha":1129,"x_min":165,"x_max":964,"o":"m 963 -18 l 964 -18 l 964 975 l 938 975 l 938 39 l 951 38 l 167 990 l 165 990 l 165 0 l 193 0 l 192 939 l 185 925 l 963 -18 m 406 1239 l 376 1239 l 563 1029 l 564 1029 l 749 1239 l 719 1239 l 553 1047 l 571 1049 l 406 1239 "},"Ņ":{"ha":1129,"x_min":165,"x_max":964,"o":"m 963 -18 l 964 -18 l 964 975 l 938 975 l 938 39 l 951 38 l 167 990 l 165 990 l 165 0 l 193 0 l 192 939 l 185 925 l 963 -18 m 503 -256 q 558 -205 539 -236 q 581 -137 576 -174 q 582 -64 585 -100 l 551 -64 q 543 -169 558 -124 q 489 -243 528 -215 l 503 -256 "},"Ŋ":{"ha":1126,"x_min":164,"x_max":963,"o":"m 961 -18 l 963 -15 l 963 975 l 935 975 l 936 39 l 950 36 l 165 990 l 164 990 l 164 0 l 190 0 l 190 939 l 183 925 l 961 -18 m 963 85 l 935 93 l 935 -14 q 914 -140 935 -85 q 858 -235 893 -196 l 879 -251 q 940 -150 918 -211 q 963 -10 963 -89 l 963 85 "},"Ɲ":{"ha":1128,"x_min":88,"x_max":963,"o":"m 961 -18 l 963 -15 l 963 975 l 935 975 l 936 39 l 950 38 l 165 990 l 164 990 l 164 0 l 190 0 l 190 939 l 183 925 l 961 -18 m 190 85 l 164 93 l 164 -14 q 142 -140 164 -85 q 88 -235 121 -196 l 108 -251 q 169 -150 147 -211 q 190 -10 190 -89 l 190 85 "},"ǋ":{"ha":1429,"x_min":165,"x_max":1319,"o":"m 963 -18 l 964 -18 l 964 975 l 938 975 l 938 39 l 951 38 l 167 990 l 165 990 l 165 0 l 193 0 l 192 939 l 185 925 l 963 -18 m 1218 -251 q 1279 -151 1257 -211 q 1301 -10 1301 -90 l 1301 525 l 1274 525 l 1274 -14 q 1253 -140 1274 -85 q 1197 -235 1232 -196 l 1218 -251 m 1257 690 q 1266 669 1257 678 q 1289 660 1275 660 q 1310 669 1301 660 q 1319 690 1319 678 q 1310 712 1319 703 q 1289 721 1301 721 q 1266 712 1275 721 q 1257 690 1257 703 "},"Ñ":{"ha":1129,"x_min":165,"x_max":964,"o":"m 963 -18 l 964 -18 l 964 975 l 938 975 l 938 39 l 951 38 l 167 990 l 165 990 l 165 0 l 193 0 l 192 939 l 185 925 l 963 -18 m 663 1067 q 712 1082 689 1067 q 749 1131 735 1097 q 764 1218 763 1164 l 742 1221 q 715 1117 738 1143 q 663 1090 692 1090 q 613 1108 633 1090 q 575 1147 593 1125 q 532 1192 556 1171 q 469 1213 508 1213 q 421 1197 444 1213 q 382 1147 397 1181 q 365 1060 367 1114 l 388 1057 q 404 1137 390 1108 q 436 1176 418 1165 q 469 1188 454 1188 q 518 1169 499 1188 q 556 1131 538 1151 q 600 1086 576 1106 q 663 1067 624 1067 "},"O":{"ha":1201,"x_min":103,"x_max":1100,"o":"m 103 486 q 142 287 103 378 q 249 129 181 196 q 407 26 317 63 q 600 -11 497 -11 q 793 28 703 -11 q 952 135 883 67 q 1060 293 1021 203 q 1100 486 1100 383 q 1060 680 1100 589 q 952 840 1021 771 q 793 947 883 908 q 600 986 703 986 q 407 947 497 986 q 249 840 317 908 q 142 680 181 771 q 103 486 103 589 m 131 485 q 166 665 131 579 q 265 817 201 750 q 415 922 329 883 q 600 960 500 960 q 783 922 697 960 q 933 819 868 885 q 1035 669 997 754 q 1072 486 1072 583 q 1035 302 1072 388 q 932 152 997 217 q 781 51 867 88 q 596 15 694 15 q 415 51 500 15 q 267 152 331 88 q 167 302 203 217 q 131 485 131 388 "},"Ó":{"ha":1201,"x_min":103,"x_max":1100,"o":"m 103 486 q 142 287 103 378 q 249 129 181 196 q 407 26 317 63 q 600 -11 497 -11 q 793 28 703 -11 q 952 135 883 67 q 1060 293 1021 203 q 1100 486 1100 383 q 1060 680 1100 589 q 952 840 1021 771 q 793 947 883 908 q 600 986 703 986 q 407 947 497 986 q 249 840 317 908 q 142 680 181 771 q 103 486 103 589 m 131 485 q 166 665 131 579 q 265 817 201 750 q 415 922 329 883 q 600 960 500 960 q 783 922 697 960 q 933 819 868 885 q 1035 669 997 754 q 1072 486 1072 583 q 1035 302 1072 388 q 932 152 997 217 q 781 51 867 88 q 596 15 694 15 q 415 51 500 15 q 267 152 331 88 q 167 302 203 217 q 131 485 131 388 m 746 1213 l 715 1213 l 592 1028 l 618 1028 l 746 1213 "},"Ŏ":{"ha":1201,"x_min":103,"x_max":1100,"o":"m 103 486 q 142 287 103 378 q 249 129 181 196 q 407 26 317 63 q 600 -11 497 -11 q 793 28 703 -11 q 952 135 883 67 q 1060 293 1021 203 q 1100 486 1100 383 q 1060 680 1100 589 q 952 840 1021 771 q 793 947 883 908 q 600 986 703 986 q 407 947 497 986 q 249 840 317 908 q 142 680 181 771 q 103 486 103 589 m 131 485 q 166 665 131 579 q 265 817 201 750 q 415 922 329 883 q 600 960 500 960 q 783 922 697 960 q 933 819 868 885 q 1035 669 997 754 q 1072 486 1072 583 q 1035 302 1072 388 q 932 152 997 217 q 781 51 867 88 q 596 15 694 15 q 415 51 500 15 q 267 152 331 88 q 167 302 203 217 q 131 485 131 388 m 604 1049 q 690 1077 651 1049 q 751 1156 728 1106 q 775 1268 775 1206 l 751 1268 q 730 1171 749 1215 q 678 1099 711 1126 q 604 1072 646 1072 q 529 1099 563 1072 q 476 1171 496 1126 q 454 1268 456 1215 l 431 1268 q 456 1156 432 1206 q 517 1077 479 1106 q 604 1049 556 1049 "},"Ô":{"ha":1201,"x_min":103,"x_max":1100,"o":"m 103 486 q 142 287 103 378 q 249 129 181 196 q 407 26 317 63 q 600 -11 497 -11 q 793 28 703 -11 q 952 135 883 67 q 1060 293 1021 203 q 1100 486 1100 383 q 1060 680 1100 589 q 952 840 1021 771 q 793 947 883 908 q 600 986 703 986 q 407 947 497 986 q 249 840 317 908 q 142 680 181 771 q 103 486 103 589 m 131 485 q 166 665 131 579 q 265 817 201 750 q 415 922 329 883 q 600 960 500 960 q 783 922 697 960 q 933 819 868 885 q 1035 669 997 754 q 1072 486 1072 583 q 1035 302 1072 388 q 932 152 997 217 q 781 51 867 88 q 596 15 694 15 q 415 51 500 15 q 267 152 331 88 q 167 302 203 217 q 131 485 131 388 m 760 1065 l 789 1065 l 603 1276 l 601 1276 l 417 1065 l 446 1065 l 613 1257 l 594 1256 l 760 1065 "},"Ố":{"ha":1201,"x_min":103,"x_max":1100,"o":"m 103 486 q 142 287 103 378 q 249 129 181 196 q 407 26 317 63 q 600 -11 497 -11 q 793 28 703 -11 q 952 135 883 67 q 1060 293 1021 203 q 1100 486 1100 383 q 1060 680 1100 589 q 952 840 1021 771 q 793 947 883 908 q 600 986 703 986 q 407 947 497 986 q 249 840 317 908 q 142 680 181 771 q 103 486 103 589 m 131 485 q 166 665 131 579 q 265 817 201 750 q 415 922 329 883 q 600 960 500 960 q 783 922 697 960 q 933 819 868 885 q 1035 669 997 754 q 1072 486 1072 583 q 1035 302 1072 388 q 932 152 997 217 q 781 51 867 88 q 596 15 694 15 q 415 51 500 15 q 267 152 331 88 q 167 302 203 217 q 131 485 131 388 m 754 1097 l 783 1097 l 597 1308 l 596 1308 l 411 1097 l 440 1097 l 607 1289 l 589 1288 l 754 1097 m 890 1400 l 860 1400 l 736 1215 l 763 1215 l 890 1400 "},"Ộ":{"ha":1201,"x_min":103,"x_max":1100,"o":"m 103 486 q 142 287 103 378 q 249 129 181 196 q 407 26 317 63 q 600 -11 497 -11 q 793 28 703 -11 q 952 135 883 67 q 1060 293 1021 203 q 1100 486 1100 383 q 1060 680 1100 589 q 952 840 1021 771 q 793 947 883 908 q 600 986 703 986 q 407 947 497 986 q 249 840 317 908 q 142 680 181 771 q 103 486 103 589 m 131 485 q 166 665 131 579 q 265 817 201 750 q 415 922 329 883 q 600 960 500 960 q 783 922 697 960 q 933 819 868 885 q 1035 669 997 754 q 1072 486 1072 583 q 1035 302 1072 388 q 932 152 997 217 q 781 51 867 88 q 596 15 694 15 q 415 51 500 15 q 267 152 331 88 q 167 302 203 217 q 131 485 131 388 m 569 -108 q 578 -130 569 -121 q 601 -139 588 -139 q 623 -130 614 -139 q 632 -108 632 -121 q 623 -87 632 -96 q 601 -78 614 -78 q 578 -87 588 -78 q 569 -108 569 -96 m 760 1065 l 789 1065 l 603 1276 l 601 1276 l 417 1065 l 446 1065 l 613 1257 l 594 1256 l 760 1065 "},"Ồ":{"ha":1201,"x_min":103,"x_max":1100,"o":"m 103 486 q 142 287 103 378 q 249 129 181 196 q 407 26 317 63 q 600 -11 497 -11 q 793 28 703 -11 q 952 135 883 67 q 1060 293 1021 203 q 1100 486 1100 383 q 1060 680 1100 589 q 952 840 1021 771 q 793 947 883 908 q 600 986 703 986 q 407 947 497 986 q 249 840 317 908 q 142 680 181 771 q 103 486 103 589 m 131 485 q 166 665 131 579 q 265 817 201 750 q 415 922 329 883 q 600 960 500 960 q 783 922 697 960 q 933 819 868 885 q 1035 669 997 754 q 1072 486 1072 583 q 1035 302 1072 388 q 932 152 997 217 q 781 51 867 88 q 596 15 694 15 q 415 51 500 15 q 267 152 331 88 q 167 302 203 217 q 131 485 131 388 m 747 1088 l 776 1088 l 590 1299 l 589 1299 l 404 1088 l 433 1088 l 600 1279 l 582 1278 l 747 1088 m 286 1413 l 414 1228 l 440 1228 l 317 1413 l 286 1413 "},"Ổ":{"ha":1201,"x_min":103,"x_max":1100,"o":"m 103 486 q 142 287 103 378 q 249 129 181 196 q 407 26 317 63 q 600 -11 497 -11 q 793 28 703 -11 q 952 135 883 67 q 1060 293 1021 203 q 1100 486 1100 383 q 1060 680 1100 589 q 952 840 1021 771 q 793 947 883 908 q 600 986 703 986 q 407 947 497 986 q 249 840 317 908 q 142 680 181 771 q 103 486 103 589 m 131 485 q 166 665 131 579 q 265 817 201 750 q 415 922 329 883 q 600 960 500 960 q 783 922 697 960 q 933 819 868 885 q 1035 669 997 754 q 1072 486 1072 583 q 1035 302 1072 388 q 932 152 997 217 q 781 51 867 88 q 596 15 694 15 q 415 51 500 15 q 267 152 331 88 q 167 302 203 217 q 131 485 131 388 m 749 1099 l 778 1099 l 592 1310 l 590 1310 l 406 1099 l 435 1099 l 601 1290 l 583 1289 l 749 1099 m 740 1222 l 754 1208 q 814 1261 789 1236 q 839 1324 839 1286 q 827 1374 839 1356 q 798 1401 815 1393 q 760 1410 781 1410 q 706 1394 729 1410 q 661 1346 682 1379 l 676 1335 q 715 1376 699 1364 q 758 1388 732 1388 q 803 1369 789 1388 q 817 1322 817 1350 q 794 1271 817 1293 q 740 1222 772 1249 "},"Ỗ":{"ha":1201,"x_min":103,"x_max":1100,"o":"m 103 486 q 142 287 103 378 q 249 129 181 196 q 407 26 317 63 q 600 -11 497 -11 q 793 28 703 -11 q 952 135 883 67 q 1060 293 1021 203 q 1100 486 1100 383 q 1060 680 1100 589 q 952 840 1021 771 q 793 947 883 908 q 600 986 703 986 q 407 947 497 986 q 249 840 317 908 q 142 680 181 771 q 103 486 103 589 m 131 485 q 166 665 131 579 q 265 817 201 750 q 415 922 329 883 q 600 960 500 960 q 783 922 697 960 q 933 819 868 885 q 1035 669 997 754 q 1072 486 1072 583 q 1035 302 1072 388 q 932 152 997 217 q 781 51 867 88 q 596 15 694 15 q 415 51 500 15 q 267 152 331 88 q 167 302 203 217 q 131 485 131 388 m 756 1072 l 785 1072 l 599 1283 l 597 1283 l 413 1072 l 442 1072 l 608 1264 l 590 1263 l 756 1072 m 694 1308 q 744 1324 722 1308 q 781 1373 767 1339 q 796 1461 794 1407 l 774 1463 q 747 1359 769 1385 q 696 1333 724 1333 q 646 1350 667 1333 q 607 1389 625 1367 q 564 1433 588 1413 q 501 1454 540 1454 q 453 1438 476 1454 q 415 1389 431 1422 q 397 1301 399 1356 l 419 1299 q 436 1379 422 1351 q 468 1418 450 1407 q 503 1429 486 1429 q 550 1411 531 1429 q 589 1372 569 1393 q 633 1328 608 1349 q 694 1308 657 1308 "},"Ȍ":{"ha":1201,"x_min":103,"x_max":1100,"o":"m 103 486 q 142 287 103 378 q 249 129 181 196 q 407 26 317 63 q 600 -11 497 -11 q 793 28 703 -11 q 952 135 883 67 q 1060 293 1021 203 q 1100 486 1100 383 q 1060 680 1100 589 q 952 840 1021 771 q 793 947 883 908 q 600 986 703 986 q 407 947 497 986 q 249 840 317 908 q 142 680 181 771 q 103 486 103 589 m 131 485 q 166 665 131 579 q 265 817 201 750 q 415 922 329 883 q 600 960 500 960 q 783 922 697 960 q 933 819 868 885 q 1035 669 997 754 q 1072 486 1072 583 q 1035 302 1072 388 q 932 152 997 217 q 781 51 867 88 q 596 15 694 15 q 415 51 500 15 q 267 152 331 88 q 167 302 203 217 q 131 485 131 388 m 401 1256 l 529 1071 l 556 1071 l 432 1256 l 401 1256 m 536 1256 l 664 1071 l 690 1071 l 567 1256 l 536 1256 "},"Ö":{"ha":1201,"x_min":103,"x_max":1100,"o":"m 103 486 q 142 287 103 378 q 249 129 181 196 q 407 26 317 63 q 600 -11 497 -11 q 793 28 703 -11 q 952 135 883 67 q 1060 293 1021 203 q 1100 486 1100 383 q 1060 680 1100 589 q 952 840 1021 771 q 793 947 883 908 q 600 986 703 986 q 407 947 497 986 q 249 840 317 908 q 142 680 181 771 q 103 486 103 589 m 131 485 q 166 665 131 579 q 265 817 201 750 q 415 922 329 883 q 600 960 500 960 q 783 922 697 960 q 933 819 868 885 q 1035 669 997 754 q 1072 486 1072 583 q 1035 302 1072 388 q 932 152 997 217 q 781 51 867 88 q 596 15 694 15 q 415 51 500 15 q 267 152 331 88 q 167 302 203 217 q 131 485 131 388 m 454 1090 l 454 1090 q 463 1069 454 1078 q 485 1060 472 1060 q 506 1069 497 1060 q 515 1090 515 1078 q 506 1112 515 1103 q 485 1121 497 1121 q 463 1112 472 1121 q 454 1090 454 1103 m 685 1090 l 685 1090 q 694 1069 685 1078 q 717 1060 703 1060 q 738 1069 728 1060 q 747 1090 747 1078 q 738 1112 747 1103 q 717 1121 728 1121 q 694 1112 703 1121 q 685 1090 685 1103 "},"Ȫ":{"ha":1201,"x_min":103,"x_max":1100,"o":"m 103 486 q 142 287 103 378 q 249 129 181 196 q 407 26 317 63 q 600 -11 497 -11 q 793 28 703 -11 q 952 135 883 67 q 1060 293 1021 203 q 1100 486 1100 383 q 1060 680 1100 589 q 952 840 1021 771 q 793 947 883 908 q 600 986 703 986 q 407 947 497 986 q 249 840 317 908 q 142 680 181 771 q 103 486 103 589 m 131 485 q 166 665 131 579 q 265 817 201 750 q 415 922 329 883 q 600 960 500 960 q 783 922 697 960 q 933 819 868 885 q 1035 669 997 754 q 1072 486 1072 583 q 1035 302 1072 388 q 932 152 997 217 q 781 51 867 88 q 596 15 694 15 q 415 51 500 15 q 267 152 331 88 q 167 302 203 217 q 131 485 131 388 m 454 1090 l 454 1090 q 463 1069 454 1078 q 485 1060 472 1060 q 506 1069 497 1060 q 515 1090 515 1078 q 506 1112 515 1103 q 485 1121 497 1121 q 463 1112 472 1121 q 454 1090 454 1103 m 685 1090 l 685 1090 q 694 1069 685 1078 q 717 1060 703 1060 q 738 1069 728 1060 q 747 1090 747 1078 q 738 1112 747 1103 q 717 1121 728 1121 q 694 1112 703 1121 q 685 1090 685 1103 m 440 1221 l 440 1197 l 761 1197 l 761 1221 l 440 1221 "},"Ȱ":{"ha":1201,"x_min":103,"x_max":1100,"o":"m 103 486 q 142 287 103 378 q 249 129 181 196 q 407 26 317 63 q 600 -11 497 -11 q 793 28 703 -11 q 952 135 883 67 q 1060 293 1021 203 q 1100 486 1100 383 q 1060 680 1100 589 q 952 840 1021 771 q 793 947 883 908 q 600 986 703 986 q 407 947 497 986 q 249 840 317 908 q 142 680 181 771 q 103 486 103 589 m 131 485 q 166 665 131 579 q 265 817 201 750 q 415 922 329 883 q 600 960 500 960 q 783 922 697 960 q 933 819 868 885 q 1035 669 997 754 q 1072 486 1072 583 q 1035 302 1072 388 q 932 152 997 217 q 781 51 867 88 q 596 15 694 15 q 415 51 500 15 q 267 152 331 88 q 167 302 203 217 q 131 485 131 388 m 569 1089 q 578 1067 569 1076 q 601 1058 588 1058 q 623 1067 614 1058 q 632 1089 632 1076 q 623 1110 632 1101 q 601 1119 614 1119 q 578 1110 588 1119 q 569 1089 569 1101 m 440 1219 l 440 1196 l 761 1196 l 761 1219 l 440 1219 "},"Ọ":{"ha":1201,"x_min":103,"x_max":1100,"o":"m 103 486 q 142 287 103 378 q 249 129 181 196 q 407 26 317 63 q 600 -11 497 -11 q 793 28 703 -11 q 952 135 883 67 q 1060 293 1021 203 q 1100 486 1100 383 q 1060 680 1100 589 q 952 840 1021 771 q 793 947 883 908 q 600 986 703 986 q 407 947 497 986 q 249 840 317 908 q 142 680 181 771 q 103 486 103 589 m 131 485 q 166 665 131 579 q 265 817 201 750 q 415 922 329 883 q 600 960 500 960 q 783 922 697 960 q 933 819 868 885 q 1035 669 997 754 q 1072 486 1072 583 q 1035 302 1072 388 q 932 152 997 217 q 781 51 867 88 q 596 15 694 15 q 415 51 500 15 q 267 152 331 88 q 167 302 203 217 q 131 485 131 388 m 569 -108 q 578 -130 569 -121 q 601 -139 588 -139 q 623 -130 614 -139 q 632 -108 632 -121 q 623 -87 632 -96 q 601 -78 614 -78 q 578 -87 588 -78 q 569 -108 569 -96 "},"Ò":{"ha":1201,"x_min":103,"x_max":1100,"o":"m 103 486 q 142 287 103 378 q 249 129 181 196 q 407 26 317 63 q 600 -11 497 -11 q 793 28 703 -11 q 952 135 883 67 q 1060 293 1021 203 q 1100 486 1100 383 q 1060 680 1100 589 q 952 840 1021 771 q 793 947 883 908 q 600 986 703 986 q 407 947 497 986 q 249 840 317 908 q 142 680 181 771 q 103 486 103 589 m 131 485 q 166 665 131 579 q 265 817 201 750 q 415 922 329 883 q 600 960 500 960 q 783 922 697 960 q 933 819 868 885 q 1035 669 997 754 q 1072 486 1072 583 q 1035 302 1072 388 q 932 152 997 217 q 781 51 867 88 q 596 15 694 15 q 415 51 500 15 q 267 152 331 88 q 167 302 203 217 q 131 485 131 388 m 469 1226 l 597 1042 l 624 1042 l 500 1226 l 469 1226 "},"Ỏ":{"ha":1201,"x_min":103,"x_max":1100,"o":"m 103 486 q 142 287 103 378 q 249 129 181 196 q 407 26 317 63 q 600 -11 497 -11 q 793 28 703 -11 q 952 135 883 67 q 1060 293 1021 203 q 1100 486 1100 383 q 1060 680 1100 589 q 952 840 1021 771 q 793 947 883 908 q 600 986 703 986 q 407 947 497 986 q 249 840 317 908 q 142 680 181 771 q 103 486 103 589 m 131 485 q 166 665 131 579 q 265 817 201 750 q 415 922 329 883 q 600 960 500 960 q 783 922 697 960 q 933 819 868 885 q 1035 669 997 754 q 1072 486 1072 583 q 1035 302 1072 388 q 932 152 997 217 q 781 51 867 88 q 596 15 694 15 q 415 51 500 15 q 267 152 331 88 q 167 302 203 217 q 131 485 131 388 m 610 1028 l 624 1014 q 683 1067 658 1042 q 708 1129 708 1092 q 697 1180 708 1161 q 667 1207 685 1199 q 629 1215 650 1215 q 575 1200 599 1215 q 531 1151 551 1185 l 546 1140 q 585 1181 568 1169 q 628 1193 601 1193 q 672 1174 658 1193 q 686 1128 686 1156 q 664 1076 686 1099 q 610 1028 642 1054 "},"Ơ":{"ha":1201,"x_min":103,"x_max":1100,"o":"m 103 486 q 142 287 103 378 q 249 129 181 196 q 407 26 317 63 q 600 -11 497 -11 q 793 28 703 -11 q 952 135 883 67 q 1060 293 1021 203 q 1100 486 1100 383 q 1060 680 1100 589 q 952 840 1021 771 q 793 947 883 908 q 600 986 703 986 q 407 947 497 986 q 249 840 317 908 q 142 680 181 771 q 103 486 103 589 m 131 485 q 166 665 131 579 q 265 817 201 750 q 415 922 329 883 q 600 960 500 960 q 783 922 697 960 q 933 819 868 885 q 1035 669 997 754 q 1072 486 1072 583 q 1035 302 1072 388 q 932 152 997 217 q 781 51 867 88 q 596 15 694 15 q 415 51 500 15 q 267 152 331 88 q 167 302 203 217 q 131 485 131 388 m 701 975 l 701 953 q 788 965 751 953 q 847 1017 825 978 q 868 1139 868 1057 l 844 1139 q 808 1011 843 1047 q 701 975 774 975 "},"Ớ":{"ha":1201,"x_min":103,"x_max":1100,"o":"m 103 486 q 142 287 103 378 q 249 129 181 196 q 407 26 317 63 q 600 -11 497 -11 q 793 28 703 -11 q 952 135 883 67 q 1060 293 1021 203 q 1100 486 1100 383 q 1060 680 1100 589 q 952 840 1021 771 q 793 947 883 908 q 600 986 703 986 q 407 947 497 986 q 249 840 317 908 q 142 680 181 771 q 103 486 103 589 m 131 485 q 166 665 131 579 q 265 817 201 750 q 415 922 329 883 q 600 960 500 960 q 783 922 697 960 q 933 819 868 885 q 1035 669 997 754 q 1072 486 1072 583 q 1035 302 1072 388 q 932 152 997 217 q 781 51 867 88 q 596 15 694 15 q 415 51 500 15 q 267 152 331 88 q 167 302 203 217 q 131 485 131 388 m 701 975 l 701 953 q 788 965 751 953 q 847 1017 825 978 q 868 1139 868 1057 l 844 1139 q 808 1011 843 1047 q 701 975 774 975 m 746 1213 l 715 1213 l 592 1028 l 618 1028 l 746 1213 "},"Ợ":{"ha":1201,"x_min":103,"x_max":1100,"o":"m 103 486 q 142 287 103 378 q 249 129 181 196 q 407 26 317 63 q 600 -11 497 -11 q 793 28 703 -11 q 952 135 883 67 q 1060 293 1021 203 q 1100 486 1100 383 q 1060 680 1100 589 q 952 840 1021 771 q 793 947 883 908 q 600 986 703 986 q 407 947 497 986 q 249 840 317 908 q 142 680 181 771 q 103 486 103 589 m 131 485 q 166 665 131 579 q 265 817 201 750 q 415 922 329 883 q 600 960 500 960 q 783 922 697 960 q 933 819 868 885 q 1035 669 997 754 q 1072 486 1072 583 q 1035 302 1072 388 q 932 152 997 217 q 781 51 867 88 q 596 15 694 15 q 415 51 500 15 q 267 152 331 88 q 167 302 203 217 q 131 485 131 388 m 701 975 l 701 953 q 788 965 751 953 q 847 1017 825 978 q 868 1139 868 1057 l 844 1139 q 808 1011 843 1047 q 701 975 774 975 m 569 -108 q 578 -130 569 -121 q 601 -139 588 -139 q 623 -130 614 -139 q 632 -108 632 -121 q 623 -87 632 -96 q 601 -78 614 -78 q 578 -87 588 -78 q 569 -108 569 -96 "},"Ờ":{"ha":1201,"x_min":103,"x_max":1100,"o":"m 103 486 q 142 287 103 378 q 249 129 181 196 q 407 26 317 63 q 600 -11 497 -11 q 793 28 703 -11 q 952 135 883 67 q 1060 293 1021 203 q 1100 486 1100 383 q 1060 680 1100 589 q 952 840 1021 771 q 793 947 883 908 q 600 986 703 986 q 407 947 497 986 q 249 840 317 908 q 142 680 181 771 q 103 486 103 589 m 131 485 q 166 665 131 579 q 265 817 201 750 q 415 922 329 883 q 600 960 500 960 q 783 922 697 960 q 933 819 868 885 q 1035 669 997 754 q 1072 486 1072 583 q 1035 302 1072 388 q 932 152 997 217 q 781 51 867 88 q 596 15 694 15 q 415 51 500 15 q 267 152 331 88 q 167 302 203 217 q 131 485 131 388 m 701 975 l 701 953 q 788 965 751 953 q 847 1017 825 978 q 868 1139 868 1057 l 844 1139 q 808 1011 843 1047 q 701 975 774 975 m 469 1226 l 597 1042 l 624 1042 l 500 1226 l 469 1226 "},"Ở":{"ha":1201,"x_min":103,"x_max":1100,"o":"m 103 486 q 142 287 103 378 q 249 129 181 196 q 407 26 317 63 q 600 -11 497 -11 q 793 28 703 -11 q 952 135 883 67 q 1060 293 1021 203 q 1100 486 1100 383 q 1060 680 1100 589 q 952 840 1021 771 q 793 947 883 908 q 600 986 703 986 q 407 947 497 986 q 249 840 317 908 q 142 680 181 771 q 103 486 103 589 m 131 485 q 166 665 131 579 q 265 817 201 750 q 415 922 329 883 q 600 960 500 960 q 783 922 697 960 q 933 819 868 885 q 1035 669 997 754 q 1072 486 1072 583 q 1035 302 1072 388 q 932 152 997 217 q 781 51 867 88 q 596 15 694 15 q 415 51 500 15 q 267 152 331 88 q 167 302 203 217 q 131 485 131 388 m 701 975 l 701 953 q 788 965 751 953 q 847 1017 825 978 q 868 1139 868 1057 l 844 1139 q 808 1011 843 1047 q 701 975 774 975 m 610 1028 l 624 1014 q 683 1067 658 1042 q 708 1129 708 1092 q 697 1180 708 1161 q 667 1207 685 1199 q 629 1215 650 1215 q 575 1200 599 1215 q 531 1151 551 1185 l 546 1140 q 585 1181 568 1169 q 628 1193 601 1193 q 672 1174 658 1193 q 686 1128 686 1156 q 664 1076 686 1099 q 610 1028 642 1054 "},"Ỡ":{"ha":1201,"x_min":103,"x_max":1100,"o":"m 103 486 q 142 287 103 378 q 249 129 181 196 q 407 26 317 63 q 600 -11 497 -11 q 793 28 703 -11 q 952 135 883 67 q 1060 293 1021 203 q 1100 486 1100 383 q 1060 680 1100 589 q 952 840 1021 771 q 793 947 883 908 q 600 986 703 986 q 407 947 497 986 q 249 840 317 908 q 142 680 181 771 q 103 486 103 589 m 131 485 q 166 665 131 579 q 265 817 201 750 q 415 922 329 883 q 600 960 500 960 q 783 922 697 960 q 933 819 868 885 q 1035 669 997 754 q 1072 486 1072 583 q 1035 302 1072 388 q 932 152 997 217 q 781 51 867 88 q 596 15 694 15 q 415 51 500 15 q 267 152 331 88 q 167 302 203 217 q 131 485 131 388 m 701 975 l 701 953 q 788 965 751 953 q 847 1017 825 978 q 868 1139 868 1057 l 844 1139 q 808 1011 843 1047 q 701 975 774 975 m 700 1068 q 749 1083 726 1068 q 786 1132 772 1099 q 801 1219 800 1165 l 779 1222 q 752 1118 775 1144 q 700 1092 729 1092 q 651 1109 671 1092 q 613 1149 631 1126 q 569 1193 593 1172 q 507 1214 546 1214 q 458 1198 482 1214 q 419 1149 435 1182 q 403 1061 404 1115 l 425 1058 q 442 1138 428 1110 q 474 1178 456 1167 q 507 1189 492 1189 q 556 1171 536 1189 q 593 1132 575 1153 q 638 1088 614 1107 q 700 1068 661 1068 "},"Ő":{"ha":1201,"x_min":103,"x_max":1100,"o":"m 103 486 q 142 287 103 378 q 249 129 181 196 q 407 26 317 63 q 600 -11 497 -11 q 793 28 703 -11 q 952 135 883 67 q 1060 293 1021 203 q 1100 486 1100 383 q 1060 680 1100 589 q 952 840 1021 771 q 793 947 883 908 q 600 986 703 986 q 407 947 497 986 q 249 840 317 908 q 142 680 181 771 q 103 486 103 589 m 131 485 q 166 665 131 579 q 265 817 201 750 q 415 922 329 883 q 600 960 500 960 q 783 922 697 960 q 933 819 868 885 q 1035 669 997 754 q 1072 486 1072 583 q 1035 302 1072 388 q 932 152 997 217 q 781 51 867 88 q 596 15 694 15 q 415 51 500 15 q 267 152 331 88 q 167 302 203 217 q 131 485 131 388 m 693 1244 l 663 1244 l 539 1060 l 565 1060 l 693 1244 m 826 1244 l 796 1244 l 672 1060 l 699 1060 l 826 1244 "},"Ȏ":{"ha":1201,"x_min":103,"x_max":1100,"o":"m 103 486 q 142 287 103 378 q 249 129 181 196 q 407 26 317 63 q 600 -11 497 -11 q 793 28 703 -11 q 952 135 883 67 q 1060 293 1021 203 q 1100 486 1100 383 q 1060 680 1100 589 q 952 840 1021 771 q 793 947 883 908 q 600 986 703 986 q 407 947 497 986 q 249 840 317 908 q 142 680 181 771 q 103 486 103 589 m 131 485 q 166 665 131 579 q 265 817 201 750 q 415 922 329 883 q 600 960 500 960 q 783 922 697 960 q 933 819 868 885 q 1035 669 997 754 q 1072 486 1072 583 q 1035 302 1072 388 q 932 152 997 217 q 781 51 867 88 q 596 15 694 15 q 415 51 500 15 q 267 152 331 88 q 167 302 203 217 q 131 485 131 388 m 599 1243 q 513 1214 551 1243 q 452 1135 475 1185 q 428 1022 429 1086 l 453 1022 q 473 1119 454 1075 q 524 1191 492 1164 q 599 1218 557 1218 q 674 1191 640 1218 q 727 1119 707 1164 q 750 1022 747 1075 l 772 1022 q 747 1135 771 1086 q 685 1214 724 1185 q 599 1243 647 1243 "},"Ō":{"ha":1201,"x_min":103,"x_max":1100,"o":"m 103 486 q 142 287 103 378 q 249 129 181 196 q 407 26 317 63 q 600 -11 497 -11 q 793 28 703 -11 q 952 135 883 67 q 1060 293 1021 203 q 1100 486 1100 383 q 1060 680 1100 589 q 952 840 1021 771 q 793 947 883 908 q 600 986 703 986 q 407 947 497 986 q 249 840 317 908 q 142 680 181 771 q 103 486 103 589 m 131 485 q 166 665 131 579 q 265 817 201 750 q 415 922 329 883 q 600 960 500 960 q 783 922 697 960 q 933 819 868 885 q 1035 669 997 754 q 1072 486 1072 583 q 1035 302 1072 388 q 932 152 997 217 q 781 51 867 88 q 596 15 694 15 q 415 51 500 15 q 267 152 331 88 q 167 302 203 217 q 131 485 131 388 m 440 1075 l 440 1051 l 761 1051 l 761 1075 l 440 1075 "},"Ǫ":{"ha":1201,"x_min":103,"x_max":1100,"o":"m 600 -11 q 688 -2 638 -11 q 767 19 738 7 l 764 28 q 689 -12 726 11 q 626 -71 651 -36 q 601 -154 601 -106 q 632 -232 601 -203 q 703 -261 663 -261 q 765 -239 738 -261 q 807 -186 793 -217 l 790 -174 q 753 -218 775 -200 q 704 -236 732 -236 q 652 -214 675 -236 q 629 -153 629 -192 q 653 -76 629 -107 q 716 -21 676 -44 q 803 28 756 3 q 900 90 851 54 q 997 183 951 128 q 1071 314 1042 239 q 1100 486 1100 389 q 1060 680 1100 589 q 952 840 1021 771 q 793 947 883 908 q 600 986 703 986 q 407 947 497 986 q 249 840 317 908 q 142 680 181 771 q 103 486 103 589 q 142 287 103 378 q 249 129 181 196 q 407 26 317 63 q 600 -11 497 -11 m 600 15 q 417 51 503 15 q 267 152 332 88 q 167 302 203 217 q 131 485 131 388 q 166 665 131 579 q 265 817 201 750 q 415 922 329 883 q 600 960 500 960 q 783 922 697 960 q 933 819 868 885 q 1035 669 997 754 q 1072 486 1072 583 q 1035 302 1072 388 q 933 152 997 217 q 783 51 868 88 q 600 15 697 15 "},"Ø":{"ha":1189,"x_min":103,"x_max":1100,"o":"m 1006 982 l 990 997 l 167 14 l 183 -1 l 1006 982 m 103 486 q 142 287 103 378 q 249 129 181 196 q 407 26 317 63 q 600 -11 497 -11 q 793 28 703 -11 q 952 135 883 67 q 1060 293 1021 203 q 1100 486 1100 383 q 1060 680 1100 589 q 952 840 1021 771 q 793 947 883 908 q 600 986 703 986 q 407 947 497 986 q 249 840 317 908 q 142 680 181 771 q 103 486 103 589 m 131 485 q 166 665 131 579 q 265 817 201 750 q 415 922 329 883 q 600 960 500 960 q 783 922 697 960 q 933 819 868 885 q 1035 669 997 754 q 1072 486 1072 583 q 1035 302 1072 388 q 932 152 997 217 q 781 51 867 88 q 596 15 694 15 q 415 51 500 15 q 267 152 331 88 q 167 302 203 217 q 131 485 131 388 "},"Ǿ":{"ha":1189,"x_min":103,"x_max":1100,"o":"m 1006 982 l 990 997 l 167 14 l 183 -1 l 1006 982 m 103 486 q 142 287 103 378 q 249 129 181 196 q 407 26 317 63 q 600 -11 497 -11 q 793 28 703 -11 q 952 135 883 67 q 1060 293 1021 203 q 1100 486 1100 383 q 1060 680 1100 589 q 952 840 1021 771 q 793 947 883 908 q 600 986 703 986 q 407 947 497 986 q 249 840 317 908 q 142 680 181 771 q 103 486 103 589 m 131 485 q 166 665 131 579 q 265 817 201 750 q 415 922 329 883 q 600 960 500 960 q 783 922 697 960 q 933 819 868 885 q 1035 669 997 754 q 1072 486 1072 583 q 1035 302 1072 388 q 932 152 997 217 q 781 51 867 88 q 596 15 694 15 q 415 51 500 15 q 267 152 331 88 q 167 302 203 217 q 131 485 131 388 m 739 1213 l 708 1213 l 585 1028 l 611 1028 l 739 1213 "},"Õ":{"ha":1201,"x_min":103,"x_max":1100,"o":"m 103 486 q 142 287 103 378 q 249 129 181 196 q 407 26 317 63 q 600 -11 497 -11 q 793 28 703 -11 q 952 135 883 67 q 1060 293 1021 203 q 1100 486 1100 383 q 1060 680 1100 589 q 952 840 1021 771 q 793 947 883 908 q 600 986 703 986 q 407 947 497 986 q 249 840 317 908 q 142 680 181 771 q 103 486 103 589 m 131 485 q 166 665 131 579 q 265 817 201 750 q 415 922 329 883 q 600 960 500 960 q 783 922 697 960 q 933 819 868 885 q 1035 669 997 754 q 1072 486 1072 583 q 1035 302 1072 388 q 932 152 997 217 q 781 51 867 88 q 596 15 694 15 q 415 51 500 15 q 267 152 331 88 q 167 302 203 217 q 131 485 131 388 m 700 1068 q 749 1083 726 1068 q 786 1132 772 1099 q 801 1219 800 1165 l 779 1222 q 752 1118 775 1144 q 700 1092 729 1092 q 651 1109 671 1092 q 613 1149 631 1126 q 569 1193 593 1172 q 507 1214 546 1214 q 458 1198 482 1214 q 419 1149 435 1182 q 403 1061 404 1115 l 425 1058 q 442 1138 428 1110 q 474 1178 456 1167 q 507 1189 492 1189 q 556 1171 536 1189 q 593 1132 575 1153 q 638 1088 614 1107 q 700 1068 661 1068 "},"Ȭ":{"ha":1201,"x_min":103,"x_max":1100,"o":"m 103 486 q 142 287 103 378 q 249 129 181 196 q 407 26 317 63 q 600 -11 497 -11 q 793 28 703 -11 q 952 135 883 67 q 1060 293 1021 203 q 1100 486 1100 383 q 1060 680 1100 589 q 952 840 1021 771 q 793 947 883 908 q 600 986 703 986 q 407 947 497 986 q 249 840 317 908 q 142 680 181 771 q 103 486 103 589 m 131 485 q 166 665 131 579 q 265 817 201 750 q 415 922 329 883 q 600 960 500 960 q 783 922 697 960 q 933 819 868 885 q 1035 669 997 754 q 1072 486 1072 583 q 1035 302 1072 388 q 932 152 997 217 q 781 51 867 88 q 596 15 694 15 q 415 51 500 15 q 267 152 331 88 q 167 302 203 217 q 131 485 131 388 m 700 1068 q 749 1083 726 1068 q 786 1132 772 1099 q 801 1219 800 1165 l 779 1222 q 752 1118 775 1144 q 700 1092 729 1092 q 651 1109 671 1092 q 613 1149 631 1126 q 569 1193 593 1172 q 507 1214 546 1214 q 458 1198 482 1214 q 419 1149 435 1182 q 403 1061 404 1115 l 425 1058 q 442 1138 428 1110 q 474 1178 456 1167 q 507 1189 492 1189 q 556 1171 536 1189 q 593 1132 575 1153 q 638 1088 614 1107 q 700 1068 661 1068 m 442 1324 l 442 1300 l 763 1300 l 763 1324 l 442 1324 "},"Œ":{"ha":1401,"x_min":110,"x_max":1261,"o":"m 710 949 l 733 969 q 672 982 703 978 q 607 986 640 986 q 414 947 504 986 q 256 840 324 908 q 149 680 188 771 q 110 486 110 589 q 149 293 110 383 q 256 135 188 203 q 414 28 324 67 q 607 -11 504 -11 q 670 -7 639 -11 q 731 4 701 -3 l 708 28 q 608 15 657 15 q 424 51 510 15 q 274 152 339 88 q 174 302 210 217 q 138 485 138 388 q 174 668 138 582 q 276 819 211 754 q 425 922 340 885 q 607 960 510 960 q 659 957 633 960 q 710 949 685 954 m 701 975 l 701 0 l 1261 0 l 1261 28 l 729 28 l 729 478 l 1188 478 l 1188 504 l 729 504 l 729 947 l 1242 947 l 1242 975 l 701 975 "},"P":{"ha":736,"x_min":165,"x_max":647,"o":"m 368 975 l 165 975 l 165 0 l 193 0 l 193 440 l 347 440 q 483 463 426 440 q 576 525 540 486 q 630 613 613 564 q 647 715 647 663 q 611 862 647 804 q 512 947 575 919 q 368 975 449 975 m 347 467 l 193 467 l 193 949 l 367 949 q 469 933 422 949 q 550 889 517 918 q 602 817 583 860 q 621 718 621 774 q 608 638 621 681 q 565 556 594 594 q 481 492 535 517 q 347 467 428 467 "},"Þ":{"ha":736,"x_min":165,"x_max":647,"o":"m 367 749 l 193 749 l 193 974 l 165 974 l 165 0 l 193 0 l 193 214 l 349 214 q 483 237 426 214 q 576 299 540 260 q 630 387 613 338 q 647 489 647 436 q 620 610 647 561 q 550 690 593 660 q 458 735 507 721 q 367 749 408 749 m 351 242 l 193 242 l 193 721 l 353 721 q 490 692 429 721 q 585 612 550 664 q 619 492 619 560 q 607 411 619 454 q 565 329 594 368 q 483 266 535 290 q 351 242 431 242 "},"Q":{"ha":1221,"x_min":103,"x_max":1118,"o":"m 729 26 l 685 0 l 1118 0 l 1118 26 l 729 26 m 103 486 q 142 287 103 378 q 249 129 181 196 q 407 26 317 63 q 600 -11 497 -11 q 793 28 703 -11 q 952 135 883 67 q 1060 293 1021 203 q 1100 486 1100 383 q 1060 680 1100 589 q 952 840 1021 771 q 793 947 883 908 q 600 986 703 986 q 407 947 497 986 q 249 840 317 908 q 142 680 181 771 q 103 486 103 589 m 131 485 q 166 665 131 579 q 265 817 201 750 q 415 922 329 883 q 600 960 500 960 q 783 922 697 960 q 933 819 868 885 q 1035 669 997 754 q 1072 486 1072 583 q 1035 302 1072 388 q 932 152 997 217 q 781 51 867 88 q 596 15 694 15 q 415 51 500 15 q 267 152 331 88 q 167 302 203 217 q 131 485 131 388 "},"R":{"ha":857,"x_min":165,"x_max":750,"o":"m 365 975 l 165 975 l 165 0 l 193 0 l 193 440 l 347 440 q 488 463 431 440 q 580 525 544 486 q 632 613 615 564 q 649 715 649 663 q 621 837 649 788 q 549 917 593 886 q 456 961 506 947 q 365 975 407 975 m 343 467 l 193 467 l 193 949 l 367 949 q 465 932 419 949 q 546 884 511 915 q 601 809 581 853 q 621 714 621 765 q 608 627 621 671 q 564 547 594 583 q 480 489 533 511 q 343 467 426 467 m 471 465 l 439 465 l 718 0 l 750 0 l 471 465 "},"Ŕ":{"ha":857,"x_min":165,"x_max":750,"o":"m 365 975 l 165 975 l 165 0 l 193 0 l 193 440 l 347 440 q 488 463 431 440 q 580 525 544 486 q 632 613 615 564 q 649 715 649 663 q 621 837 649 788 q 549 917 593 886 q 456 961 506 947 q 365 975 407 975 m 343 467 l 193 467 l 193 949 l 367 949 q 465 932 419 949 q 546 884 511 915 q 601 809 581 853 q 621 714 621 765 q 608 627 621 671 q 564 547 594 583 q 480 489 533 511 q 343 467 426 467 m 471 465 l 439 465 l 718 0 l 750 0 l 471 465 m 510 1214 l 479 1214 l 356 1029 l 382 1029 l 510 1214 "},"Ř":{"ha":857,"x_min":165,"x_max":750,"o":"m 365 975 l 165 975 l 165 0 l 193 0 l 193 440 l 347 440 q 488 463 431 440 q 580 525 544 486 q 632 613 615 564 q 649 715 649 663 q 621 837 649 788 q 549 917 593 886 q 456 961 506 947 q 365 975 407 975 m 343 467 l 193 467 l 193 949 l 367 949 q 465 932 419 949 q 546 884 511 915 q 601 809 581 853 q 621 714 621 765 q 608 627 621 671 q 564 547 594 583 q 480 489 533 511 q 343 467 426 467 m 471 465 l 439 465 l 718 0 l 750 0 l 471 465 m 208 1240 l 179 1240 l 365 1031 l 367 1031 l 551 1240 l 522 1240 l 356 1049 l 374 1050 l 208 1240 "},"Ŗ":{"ha":857,"x_min":165,"x_max":750,"o":"m 365 975 l 165 975 l 165 0 l 193 0 l 193 440 l 347 440 q 488 463 431 440 q 580 525 544 486 q 632 613 615 564 q 649 715 649 663 q 621 837 649 788 q 549 917 593 886 q 456 961 506 947 q 365 975 407 975 m 343 467 l 193 467 l 193 949 l 367 949 q 465 932 419 949 q 546 884 511 915 q 601 809 581 853 q 621 714 621 765 q 608 627 621 671 q 564 547 594 583 q 480 489 533 511 q 343 467 426 467 m 471 465 l 439 465 l 718 0 l 750 0 l 471 465 m 306 -256 q 360 -205 342 -236 q 383 -137 379 -174 q 385 -64 388 -100 l 354 -64 q 346 -169 361 -124 q 292 -243 331 -215 l 306 -256 "},"Ȑ":{"ha":857,"x_min":165,"x_max":750,"o":"m 365 975 l 165 975 l 165 0 l 193 0 l 193 440 l 347 440 q 488 463 431 440 q 580 525 544 486 q 632 613 615 564 q 649 715 649 663 q 621 837 649 788 q 549 917 593 886 q 456 961 506 947 q 365 975 407 975 m 343 467 l 193 467 l 193 949 l 367 949 q 465 932 419 949 q 546 884 511 915 q 601 809 581 853 q 621 714 621 765 q 608 627 621 671 q 564 547 594 583 q 480 489 533 511 q 343 467 426 467 m 471 465 l 439 465 l 718 0 l 750 0 l 471 465 m 167 1257 l 294 1072 l 321 1072 l 197 1257 l 167 1257 m 301 1257 l 429 1072 l 456 1072 l 332 1257 l 301 1257 "},"Ȓ":{"ha":857,"x_min":165,"x_max":750,"o":"m 365 975 l 165 975 l 165 0 l 193 0 l 193 440 l 347 440 q 488 463 431 440 q 580 525 544 486 q 632 613 615 564 q 649 715 649 663 q 621 837 649 788 q 549 917 593 886 q 456 961 506 947 q 365 975 407 975 m 343 467 l 193 467 l 193 949 l 367 949 q 465 932 419 949 q 546 884 511 915 q 601 809 581 853 q 621 714 621 765 q 608 627 621 671 q 564 547 594 583 q 480 489 533 511 q 343 467 426 467 m 471 465 l 439 465 l 718 0 l 750 0 l 471 465 m 364 1244 q 278 1215 317 1244 q 217 1137 240 1186 q 193 1024 194 1088 l 218 1024 q 238 1121 219 1076 q 290 1192 257 1165 q 364 1219 322 1219 q 439 1192 406 1219 q 492 1121 472 1165 q 515 1024 513 1076 l 538 1024 q 513 1137 536 1088 q 451 1215 489 1186 q 364 1244 413 1244 "},"S":{"ha":765,"x_min":85,"x_max":679,"o":"m 621 906 l 632 926 q 512 965 582 950 q 389 981 442 981 q 256 953 315 981 q 163 876 197 925 q 128 763 128 828 q 150 674 128 711 q 209 610 172 636 q 292 563 246 583 q 386 526 338 543 q 513 472 453 501 q 613 392 574 442 q 651 261 651 343 q 612 123 651 178 q 510 41 572 68 q 379 14 447 14 q 270 30 324 14 q 172 69 217 46 q 99 113 128 92 l 85 88 q 143 53 103 76 q 244 9 183 29 q 385 -11 306 -11 q 535 22 468 -11 q 640 117 601 56 q 679 263 679 178 q 656 376 679 329 q 592 453 632 422 q 503 507 551 485 q 404 547 454 529 q 283 599 339 572 q 191 666 226 626 q 156 767 156 706 q 220 902 156 847 q 392 957 285 957 q 519 940 457 957 q 621 906 582 922 "},"Ś":{"ha":765,"x_min":85,"x_max":679,"o":"m 621 906 l 632 926 q 512 965 582 950 q 389 981 442 981 q 256 953 315 981 q 163 876 197 925 q 128 763 128 828 q 150 674 128 711 q 209 610 172 636 q 292 563 246 583 q 386 526 338 543 q 513 472 453 501 q 613 392 574 442 q 651 261 651 343 q 612 123 651 178 q 510 41 572 68 q 379 14 447 14 q 270 30 324 14 q 172 69 217 46 q 99 113 128 92 l 85 88 q 143 53 103 76 q 244 9 183 29 q 385 -11 306 -11 q 535 22 468 -11 q 640 117 601 56 q 679 263 679 178 q 656 376 679 329 q 592 453 632 422 q 503 507 551 485 q 404 547 454 529 q 283 599 339 572 q 191 666 226 626 q 156 767 156 706 q 220 902 156 847 q 392 957 285 957 q 519 940 457 957 q 621 906 582 922 m 529 1239 l 499 1239 l 375 1054 l 401 1054 l 529 1239 "},"Š":{"ha":765,"x_min":85,"x_max":679,"o":"m 621 906 l 632 926 q 512 965 582 950 q 389 981 442 981 q 256 953 315 981 q 163 876 197 925 q 128 763 128 828 q 150 674 128 711 q 209 610 172 636 q 292 563 246 583 q 386 526 338 543 q 513 472 453 501 q 613 392 574 442 q 651 261 651 343 q 612 123 651 178 q 510 41 572 68 q 379 14 447 14 q 270 30 324 14 q 172 69 217 46 q 99 113 128 92 l 85 88 q 143 53 103 76 q 244 9 183 29 q 385 -11 306 -11 q 535 22 468 -11 q 640 117 601 56 q 679 263 679 178 q 656 376 679 329 q 592 453 632 422 q 503 507 551 485 q 404 547 454 529 q 283 599 339 572 q 191 666 226 626 q 156 767 156 706 q 220 902 156 847 q 392 957 285 957 q 519 940 457 957 q 621 906 582 922 m 226 1265 l 197 1265 l 383 1056 l 385 1056 l 569 1265 l 540 1265 l 374 1074 l 392 1075 l 226 1265 "},"Ş":{"ha":765,"x_min":85,"x_max":679,"o":"m 621 906 l 632 926 q 512 965 582 950 q 389 981 442 981 q 256 953 315 981 q 163 876 197 925 q 128 763 128 828 q 150 674 128 711 q 209 610 172 636 q 292 563 246 583 q 386 526 338 543 q 513 472 453 501 q 613 392 574 442 q 651 261 651 343 q 612 123 651 178 q 510 41 572 68 q 379 14 447 14 q 270 30 324 14 q 172 69 217 46 q 99 113 128 92 l 85 88 q 143 53 103 76 q 244 9 183 29 q 385 -11 306 -11 q 535 22 468 -11 q 640 117 601 56 q 679 263 679 178 q 656 376 679 329 q 592 453 632 422 q 503 507 551 485 q 404 547 454 529 q 283 599 339 572 q 191 666 226 626 q 156 767 156 706 q 220 902 156 847 q 392 957 285 957 q 519 940 457 957 q 621 906 582 922 m 276 -253 l 263 -274 q 315 -301 283 -290 q 386 -311 347 -311 q 462 -299 428 -311 q 516 -264 496 -287 q 536 -204 536 -240 q 499 -121 536 -150 q 394 -92 463 -92 q 330 -100 364 -92 q 281 -118 296 -108 l 301 -124 l 396 -7 l 374 6 l 272 -118 l 292 -136 q 339 -122 308 -128 q 393 -115 369 -115 q 479 -141 451 -115 q 507 -204 507 -167 q 474 -267 507 -246 q 383 -289 440 -289 q 319 -278 346 -289 q 276 -253 293 -268 "},"Ŝ":{"ha":765,"x_min":85,"x_max":679,"o":"m 621 906 l 632 926 q 512 965 582 950 q 389 981 442 981 q 256 953 315 981 q 163 876 197 925 q 128 763 128 828 q 150 674 128 711 q 209 610 172 636 q 292 563 246 583 q 386 526 338 543 q 513 472 453 501 q 613 392 574 442 q 651 261 651 343 q 612 123 651 178 q 510 41 572 68 q 379 14 447 14 q 270 30 324 14 q 172 69 217 46 q 99 113 128 92 l 85 88 q 143 53 103 76 q 244 9 183 29 q 385 -11 306 -11 q 535 22 468 -11 q 640 117 601 56 q 679 263 679 178 q 656 376 679 329 q 592 453 632 422 q 503 507 551 485 q 404 547 454 529 q 283 599 339 572 q 191 666 226 626 q 156 767 156 706 q 220 902 156 847 q 392 957 285 957 q 519 940 457 957 q 621 906 582 922 m 543 1090 l 572 1090 l 386 1301 l 385 1301 l 200 1090 l 229 1090 l 396 1282 l 378 1281 l 543 1090 "},"Ș":{"ha":765,"x_min":85,"x_max":679,"o":"m 621 906 l 632 926 q 512 965 582 950 q 389 981 442 981 q 256 953 315 981 q 163 876 197 925 q 128 763 128 828 q 150 674 128 711 q 209 610 172 636 q 292 563 246 583 q 386 526 338 543 q 513 472 453 501 q 613 392 574 442 q 651 261 651 343 q 612 123 651 178 q 510 41 572 68 q 379 14 447 14 q 270 30 324 14 q 172 69 217 46 q 99 113 128 92 l 85 88 q 143 53 103 76 q 244 9 183 29 q 385 -11 306 -11 q 535 22 468 -11 q 640 117 601 56 q 679 263 679 178 q 656 376 679 329 q 592 453 632 422 q 503 507 551 485 q 404 547 454 529 q 283 599 339 572 q 191 666 226 626 q 156 767 156 706 q 220 902 156 847 q 392 957 285 957 q 519 940 457 957 q 621 906 582 922 m 321 -256 q 376 -205 357 -236 q 399 -137 394 -174 q 400 -64 403 -100 l 369 -64 q 361 -169 376 -124 q 307 -243 346 -215 l 321 -256 "},"ẞ":{"ha":1163,"x_min":165,"x_max":1054,"o":"m 806 -11 q 935 19 879 -11 q 1022 98 990 49 q 1054 207 1054 147 q 1035 286 1054 253 q 985 344 1017 319 q 915 391 954 369 q 835 435 875 413 q 725 498 776 465 q 641 573 674 531 q 608 676 608 615 q 636 774 608 731 q 710 842 664 817 q 811 868 757 868 q 908 845 869 868 q 960 814 947 822 l 974 833 q 883 908 939 872 q 752 966 826 943 q 593 989 678 989 q 349 924 443 989 q 210 746 254 860 q 165 482 165 632 l 165 0 l 193 0 l 193 476 q 243 753 193 644 q 384 913 293 861 q 596 964 475 964 q 773 933 685 964 q 922 847 861 901 l 932 857 q 887 879 913 867 q 810 892 861 892 q 676 853 726 888 q 602 769 625 819 q 579 667 579 719 q 613 558 579 604 q 702 476 647 511 q 817 413 757 442 q 916 356 868 382 q 995 294 964 329 q 1026 204 1026 258 q 991 101 1026 143 q 904 36 956 58 q 807 14 853 14 q 676 32 738 14 q 568 76 615 50 l 557 53 q 656 10 594 31 q 806 -11 718 -11 "},"Ə":{"ha":1128,"x_min":82,"x_max":1025,"o":"m 519 988 q 392 969 454 988 q 275 920 331 951 q 175 846 219 889 l 192 826 q 286 894 233 864 q 399 942 339 924 q 519 960 458 960 q 715 920 626 960 q 866 813 803 881 q 963 660 929 746 q 997 483 997 575 q 960 303 997 388 q 858 153 924 218 q 706 52 793 89 q 521 15 619 15 q 278 93 385 15 q 117 300 171 171 l 107 283 l 981 639 l 971 663 l 82 303 q 180 142 118 213 q 327 30 242 71 q 519 -11 413 -11 q 717 27 625 -11 q 878 133 808 65 q 986 291 947 201 q 1025 485 1025 381 q 986 680 1025 589 q 878 840 947 771 q 718 949 810 910 q 519 988 626 988 "},"T":{"ha":799,"x_min":82,"x_max":715,"o":"m 82 975 l 82 949 l 385 949 l 385 0 l 413 0 l 413 949 l 715 949 l 715 975 l 82 975 "},"Ŧ":{"ha":799,"x_min":82,"x_max":715,"o":"m 82 975 l 82 949 l 385 949 l 385 0 l 413 0 l 413 949 l 715 949 l 715 975 l 82 975 m 238 500 l 238 474 l 560 474 l 560 500 l 238 500 "},"Ť":{"ha":799,"x_min":82,"x_max":715,"o":"m 82 975 l 82 949 l 385 949 l 385 0 l 413 0 l 413 949 l 715 949 l 715 975 l 82 975 m 242 1239 l 213 1239 l 399 1029 l 400 1029 l 585 1239 l 556 1239 l 389 1047 l 407 1049 l 242 1239 "},"Ţ":{"ha":799,"x_min":82,"x_max":715,"o":"m 82 975 l 82 949 l 385 949 l 385 0 l 413 0 l 413 949 l 715 949 l 715 975 l 82 975 m 292 -251 l 278 -272 q 331 -299 299 -289 q 401 -310 363 -310 q 477 -298 443 -310 q 531 -262 511 -286 q 551 -203 551 -239 q 515 -119 551 -149 q 410 -90 478 -90 q 345 -99 379 -90 q 296 -117 311 -107 l 317 -122 l 411 -6 l 389 7 l 288 -117 l 307 -135 q 354 -120 324 -126 q 408 -114 385 -114 q 494 -140 467 -114 q 522 -203 522 -165 q 489 -266 522 -244 q 399 -287 456 -287 q 335 -277 361 -287 q 292 -251 308 -267 "},"Ț":{"ha":799,"x_min":82,"x_max":715,"o":"m 82 975 l 82 949 l 385 949 l 385 0 l 413 0 l 413 949 l 715 949 l 715 975 l 82 975 m 336 -256 q 391 -205 372 -236 q 414 -137 410 -174 q 415 -64 418 -100 l 385 -64 q 376 -169 392 -124 q 322 -243 361 -215 l 336 -256 "},"U":{"ha":963,"x_min":164,"x_max":799,"o":"m 192 319 l 192 975 l 164 975 l 164 317 q 206 137 164 210 q 319 26 247 64 q 481 -11 390 -11 l 481 -11 q 642 26 571 -11 q 756 137 714 64 q 799 317 799 210 l 799 975 l 771 975 l 771 319 q 733 154 771 222 q 630 51 696 86 q 481 15 564 15 q 332 51 397 15 q 229 154 267 86 q 192 319 192 222 "},"Ú":{"ha":963,"x_min":164,"x_max":799,"o":"m 192 319 l 192 975 l 164 975 l 164 317 q 206 137 164 210 q 319 26 247 64 q 481 -11 390 -11 l 481 -11 q 642 26 571 -11 q 756 137 714 64 q 799 317 799 210 l 799 975 l 771 975 l 771 319 q 733 154 771 222 q 630 51 696 86 q 481 15 564 15 q 332 51 397 15 q 229 154 267 86 q 192 319 192 222 m 625 1214 l 594 1214 l 471 1029 l 497 1029 l 625 1214 "},"Ŭ":{"ha":963,"x_min":164,"x_max":799,"o":"m 192 319 l 192 975 l 164 975 l 164 317 q 206 137 164 210 q 319 26 247 64 q 481 -11 390 -11 l 481 -11 q 642 26 571 -11 q 756 137 714 64 q 799 317 799 210 l 799 975 l 771 975 l 771 319 q 733 154 771 222 q 630 51 696 86 q 481 15 564 15 q 332 51 397 15 q 229 154 267 86 q 192 319 192 222 m 485 1050 q 570 1078 532 1050 q 632 1157 608 1107 q 656 1269 656 1207 l 632 1269 q 610 1172 629 1217 q 559 1101 592 1128 q 485 1074 526 1074 q 410 1101 443 1074 q 356 1172 376 1128 q 335 1269 336 1217 l 311 1269 q 336 1157 313 1207 q 398 1078 360 1107 q 485 1050 436 1050 "},"Ǔ":{"ha":963,"x_min":164,"x_max":799,"o":"m 192 319 l 192 975 l 164 975 l 164 317 q 206 137 164 210 q 319 26 247 64 q 481 -11 390 -11 l 481 -11 q 642 26 571 -11 q 756 137 714 64 q 799 317 799 210 l 799 975 l 771 975 l 771 319 q 733 154 771 222 q 630 51 696 86 q 481 15 564 15 q 332 51 397 15 q 229 154 267 86 q 192 319 192 222 m 324 1240 l 294 1240 l 481 1031 l 482 1031 l 667 1240 l 638 1240 l 471 1049 l 489 1050 l 324 1240 "},"Û":{"ha":963,"x_min":164,"x_max":799,"o":"m 192 319 l 192 975 l 164 975 l 164 317 q 206 137 164 210 q 319 26 247 64 q 481 -11 390 -11 l 481 -11 q 642 26 571 -11 q 756 137 714 64 q 799 317 799 210 l 799 975 l 771 975 l 771 319 q 733 154 771 222 q 630 51 696 86 q 481 15 564 15 q 332 51 397 15 q 229 154 267 86 q 192 319 192 222 m 640 1065 l 669 1065 l 483 1276 l 482 1276 l 297 1065 l 326 1065 l 493 1257 l 475 1256 l 640 1065 "},"Ȕ":{"ha":963,"x_min":164,"x_max":799,"o":"m 192 319 l 192 975 l 164 975 l 164 317 q 206 137 164 210 q 319 26 247 64 q 481 -11 390 -11 l 481 -11 q 642 26 571 -11 q 756 137 714 64 q 799 317 799 210 l 799 975 l 771 975 l 771 319 q 733 154 771 222 q 630 51 696 86 q 481 15 564 15 q 332 51 397 15 q 229 154 267 86 q 192 319 192 222 m 282 1257 l 410 1072 l 436 1072 l 313 1257 l 282 1257 m 417 1257 l 544 1072 l 571 1072 l 447 1257 l 417 1257 "},"Ü":{"ha":963,"x_min":164,"x_max":799,"o":"m 192 319 l 192 975 l 164 975 l 164 317 q 206 137 164 210 q 319 26 247 64 q 481 -11 390 -11 l 481 -11 q 642 26 571 -11 q 756 137 714 64 q 799 317 799 210 l 799 975 l 771 975 l 771 319 q 733 154 771 222 q 630 51 696 86 q 481 15 564 15 q 332 51 397 15 q 229 154 267 86 q 192 319 192 222 m 335 1090 l 335 1090 q 344 1069 335 1078 q 365 1060 353 1060 q 387 1069 378 1060 q 396 1090 396 1078 q 387 1112 396 1103 q 365 1121 378 1121 q 344 1112 353 1121 q 335 1090 335 1103 m 565 1090 l 565 1090 q 574 1069 565 1078 q 597 1060 583 1060 q 618 1069 608 1060 q 628 1090 628 1078 q 618 1112 628 1103 q 597 1121 608 1121 q 574 1112 583 1121 q 565 1090 565 1103 "},"Ụ":{"ha":963,"x_min":164,"x_max":799,"o":"m 192 319 l 192 975 l 164 975 l 164 317 q 206 137 164 210 q 319 26 247 64 q 481 -11 390 -11 l 481 -11 q 642 26 571 -11 q 756 137 714 64 q 799 317 799 210 l 799 975 l 771 975 l 771 319 q 733 154 771 222 q 630 51 696 86 q 481 15 564 15 q 332 51 397 15 q 229 154 267 86 q 192 319 192 222 m 450 -108 q 459 -130 450 -121 q 482 -139 468 -139 q 503 -130 494 -139 q 513 -108 513 -121 q 503 -87 513 -96 q 482 -78 494 -78 q 459 -87 468 -78 q 450 -108 450 -96 "},"Ù":{"ha":963,"x_min":164,"x_max":799,"o":"m 192 319 l 192 975 l 164 975 l 164 317 q 206 137 164 210 q 319 26 247 64 q 481 -11 390 -11 l 481 -11 q 642 26 571 -11 q 756 137 714 64 q 799 317 799 210 l 799 975 l 771 975 l 771 319 q 733 154 771 222 q 630 51 696 86 q 481 15 564 15 q 332 51 397 15 q 229 154 267 86 q 192 319 192 222 m 349 1228 l 476 1043 l 503 1043 l 379 1228 l 349 1228 "},"Ủ":{"ha":963,"x_min":164,"x_max":799,"o":"m 192 319 l 192 975 l 164 975 l 164 317 q 206 137 164 210 q 319 26 247 64 q 481 -11 390 -11 l 481 -11 q 642 26 571 -11 q 756 137 714 64 q 799 317 799 210 l 799 975 l 771 975 l 771 319 q 733 154 771 222 q 630 51 696 86 q 481 15 564 15 q 332 51 397 15 q 229 154 267 86 q 192 319 192 222 m 490 1029 l 504 1015 q 564 1068 539 1043 q 589 1131 589 1093 q 577 1181 589 1163 q 548 1208 565 1200 q 510 1217 531 1217 q 456 1201 479 1217 q 411 1153 432 1186 l 426 1142 q 465 1183 449 1171 q 508 1194 482 1194 q 553 1176 539 1194 q 567 1129 567 1157 q 544 1078 567 1100 q 490 1029 522 1056 "},"Ư":{"ha":963,"x_min":164,"x_max":947,"o":"m 192 319 l 192 975 l 164 975 l 164 317 q 206 137 164 210 q 319 26 247 64 q 481 -11 390 -11 l 481 -11 q 642 26 571 -11 q 756 137 714 64 q 799 317 799 210 l 799 975 l 771 975 l 771 319 q 733 154 771 222 q 630 51 696 86 q 481 15 564 15 q 332 51 397 15 q 229 154 267 86 q 192 319 192 222 m 781 969 l 781 947 q 867 960 831 947 q 926 1012 904 972 q 947 1133 947 1051 l 924 1133 q 888 1006 922 1042 q 781 969 853 969 "},"Ứ":{"ha":963,"x_min":164,"x_max":947,"o":"m 192 319 l 192 975 l 164 975 l 164 317 q 206 137 164 210 q 319 26 247 64 q 481 -11 390 -11 l 481 -11 q 642 26 571 -11 q 756 137 714 64 q 799 317 799 210 l 799 975 l 771 975 l 771 319 q 733 154 771 222 q 630 51 696 86 q 481 15 564 15 q 332 51 397 15 q 229 154 267 86 q 192 319 192 222 m 781 969 l 781 947 q 867 960 831 947 q 926 1012 904 972 q 947 1133 947 1051 l 924 1133 q 888 1006 922 1042 q 781 969 853 969 m 625 1214 l 594 1214 l 471 1029 l 497 1029 l 625 1214 "},"Ự":{"ha":963,"x_min":164,"x_max":947,"o":"m 192 319 l 192 975 l 164 975 l 164 317 q 206 137 164 210 q 319 26 247 64 q 481 -11 390 -11 l 481 -11 q 642 26 571 -11 q 756 137 714 64 q 799 317 799 210 l 799 975 l 771 975 l 771 319 q 733 154 771 222 q 630 51 696 86 q 481 15 564 15 q 332 51 397 15 q 229 154 267 86 q 192 319 192 222 m 781 969 l 781 947 q 867 960 831 947 q 926 1012 904 972 q 947 1133 947 1051 l 924 1133 q 888 1006 922 1042 q 781 969 853 969 m 450 -108 q 459 -130 450 -121 q 482 -139 468 -139 q 503 -130 494 -139 q 513 -108 513 -121 q 503 -87 513 -96 q 482 -78 494 -78 q 459 -87 468 -78 q 450 -108 450 -96 "},"Ừ":{"ha":963,"x_min":164,"x_max":947,"o":"m 192 319 l 192 975 l 164 975 l 164 317 q 206 137 164 210 q 319 26 247 64 q 481 -11 390 -11 l 481 -11 q 642 26 571 -11 q 756 137 714 64 q 799 317 799 210 l 799 975 l 771 975 l 771 319 q 733 154 771 222 q 630 51 696 86 q 481 15 564 15 q 332 51 397 15 q 229 154 267 86 q 192 319 192 222 m 781 969 l 781 947 q 867 960 831 947 q 926 1012 904 972 q 947 1133 947 1051 l 924 1133 q 888 1006 922 1042 q 781 969 853 969 m 349 1228 l 476 1043 l 503 1043 l 379 1228 l 349 1228 "},"Ử":{"ha":963,"x_min":164,"x_max":947,"o":"m 192 319 l 192 975 l 164 975 l 164 317 q 206 137 164 210 q 319 26 247 64 q 481 -11 390 -11 l 481 -11 q 642 26 571 -11 q 756 137 714 64 q 799 317 799 210 l 799 975 l 771 975 l 771 319 q 733 154 771 222 q 630 51 696 86 q 481 15 564 15 q 332 51 397 15 q 229 154 267 86 q 192 319 192 222 m 781 969 l 781 947 q 867 960 831 947 q 926 1012 904 972 q 947 1133 947 1051 l 924 1133 q 888 1006 922 1042 q 781 969 853 969 m 490 1029 l 504 1015 q 564 1068 539 1043 q 589 1131 589 1093 q 577 1181 589 1163 q 548 1208 565 1200 q 510 1217 531 1217 q 456 1201 479 1217 q 411 1153 432 1186 l 426 1142 q 465 1183 449 1171 q 508 1194 482 1194 q 553 1176 539 1194 q 567 1129 567 1157 q 544 1078 567 1100 q 490 1029 522 1056 "},"Ữ":{"ha":963,"x_min":164,"x_max":947,"o":"m 192 319 l 192 975 l 164 975 l 164 317 q 206 137 164 210 q 319 26 247 64 q 481 -11 390 -11 l 481 -11 q 642 26 571 -11 q 756 137 714 64 q 799 317 799 210 l 799 975 l 771 975 l 771 319 q 733 154 771 222 q 630 51 696 86 q 481 15 564 15 q 332 51 397 15 q 229 154 267 86 q 192 319 192 222 m 781 969 l 781 947 q 867 960 831 947 q 926 1012 904 972 q 947 1133 947 1051 l 924 1133 q 888 1006 922 1042 q 781 969 853 969 m 581 1068 q 630 1083 607 1068 q 667 1132 653 1099 q 682 1219 681 1165 l 660 1222 q 633 1118 656 1144 q 581 1092 610 1092 q 531 1109 551 1092 q 493 1149 511 1126 q 450 1193 474 1172 q 388 1214 426 1214 q 339 1198 363 1214 q 300 1149 315 1182 q 283 1061 285 1115 l 306 1058 q 322 1138 308 1110 q 354 1178 336 1167 q 388 1189 372 1189 q 436 1171 417 1189 q 474 1132 456 1153 q 518 1088 494 1107 q 581 1068 542 1068 "},"Ű":{"ha":963,"x_min":164,"x_max":799,"o":"m 192 319 l 192 975 l 164 975 l 164 317 q 206 137 164 210 q 319 26 247 64 q 481 -11 390 -11 l 481 -11 q 642 26 571 -11 q 756 137 714 64 q 799 317 799 210 l 799 975 l 771 975 l 771 319 q 733 154 771 222 q 630 51 696 86 q 481 15 564 15 q 332 51 397 15 q 229 154 267 86 q 192 319 192 222 m 574 1246 l 543 1246 l 419 1061 l 446 1061 l 574 1246 m 707 1246 l 676 1246 l 553 1061 l 579 1061 l 707 1246 "},"Ȗ":{"ha":963,"x_min":164,"x_max":799,"o":"m 192 319 l 192 975 l 164 975 l 164 317 q 206 137 164 210 q 319 26 247 64 q 481 -11 390 -11 l 481 -11 q 642 26 571 -11 q 756 137 714 64 q 799 317 799 210 l 799 975 l 771 975 l 771 319 q 733 154 771 222 q 630 51 696 86 q 481 15 564 15 q 332 51 397 15 q 229 154 267 86 q 192 319 192 222 m 479 1244 q 394 1215 432 1244 q 333 1137 356 1186 q 308 1024 310 1088 l 333 1024 q 353 1121 335 1076 q 405 1192 372 1165 q 479 1219 438 1219 q 554 1192 521 1219 q 608 1121 588 1165 q 631 1024 628 1076 l 653 1024 q 628 1137 651 1088 q 566 1215 604 1186 q 479 1244 528 1244 "},"Ū":{"ha":963,"x_min":164,"x_max":799,"o":"m 192 319 l 192 975 l 164 975 l 164 317 q 206 137 164 210 q 319 26 247 64 q 481 -11 390 -11 l 481 -11 q 642 26 571 -11 q 756 137 714 64 q 799 317 799 210 l 799 975 l 771 975 l 771 319 q 733 154 771 222 q 630 51 696 86 q 481 15 564 15 q 332 51 397 15 q 229 154 267 86 q 192 319 192 222 m 321 1076 l 321 1053 l 642 1053 l 642 1076 l 321 1076 "},"Ų":{"ha":963,"x_min":164,"x_max":799,"o":"m 610 -261 q 673 -239 644 -261 q 715 -186 701 -217 l 697 -174 q 660 -218 682 -200 q 613 -236 639 -236 q 560 -214 583 -236 q 536 -153 536 -192 q 569 -52 536 -100 q 664 40 603 -4 q 734 106 704 67 q 781 197 764 144 q 799 317 799 250 l 799 975 l 771 975 l 771 319 q 733 154 771 222 q 630 51 696 86 q 481 15 564 15 q 332 51 397 15 q 229 154 267 86 q 192 319 192 222 l 192 975 l 164 975 l 164 317 q 206 137 164 210 q 319 26 247 64 q 481 -11 390 -11 q 607 13 554 -11 l 610 21 l 600 17 q 535 -62 560 -15 q 510 -154 510 -108 q 540 -232 510 -203 q 610 -261 571 -261 "},"Ů":{"ha":963,"x_min":164,"x_max":799,"o":"m 192 319 l 192 975 l 164 975 l 164 317 q 206 137 164 210 q 319 26 247 64 q 481 -11 390 -11 l 481 -11 q 642 26 571 -11 q 756 137 714 64 q 799 317 799 210 l 799 975 l 771 975 l 771 319 q 733 154 771 222 q 630 51 696 86 q 481 15 564 15 q 332 51 397 15 q 229 154 267 86 q 192 319 192 222 m 392 1160 q 417 1096 392 1121 q 482 1071 443 1071 q 547 1096 521 1071 q 572 1160 572 1121 q 547 1224 572 1199 q 482 1250 521 1250 q 417 1224 443 1250 q 392 1160 392 1199 m 414 1160 q 434 1208 414 1188 q 482 1228 454 1228 q 528 1208 508 1228 q 549 1160 549 1188 q 528 1113 549 1133 q 482 1093 508 1093 q 434 1113 454 1093 q 414 1160 414 1133 "},"Ũ":{"ha":963,"x_min":164,"x_max":799,"o":"m 192 319 l 192 975 l 164 975 l 164 317 q 206 137 164 210 q 319 26 247 64 q 481 -11 390 -11 l 481 -11 q 642 26 571 -11 q 756 137 714 64 q 799 317 799 210 l 799 975 l 771 975 l 771 319 q 733 154 771 222 q 630 51 696 86 q 481 15 564 15 q 332 51 397 15 q 229 154 267 86 q 192 319 192 222 m 581 1068 q 630 1083 607 1068 q 667 1132 653 1099 q 682 1219 681 1165 l 660 1222 q 633 1118 656 1144 q 581 1092 610 1092 q 531 1109 551 1092 q 493 1149 511 1126 q 450 1193 474 1172 q 388 1214 426 1214 q 339 1198 363 1214 q 300 1149 315 1182 q 283 1061 285 1115 l 306 1058 q 322 1138 308 1110 q 354 1178 336 1167 q 388 1189 372 1189 q 436 1171 417 1189 q 474 1132 456 1153 q 518 1088 494 1107 q 581 1068 542 1068 "},"V":{"ha":961,"x_min":75,"x_max":886,"o":"m 106 975 l 75 975 l 481 -44 l 886 975 l 856 975 l 475 -4 l 489 -4 l 106 975 "},"W":{"ha":1367,"x_min":75,"x_max":1292,"o":"m 75 974 l 458 -44 l 678 557 l 664 589 l 454 10 l 464 7 l 106 974 l 75 974 m 513 974 l 896 -44 l 1292 974 l 1263 974 l 890 6 l 906 0 l 540 974 l 513 974 "},"Ẃ":{"ha":1367,"x_min":75,"x_max":1292,"o":"m 75 974 l 458 -44 l 678 557 l 664 589 l 454 10 l 464 7 l 106 974 l 75 974 m 513 974 l 896 -44 l 1292 974 l 1263 974 l 890 6 l 906 0 l 540 974 l 513 974 m 828 1213 l 797 1213 l 674 1028 l 700 1028 l 828 1213 "},"Ŵ":{"ha":1367,"x_min":75,"x_max":1292,"o":"m 75 974 l 458 -44 l 678 557 l 664 589 l 454 10 l 464 7 l 106 974 l 75 974 m 513 974 l 896 -44 l 1292 974 l 1263 974 l 890 6 l 906 0 l 540 974 l 513 974 m 842 1065 l 871 1065 l 685 1276 l 683 1276 l 499 1065 l 528 1065 l 694 1257 l 676 1256 l 842 1065 "},"Ẅ":{"ha":1367,"x_min":75,"x_max":1292,"o":"m 75 974 l 458 -44 l 678 557 l 664 589 l 454 10 l 464 7 l 106 974 l 75 974 m 513 974 l 896 -44 l 1292 974 l 1263 974 l 890 6 l 906 0 l 540 974 l 513 974 m 536 1090 l 536 1090 q 545 1069 536 1078 q 567 1060 554 1060 q 588 1069 579 1060 q 597 1090 597 1078 q 588 1112 597 1103 q 567 1121 579 1121 q 545 1112 554 1121 q 536 1090 536 1103 m 767 1090 l 767 1090 q 776 1069 767 1078 q 799 1060 785 1060 q 819 1069 810 1060 q 829 1090 829 1078 q 819 1112 829 1103 q 799 1121 810 1121 q 776 1112 785 1121 q 767 1090 767 1103 "},"Ẁ":{"ha":1367,"x_min":75,"x_max":1292,"o":"m 75 974 l 458 -44 l 678 557 l 664 589 l 454 10 l 464 7 l 106 974 l 75 974 m 513 974 l 896 -44 l 1292 974 l 1263 974 l 890 6 l 906 0 l 540 974 l 513 974 m 551 1226 l 679 1042 l 706 1042 l 582 1226 l 551 1226 "},"X":{"ha":817,"x_min":68,"x_max":749,"o":"m 82 975 l 715 0 l 749 0 l 114 975 l 82 975 m 68 0 l 100 0 l 410 489 l 390 506 l 68 0 m 401 513 l 419 493 l 728 975 l 696 975 l 401 513 "},"Y":{"ha":893,"x_min":68,"x_max":825,"o":"m 433 363 l 433 0 l 461 0 l 461 363 l 825 975 l 793 975 l 442 383 l 454 385 l 101 975 l 68 975 l 433 363 "},"Ý":{"ha":893,"x_min":68,"x_max":825,"o":"m 433 363 l 433 0 l 461 0 l 461 363 l 825 975 l 793 975 l 442 383 l 454 385 l 101 975 l 68 975 l 433 363 m 593 1213 l 563 1213 l 439 1028 l 465 1028 l 593 1213 "},"Ŷ":{"ha":893,"x_min":68,"x_max":825,"o":"m 433 363 l 433 0 l 461 0 l 461 363 l 825 975 l 793 975 l 442 383 l 454 385 l 101 975 l 68 975 l 433 363 m 607 1064 l 636 1064 l 450 1275 l 449 1275 l 264 1064 l 293 1064 l 460 1256 l 442 1254 l 607 1064 "},"Ÿ":{"ha":893,"x_min":68,"x_max":825,"o":"m 433 363 l 433 0 l 461 0 l 461 363 l 825 975 l 793 975 l 442 383 l 454 385 l 101 975 l 68 975 l 433 363 m 301 1090 l 301 1090 q 310 1069 301 1078 q 332 1060 319 1060 q 353 1069 344 1060 q 363 1090 363 1078 q 353 1112 363 1103 q 332 1121 344 1121 q 310 1112 319 1121 q 301 1090 301 1103 m 532 1090 l 532 1090 q 541 1069 532 1078 q 564 1060 550 1060 q 585 1069 575 1060 q 594 1090 594 1078 q 585 1112 594 1103 q 564 1121 575 1121 q 541 1112 550 1121 q 532 1090 532 1103 "},"Ỵ":{"ha":893,"x_min":68,"x_max":825,"o":"m 433 363 l 433 0 l 461 0 l 461 363 l 825 975 l 793 975 l 442 383 l 454 385 l 101 975 l 68 975 l 433 363 m 415 -108 q 424 -130 415 -121 q 447 -139 433 -139 q 469 -130 460 -139 q 478 -108 478 -121 q 469 -87 478 -96 q 447 -78 460 -78 q 424 -87 433 -78 q 415 -108 415 -96 "},"Ỳ":{"ha":893,"x_min":68,"x_max":825,"o":"m 433 363 l 433 0 l 461 0 l 461 363 l 825 975 l 793 975 l 442 383 l 454 385 l 101 975 l 68 975 l 433 363 m 315 1226 l 443 1042 l 469 1042 l 346 1226 l 315 1226 "},"Ỷ":{"ha":893,"x_min":68,"x_max":825,"o":"m 433 363 l 433 0 l 461 0 l 461 363 l 825 975 l 793 975 l 442 383 l 454 385 l 101 975 l 68 975 l 433 363 m 457 1028 l 471 1014 q 531 1067 506 1042 q 556 1129 556 1092 q 544 1180 556 1161 q 515 1207 532 1199 q 476 1215 497 1215 q 422 1200 446 1215 q 378 1151 399 1185 l 393 1140 q 432 1181 415 1169 q 475 1193 449 1193 q 519 1174 506 1193 q 533 1128 533 1156 q 511 1076 533 1099 q 457 1028 489 1054 "},"Ȳ":{"ha":893,"x_min":68,"x_max":825,"o":"m 433 363 l 433 0 l 461 0 l 461 363 l 825 975 l 793 975 l 442 383 l 454 385 l 101 975 l 68 975 l 433 363 m 288 1075 l 288 1051 l 608 1051 l 608 1075 l 288 1075 "},"Ỹ":{"ha":893,"x_min":68,"x_max":825,"o":"m 433 363 l 433 0 l 461 0 l 461 363 l 825 975 l 793 975 l 442 383 l 454 385 l 101 975 l 68 975 l 433 363 m 547 1067 q 597 1082 574 1067 q 633 1131 619 1097 q 649 1218 647 1164 l 626 1221 q 599 1117 622 1143 q 547 1090 576 1090 q 498 1108 518 1090 q 460 1147 478 1125 q 417 1192 440 1171 q 354 1213 393 1213 q 306 1197 329 1213 q 267 1147 282 1181 q 250 1060 251 1114 l 272 1057 q 289 1137 275 1108 q 321 1176 303 1165 q 354 1188 339 1188 q 403 1169 383 1188 q 440 1131 422 1151 q 485 1086 461 1106 q 547 1067 508 1067 "},"Z":{"ha":968,"x_min":82,"x_max":886,"o":"m 82 0 l 886 0 l 886 26 l 122 26 l 125 19 l 842 975 l 186 975 q 153 984 163 975 q 144 1007 144 993 l 144 1024 l 115 1024 l 115 1011 q 124 972 115 985 q 151 953 133 958 q 194 949 168 949 l 807 949 l 797 957 q 713 844 756 901 q 624 728 669 788 q 533 607 579 668 q 440 484 486 546 q 347 360 393 422 q 256 238 301 299 q 167 117 211 176 q 82 0 124 57 "},"Ź":{"ha":968,"x_min":82,"x_max":886,"o":"m 82 0 l 886 0 l 886 26 l 122 26 l 125 19 l 842 975 l 186 975 q 153 984 163 975 q 144 1007 144 993 l 144 1024 l 115 1024 l 115 1011 q 124 972 115 985 q 151 953 133 958 q 194 949 168 949 l 807 949 l 797 957 q 713 844 756 901 q 624 728 669 788 q 533 607 579 668 q 440 484 486 546 q 347 360 393 422 q 256 238 301 299 q 167 117 211 176 q 82 0 124 57 m 628 1213 l 597 1213 l 474 1028 l 500 1028 l 628 1213 "},"Ž":{"ha":968,"x_min":82,"x_max":886,"o":"m 82 0 l 886 0 l 886 26 l 122 26 l 125 19 l 842 975 l 186 975 q 153 984 163 975 q 144 1007 144 993 l 144 1024 l 115 1024 l 115 1011 q 124 972 115 985 q 151 953 133 958 q 194 949 168 949 l 807 949 l 797 957 q 713 844 756 901 q 624 728 669 788 q 533 607 579 668 q 440 484 486 546 q 347 360 393 422 q 256 238 301 299 q 167 117 211 176 q 82 0 124 57 m 326 1239 l 297 1239 l 483 1029 l 485 1029 l 669 1239 l 640 1239 l 474 1047 l 492 1049 l 326 1239 "},"Ż":{"ha":968,"x_min":82,"x_max":886,"o":"m 82 0 l 886 0 l 886 26 l 122 26 l 125 19 l 842 975 l 186 975 q 153 984 163 975 q 144 1007 144 993 l 144 1024 l 115 1024 l 115 1011 q 124 972 115 985 q 151 953 133 958 q 194 949 168 949 l 807 949 l 797 957 q 713 844 756 901 q 624 728 669 788 q 533 607 579 668 q 440 484 486 546 q 347 360 393 422 q 256 238 301 299 q 167 117 211 176 q 82 0 124 57 m 453 1089 q 462 1067 453 1076 q 485 1058 471 1058 q 506 1067 497 1058 q 515 1089 515 1076 q 506 1110 515 1101 q 485 1119 497 1119 q 462 1110 471 1119 q 453 1089 453 1101 "},"a":{"ha":753,"x_min":75,"x_max":622,"o":"m 346 -8 q 430 4 390 -8 q 503 40 469 17 q 561 93 536 63 q 600 160 586 124 l 596 179 l 596 0 l 622 0 l 622 525 l 601 525 l 594 351 l 597 369 q 499 490 567 443 q 350 536 432 536 q 212 504 274 536 q 113 411 150 472 q 75 263 75 350 q 112 125 75 186 q 210 28 149 64 q 346 -8 271 -8 m 349 15 q 225 49 281 15 q 136 138 169 82 q 103 264 103 194 q 135 395 103 339 q 224 482 168 451 q 349 513 281 513 q 462 485 410 513 q 549 411 514 457 q 596 308 585 365 l 596 251 q 561 130 594 183 q 472 46 528 76 q 349 15 417 15 "},"á":{"ha":753,"x_min":75,"x_max":622,"o":"m 346 -8 q 430 4 390 -8 q 503 40 469 17 q 561 93 536 63 q 600 160 586 124 l 596 179 l 596 0 l 622 0 l 622 525 l 601 525 l 594 351 l 597 369 q 499 490 567 443 q 350 536 432 536 q 212 504 274 536 q 113 411 150 472 q 75 263 75 350 q 112 125 75 186 q 210 28 149 64 q 346 -8 271 -8 m 349 15 q 225 49 281 15 q 136 138 169 82 q 103 264 103 194 q 135 395 103 339 q 224 482 168 451 q 349 513 281 513 q 462 485 410 513 q 549 411 514 457 q 596 308 585 365 l 596 251 q 561 130 594 183 q 472 46 528 76 q 349 15 417 15 m 482 826 l 451 826 l 328 642 l 354 642 l 482 826 "},"ă":{"ha":753,"x_min":75,"x_max":622,"o":"m 346 -8 q 430 4 390 -8 q 503 40 469 17 q 561 93 536 63 q 600 160 586 124 l 596 179 l 596 0 l 622 0 l 622 525 l 601 525 l 594 351 l 597 369 q 499 490 567 443 q 350 536 432 536 q 212 504 274 536 q 113 411 150 472 q 75 263 75 350 q 112 125 75 186 q 210 28 149 64 q 346 -8 271 -8 m 349 15 q 225 49 281 15 q 136 138 169 82 q 103 264 103 194 q 135 395 103 339 q 224 482 168 451 q 349 513 281 513 q 462 485 410 513 q 549 411 514 457 q 596 308 585 365 l 596 251 q 561 130 594 183 q 472 46 528 76 q 349 15 417 15 m 372 642 q 458 670 419 642 q 519 749 496 699 q 543 861 543 799 l 519 861 q 498 764 517 808 q 447 692 479 719 q 372 665 414 665 q 297 692 331 665 q 244 764 264 719 q 222 861 224 808 l 199 861 q 224 749 200 799 q 285 670 247 699 q 372 642 324 642 "},"ắ":{"ha":753,"x_min":75,"x_max":622,"o":"m 346 -8 q 430 4 390 -8 q 503 40 469 17 q 561 93 536 63 q 600 160 586 124 l 596 179 l 596 0 l 622 0 l 622 525 l 601 525 l 594 351 l 597 369 q 499 490 567 443 q 350 536 432 536 q 212 504 274 536 q 113 411 150 472 q 75 263 75 350 q 112 125 75 186 q 210 28 149 64 q 346 -8 271 -8 m 349 15 q 225 49 281 15 q 136 138 169 82 q 103 264 103 194 q 135 395 103 339 q 224 482 168 451 q 349 513 281 513 q 462 485 410 513 q 549 411 514 457 q 596 308 585 365 l 596 251 q 561 130 594 183 q 472 46 528 76 q 349 15 417 15 m 372 642 q 458 670 419 642 q 519 749 496 699 q 543 861 543 799 l 519 861 q 498 764 517 808 q 447 692 479 719 q 372 665 414 665 q 297 692 331 665 q 244 764 264 719 q 222 861 224 808 l 199 861 q 224 749 200 799 q 285 670 247 699 q 372 642 324 642 m 465 1069 l 435 1069 l 311 885 l 338 885 l 465 1069 "},"ặ":{"ha":753,"x_min":75,"x_max":622,"o":"m 346 -8 q 430 4 390 -8 q 503 40 469 17 q 561 93 536 63 q 600 160 586 124 l 596 179 l 596 0 l 622 0 l 622 525 l 601 525 l 594 351 l 597 369 q 499 490 567 443 q 350 536 432 536 q 212 504 274 536 q 113 411 150 472 q 75 263 75 350 q 112 125 75 186 q 210 28 149 64 q 346 -8 271 -8 m 349 15 q 225 49 281 15 q 136 138 169 82 q 103 264 103 194 q 135 395 103 339 q 224 482 168 451 q 349 513 281 513 q 462 485 410 513 q 549 411 514 457 q 596 308 585 365 l 596 251 q 561 130 594 183 q 472 46 528 76 q 349 15 417 15 m 346 -139 q 356 -161 346 -151 q 378 -171 365 -171 q 399 -162 390 -171 q 408 -139 408 -153 q 399 -117 408 -126 q 378 -108 390 -108 q 356 -117 365 -108 q 346 -139 346 -126 m 372 642 q 458 670 419 642 q 519 749 496 699 q 543 861 543 799 l 519 861 q 498 764 517 808 q 447 692 479 719 q 372 665 414 665 q 297 692 331 665 q 244 764 264 719 q 222 861 224 808 l 199 861 q 224 749 200 799 q 285 670 247 699 q 372 642 324 642 "},"ằ":{"ha":753,"x_min":75,"x_max":622,"o":"m 346 -8 q 430 4 390 -8 q 503 40 469 17 q 561 93 536 63 q 600 160 586 124 l 596 179 l 596 0 l 622 0 l 622 525 l 601 525 l 594 351 l 597 369 q 499 490 567 443 q 350 536 432 536 q 212 504 274 536 q 113 411 150 472 q 75 263 75 350 q 112 125 75 186 q 210 28 149 64 q 346 -8 271 -8 m 349 15 q 225 49 281 15 q 136 138 169 82 q 103 264 103 194 q 135 395 103 339 q 224 482 168 451 q 349 513 281 513 q 462 485 410 513 q 549 411 514 457 q 596 308 585 365 l 596 251 q 561 130 594 183 q 472 46 528 76 q 349 15 417 15 m 372 642 q 458 670 419 642 q 519 749 496 699 q 543 861 543 799 l 519 861 q 498 764 517 808 q 447 692 479 719 q 372 665 414 665 q 297 692 331 665 q 244 764 264 719 q 222 861 224 808 l 199 861 q 224 749 200 799 q 285 670 247 699 q 372 642 324 642 m 228 1057 l 356 872 l 382 872 l 258 1057 l 228 1057 "},"ẳ":{"ha":753,"x_min":75,"x_max":622,"o":"m 346 -8 q 430 4 390 -8 q 503 40 469 17 q 561 93 536 63 q 600 160 586 124 l 596 179 l 596 0 l 622 0 l 622 525 l 601 525 l 594 351 l 597 369 q 499 490 567 443 q 350 536 432 536 q 212 504 274 536 q 113 411 150 472 q 75 263 75 350 q 112 125 75 186 q 210 28 149 64 q 346 -8 271 -8 m 349 15 q 225 49 281 15 q 136 138 169 82 q 103 264 103 194 q 135 395 103 339 q 224 482 168 451 q 349 513 281 513 q 462 485 410 513 q 549 411 514 457 q 596 308 585 365 l 596 251 q 561 130 594 183 q 472 46 528 76 q 349 15 417 15 m 372 642 q 458 670 419 642 q 519 749 496 699 q 543 861 543 799 l 519 861 q 498 764 517 808 q 447 692 479 719 q 372 665 414 665 q 297 692 331 665 q 244 764 264 719 q 222 861 224 808 l 199 861 q 224 749 200 799 q 285 670 247 699 q 372 642 324 642 m 363 849 l 376 835 q 436 888 411 863 q 461 950 461 913 q 449 1001 461 982 q 420 1028 438 1019 q 382 1036 403 1036 q 328 1021 351 1036 q 283 972 304 1006 l 299 961 q 338 1002 321 990 q 381 1014 354 1014 q 425 995 411 1014 q 439 949 439 976 q 417 897 439 919 q 363 849 394 875 "},"ẵ":{"ha":753,"x_min":75,"x_max":622,"o":"m 346 -8 q 430 4 390 -8 q 503 40 469 17 q 561 93 536 63 q 600 160 586 124 l 596 179 l 596 0 l 622 0 l 622 525 l 601 525 l 594 351 l 597 369 q 499 490 567 443 q 350 536 432 536 q 212 504 274 536 q 113 411 150 472 q 75 263 75 350 q 112 125 75 186 q 210 28 149 64 q 346 -8 271 -8 m 349 15 q 225 49 281 15 q 136 138 169 82 q 103 264 103 194 q 135 395 103 339 q 224 482 168 451 q 349 513 281 513 q 462 485 410 513 q 549 411 514 457 q 596 308 585 365 l 596 251 q 561 130 594 183 q 472 46 528 76 q 349 15 417 15 m 372 642 q 458 670 419 642 q 519 749 496 699 q 543 861 543 799 l 519 861 q 498 764 517 808 q 447 692 479 719 q 372 665 414 665 q 297 692 331 665 q 244 764 264 719 q 222 861 224 808 l 199 861 q 224 749 200 799 q 285 670 247 699 q 372 642 324 642 m 486 918 q 536 933 514 918 q 572 983 558 949 q 588 1071 586 1017 l 565 1072 q 538 969 561 994 q 488 943 515 943 q 438 960 458 943 q 399 999 417 976 q 356 1043 379 1022 q 293 1064 332 1064 q 245 1048 268 1064 q 206 999 222 1032 q 189 911 190 965 l 211 908 q 228 989 214 961 q 260 1028 242 1017 q 294 1039 278 1039 q 342 1021 322 1039 q 381 982 361 1003 q 424 938 400 958 q 486 918 449 918 "},"â":{"ha":753,"x_min":75,"x_max":622,"o":"m 346 -8 q 430 4 390 -8 q 503 40 469 17 q 561 93 536 63 q 600 160 586 124 l 596 179 l 596 0 l 622 0 l 622 525 l 601 525 l 594 351 l 597 369 q 499 490 567 443 q 350 536 432 536 q 212 504 274 536 q 113 411 150 472 q 75 263 75 350 q 112 125 75 186 q 210 28 149 64 q 346 -8 271 -8 m 349 15 q 225 49 281 15 q 136 138 169 82 q 103 264 103 194 q 135 395 103 339 q 224 482 168 451 q 349 513 281 513 q 462 485 410 513 q 549 411 514 457 q 596 308 585 365 l 596 251 q 561 130 594 183 q 472 46 528 76 q 349 15 417 15 m 538 667 l 567 667 l 381 878 l 379 878 l 194 667 l 224 667 l 390 858 l 372 857 l 538 667 "},"ấ":{"ha":753,"x_min":75,"x_max":668,"o":"m 346 -8 q 430 4 390 -8 q 503 40 469 17 q 561 93 536 63 q 600 160 586 124 l 596 179 l 596 0 l 622 0 l 622 525 l 601 525 l 594 351 l 597 369 q 499 490 567 443 q 350 536 432 536 q 212 504 274 536 q 113 411 150 472 q 75 263 75 350 q 112 125 75 186 q 210 28 149 64 q 346 -8 271 -8 m 349 15 q 225 49 281 15 q 136 138 169 82 q 103 264 103 194 q 135 395 103 339 q 224 482 168 451 q 349 513 281 513 q 462 485 410 513 q 549 411 514 457 q 596 308 585 365 l 596 251 q 561 130 594 183 q 472 46 528 76 q 349 15 417 15 m 532 649 l 561 649 l 375 860 l 374 860 l 189 649 l 218 649 l 385 840 l 367 839 l 532 649 m 668 951 l 638 951 l 514 767 l 540 767 l 668 951 "},"ậ":{"ha":753,"x_min":75,"x_max":622,"o":"m 346 -8 q 430 4 390 -8 q 503 40 469 17 q 561 93 536 63 q 600 160 586 124 l 596 179 l 596 0 l 622 0 l 622 525 l 601 525 l 594 351 l 597 369 q 499 490 567 443 q 350 536 432 536 q 212 504 274 536 q 113 411 150 472 q 75 263 75 350 q 112 125 75 186 q 210 28 149 64 q 346 -8 271 -8 m 349 15 q 225 49 281 15 q 136 138 169 82 q 103 264 103 194 q 135 395 103 339 q 224 482 168 451 q 349 513 281 513 q 462 485 410 513 q 549 411 514 457 q 596 308 585 365 l 596 251 q 561 130 594 183 q 472 46 528 76 q 349 15 417 15 m 346 -139 q 356 -161 346 -151 q 378 -171 365 -171 q 399 -162 390 -171 q 408 -139 408 -153 q 399 -117 408 -126 q 378 -108 390 -108 q 356 -117 365 -108 q 346 -139 346 -126 m 538 667 l 567 667 l 381 878 l 379 878 l 194 667 l 224 667 l 390 858 l 372 857 l 538 667 "},"ầ":{"ha":753,"x_min":64,"x_max":622,"o":"m 346 -8 q 430 4 390 -8 q 503 40 469 17 q 561 93 536 63 q 600 160 586 124 l 596 179 l 596 0 l 622 0 l 622 525 l 601 525 l 594 351 l 597 369 q 499 490 567 443 q 350 536 432 536 q 212 504 274 536 q 113 411 150 472 q 75 263 75 350 q 112 125 75 186 q 210 28 149 64 q 346 -8 271 -8 m 349 15 q 225 49 281 15 q 136 138 169 82 q 103 264 103 194 q 135 395 103 339 q 224 482 168 451 q 349 513 281 513 q 462 485 410 513 q 549 411 514 457 q 596 308 585 365 l 596 251 q 561 130 594 183 q 472 46 528 76 q 349 15 417 15 m 525 639 l 554 639 l 368 850 l 367 850 l 182 639 l 211 639 l 378 831 l 360 829 l 525 639 m 64 964 l 192 779 l 218 779 l 94 964 l 64 964 "},"ẩ":{"ha":753,"x_min":75,"x_max":622,"o":"m 346 -8 q 430 4 390 -8 q 503 40 469 17 q 561 93 536 63 q 600 160 586 124 l 596 179 l 596 0 l 622 0 l 622 525 l 601 525 l 594 351 l 597 369 q 499 490 567 443 q 350 536 432 536 q 212 504 274 536 q 113 411 150 472 q 75 263 75 350 q 112 125 75 186 q 210 28 149 64 q 346 -8 271 -8 m 349 15 q 225 49 281 15 q 136 138 169 82 q 103 264 103 194 q 135 395 103 339 q 224 482 168 451 q 349 513 281 513 q 462 485 410 513 q 549 411 514 457 q 596 308 585 365 l 596 251 q 561 130 594 183 q 472 46 528 76 q 349 15 417 15 m 526 650 l 556 650 l 369 861 l 368 861 l 183 650 l 213 650 l 379 842 l 361 840 l 526 650 m 518 774 l 532 760 q 592 813 567 788 q 617 875 617 838 q 605 926 617 907 q 576 953 593 944 q 538 961 558 961 q 483 946 507 961 q 439 897 460 931 l 454 886 q 493 927 476 915 q 536 939 510 939 q 581 920 567 939 q 594 874 594 901 q 572 822 594 844 q 518 774 550 800 "},"ẫ":{"ha":753,"x_min":75,"x_max":622,"o":"m 346 -8 q 430 4 390 -8 q 503 40 469 17 q 561 93 536 63 q 600 160 586 124 l 596 179 l 596 0 l 622 0 l 622 525 l 601 525 l 594 351 l 597 369 q 499 490 567 443 q 350 536 432 536 q 212 504 274 536 q 113 411 150 472 q 75 263 75 350 q 112 125 75 186 q 210 28 149 64 q 346 -8 271 -8 m 349 15 q 225 49 281 15 q 136 138 169 82 q 103 264 103 194 q 135 395 103 339 q 224 482 168 451 q 349 513 281 513 q 462 485 410 513 q 549 411 514 457 q 596 308 585 365 l 596 251 q 561 130 594 183 q 472 46 528 76 q 349 15 417 15 m 533 624 l 563 624 l 376 835 l 375 835 l 190 624 l 219 624 l 386 815 l 368 814 l 533 624 m 472 860 q 522 875 500 860 q 558 924 544 890 q 574 1013 572 958 l 551 1014 q 524 910 547 936 q 474 885 501 885 q 424 901 444 885 q 385 940 403 918 q 342 985 365 964 q 279 1006 318 1006 q 231 990 254 1006 q 192 940 208 974 q 175 853 176 907 l 197 850 q 214 931 200 903 q 246 969 228 958 q 281 981 264 981 q 328 963 308 981 q 367 924 347 944 q 410 880 386 900 q 472 860 435 860 "},"ȁ":{"ha":753,"x_min":75,"x_max":622,"o":"m 346 -8 q 430 4 390 -8 q 503 40 469 17 q 561 93 536 63 q 600 160 586 124 l 596 179 l 596 0 l 622 0 l 622 525 l 601 525 l 594 351 l 597 369 q 499 490 567 443 q 350 536 432 536 q 212 504 274 536 q 113 411 150 472 q 75 263 75 350 q 112 125 75 186 q 210 28 149 64 q 346 -8 271 -8 m 349 15 q 225 49 281 15 q 136 138 169 82 q 103 264 103 194 q 135 395 103 339 q 224 482 168 451 q 349 513 281 513 q 462 485 410 513 q 549 411 514 457 q 596 308 585 365 l 596 251 q 561 130 594 183 q 472 46 528 76 q 349 15 417 15 m 178 853 l 306 668 l 332 668 l 208 853 l 178 853 m 313 853 l 440 668 l 467 668 l 343 853 l 313 853 "},"ä":{"ha":753,"x_min":75,"x_max":622,"o":"m 346 -8 q 430 4 390 -8 q 503 40 469 17 q 561 93 536 63 q 600 160 586 124 l 596 179 l 596 0 l 622 0 l 622 525 l 601 525 l 594 351 l 597 369 q 499 490 567 443 q 350 536 432 536 q 212 504 274 536 q 113 411 150 472 q 75 263 75 350 q 112 125 75 186 q 210 28 149 64 q 346 -8 271 -8 m 349 15 q 225 49 281 15 q 136 138 169 82 q 103 264 103 194 q 135 395 103 339 q 224 482 168 451 q 349 513 281 513 q 462 485 410 513 q 549 411 514 457 q 596 308 585 365 l 596 251 q 561 130 594 183 q 472 46 528 76 q 349 15 417 15 m 232 699 l 232 699 q 241 677 232 686 q 263 668 250 668 q 284 677 275 668 q 293 699 293 686 q 284 720 293 711 q 263 729 275 729 q 241 720 250 729 q 232 699 232 711 m 463 699 l 463 699 q 472 677 463 686 q 494 668 481 668 q 515 677 506 668 q 525 699 525 686 q 515 720 525 711 q 494 729 506 729 q 472 720 481 729 q 463 699 463 711 "},"ạ":{"ha":753,"x_min":75,"x_max":622,"o":"m 346 -8 q 430 4 390 -8 q 503 40 469 17 q 561 93 536 63 q 600 160 586 124 l 596 179 l 596 0 l 622 0 l 622 525 l 601 525 l 594 351 l 597 369 q 499 490 567 443 q 350 536 432 536 q 212 504 274 536 q 113 411 150 472 q 75 263 75 350 q 112 125 75 186 q 210 28 149 64 q 346 -8 271 -8 m 349 15 q 225 49 281 15 q 136 138 169 82 q 103 264 103 194 q 135 395 103 339 q 224 482 168 451 q 349 513 281 513 q 462 485 410 513 q 549 411 514 457 q 596 308 585 365 l 596 251 q 561 130 594 183 q 472 46 528 76 q 349 15 417 15 m 346 -139 q 356 -161 346 -151 q 378 -171 365 -171 q 399 -162 390 -171 q 408 -139 408 -153 q 399 -117 408 -126 q 378 -108 390 -108 q 356 -117 365 -108 q 346 -139 346 -126 "},"à":{"ha":753,"x_min":75,"x_max":622,"o":"m 346 -8 q 430 4 390 -8 q 503 40 469 17 q 561 93 536 63 q 600 160 586 124 l 596 179 l 596 0 l 622 0 l 622 525 l 601 525 l 594 351 l 597 369 q 499 490 567 443 q 350 536 432 536 q 212 504 274 536 q 113 411 150 472 q 75 263 75 350 q 112 125 75 186 q 210 28 149 64 q 346 -8 271 -8 m 349 15 q 225 49 281 15 q 136 138 169 82 q 103 264 103 194 q 135 395 103 339 q 224 482 168 451 q 349 513 281 513 q 462 485 410 513 q 549 411 514 457 q 596 308 585 365 l 596 251 q 561 130 594 183 q 472 46 528 76 q 349 15 417 15 m 244 853 l 372 668 l 399 668 l 275 853 l 244 853 "},"ả":{"ha":753,"x_min":75,"x_max":622,"o":"m 346 -8 q 430 4 390 -8 q 503 40 469 17 q 561 93 536 63 q 600 160 586 124 l 596 179 l 596 0 l 622 0 l 622 525 l 601 525 l 594 351 l 597 369 q 499 490 567 443 q 350 536 432 536 q 212 504 274 536 q 113 411 150 472 q 75 263 75 350 q 112 125 75 186 q 210 28 149 64 q 346 -8 271 -8 m 349 15 q 225 49 281 15 q 136 138 169 82 q 103 264 103 194 q 135 395 103 339 q 224 482 168 451 q 349 513 281 513 q 462 485 410 513 q 549 411 514 457 q 596 308 585 365 l 596 251 q 561 130 594 183 q 472 46 528 76 q 349 15 417 15 m 378 613 l 392 599 q 451 651 426 626 q 476 714 476 676 q 465 765 476 746 q 435 792 453 783 q 397 800 418 800 q 343 785 367 800 q 299 736 319 769 l 314 725 q 353 766 336 754 q 396 778 369 778 q 440 759 426 778 q 454 713 454 740 q 432 661 454 683 q 378 613 410 639 "},"ȃ":{"ha":753,"x_min":75,"x_max":622,"o":"m 346 -8 q 430 4 390 -8 q 503 40 469 17 q 561 93 536 63 q 600 160 586 124 l 596 179 l 596 0 l 622 0 l 622 525 l 601 525 l 594 351 l 597 369 q 499 490 567 443 q 350 536 432 536 q 212 504 274 536 q 113 411 150 472 q 75 263 75 350 q 112 125 75 186 q 210 28 149 64 q 346 -8 271 -8 m 349 15 q 225 49 281 15 q 136 138 169 82 q 103 264 103 194 q 135 395 103 339 q 224 482 168 451 q 349 513 281 513 q 462 485 410 513 q 549 411 514 457 q 596 308 585 365 l 596 251 q 561 130 594 183 q 472 46 528 76 q 349 15 417 15 m 383 833 q 298 805 336 833 q 237 726 260 776 q 213 614 214 676 l 238 614 q 258 711 239 667 q 309 783 276 756 q 383 810 342 810 q 458 783 425 810 q 512 711 492 756 q 535 614 532 667 l 557 614 q 532 726 556 676 q 470 805 508 776 q 383 833 432 833 "},"ā":{"ha":753,"x_min":75,"x_max":622,"o":"m 346 -8 q 430 4 390 -8 q 503 40 469 17 q 561 93 536 63 q 600 160 586 124 l 596 179 l 596 0 l 622 0 l 622 525 l 601 525 l 594 351 l 597 369 q 499 490 567 443 q 350 536 432 536 q 212 504 274 536 q 113 411 150 472 q 75 263 75 350 q 112 125 75 186 q 210 28 149 64 q 346 -8 271 -8 m 349 15 q 225 49 281 15 q 136 138 169 82 q 103 264 103 194 q 135 395 103 339 q 224 482 168 451 q 349 513 281 513 q 462 485 410 513 q 549 411 514 457 q 596 308 585 365 l 596 251 q 561 130 594 183 q 472 46 528 76 q 349 15 417 15 m 219 707 l 219 683 l 540 683 l 540 707 l 219 707 "},"ą":{"ha":754,"x_min":76,"x_max":676,"o":"m 346 -8 q 453 14 404 -8 q 540 74 503 36 q 597 160 578 111 l 596 175 l 596 0 l 604 1 l 600 14 q 509 -58 549 -14 q 469 -154 469 -103 q 500 -232 469 -203 q 571 -261 531 -261 q 633 -239 606 -261 q 676 -186 661 -217 l 658 -174 q 622 -218 643 -200 q 572 -236 600 -236 q 520 -214 543 -236 q 497 -153 497 -192 q 531 -73 497 -112 q 624 1 564 -33 l 624 525 l 601 525 l 596 369 q 539 456 576 418 q 452 515 501 493 q 346 536 403 536 q 211 504 272 536 q 113 411 150 472 q 76 263 76 350 q 113 125 76 186 q 210 28 149 64 q 346 -8 271 -8 m 349 15 q 225 49 281 15 q 136 138 169 82 q 103 264 103 194 q 136 395 103 339 q 225 482 169 451 q 349 513 281 513 q 462 485 410 513 q 549 411 514 457 q 596 308 585 365 l 596 251 q 562 130 596 183 q 472 46 528 76 q 349 15 417 15 "},"å":{"ha":753,"x_min":75,"x_max":622,"o":"m 346 -8 q 430 4 390 -8 q 503 40 469 17 q 561 93 536 63 q 600 160 586 124 l 596 179 l 596 0 l 622 0 l 622 525 l 601 525 l 594 351 l 597 369 q 499 490 567 443 q 350 536 432 536 q 212 504 274 536 q 113 411 150 472 q 75 263 75 350 q 112 125 75 186 q 210 28 149 64 q 346 -8 271 -8 m 349 15 q 225 49 281 15 q 136 138 169 82 q 103 264 103 194 q 135 395 103 339 q 224 482 168 451 q 349 513 281 513 q 462 485 410 513 q 549 411 514 457 q 596 308 585 365 l 596 251 q 561 130 594 183 q 472 46 528 76 q 349 15 417 15 m 288 699 q 313 635 288 660 q 378 610 339 610 q 442 635 417 610 q 468 699 468 660 q 442 763 468 738 q 378 789 417 789 q 313 763 339 789 q 288 699 288 738 m 310 699 q 330 747 310 726 q 378 767 350 767 q 424 747 404 767 q 444 699 444 726 q 424 652 444 672 q 378 632 404 632 q 330 652 350 632 q 310 699 310 672 "},"ǻ":{"ha":753,"x_min":75,"x_max":622,"o":"m 346 -8 q 430 4 390 -8 q 503 40 469 17 q 561 93 536 63 q 600 160 586 124 l 596 179 l 596 0 l 622 0 l 622 525 l 601 525 l 594 351 l 597 369 q 499 490 567 443 q 350 536 432 536 q 212 504 274 536 q 113 411 150 472 q 75 263 75 350 q 112 125 75 186 q 210 28 149 64 q 346 -8 271 -8 m 349 15 q 225 49 281 15 q 136 138 169 82 q 103 264 103 194 q 135 395 103 339 q 224 482 168 451 q 349 513 281 513 q 462 485 410 513 q 549 411 514 457 q 596 308 585 365 l 596 251 q 561 130 594 183 q 472 46 528 76 q 349 15 417 15 m 288 699 q 313 635 288 660 q 378 610 339 610 q 442 635 417 610 q 468 699 468 660 q 442 763 468 738 q 378 789 417 789 q 313 763 339 789 q 288 699 288 738 m 310 699 q 330 747 310 726 q 378 767 350 767 q 424 747 404 767 q 444 699 444 726 q 424 652 444 672 q 378 632 404 632 q 330 652 350 632 q 310 699 310 672 m 482 1089 l 451 1089 l 328 904 l 354 904 l 482 1089 "},"ã":{"ha":753,"x_min":75,"x_max":622,"o":"m 346 -8 q 430 4 390 -8 q 503 40 469 17 q 561 93 536 63 q 600 160 586 124 l 596 179 l 596 0 l 622 0 l 622 525 l 601 525 l 594 351 l 597 369 q 499 490 567 443 q 350 536 432 536 q 212 504 274 536 q 113 411 150 472 q 75 263 75 350 q 112 125 75 186 q 210 28 149 64 q 346 -8 271 -8 m 349 15 q 225 49 281 15 q 136 138 169 82 q 103 264 103 194 q 135 395 103 339 q 224 482 168 451 q 349 513 281 513 q 462 485 410 513 q 549 411 514 457 q 596 308 585 365 l 596 251 q 561 130 594 183 q 472 46 528 76 q 349 15 417 15 m 476 624 q 526 639 504 624 q 563 688 549 654 q 578 776 576 722 l 556 778 q 528 674 551 700 q 478 649 506 649 q 428 665 449 649 q 389 704 407 682 q 346 749 369 728 q 283 769 322 769 q 235 753 258 769 q 197 704 213 738 q 179 617 181 671 l 201 614 q 218 694 204 667 q 250 733 232 722 q 285 744 268 744 q 332 726 313 744 q 371 688 351 708 q 415 644 390 664 q 476 624 439 624 "},"æ":{"ha":1054,"x_min":75,"x_max":993,"o":"m 281 -15 q 344 -10 301 -15 q 432 14 386 -4 q 507 69 478 32 l 506 221 l 481 254 l 481 78 q 422 37 458 51 q 347 17 385 22 q 283 11 310 11 q 147 49 189 11 q 106 142 106 88 q 131 218 106 189 q 192 261 156 247 q 264 275 229 275 q 390 242 331 275 q 496 151 449 210 l 504 168 q 401 265 467 229 q 261 300 335 300 q 172 282 214 300 q 102 228 129 264 q 75 138 75 192 q 97 65 75 100 q 163 8 118 31 q 281 -15 208 -15 m 482 256 l 510 339 l 510 374 q 493 459 510 422 q 439 515 476 496 q 336 535 401 535 q 208 508 264 535 q 110 438 151 481 l 126 415 q 230 489 179 469 q 335 508 281 508 q 408 497 375 508 q 462 456 442 486 q 482 365 482 425 l 482 256 m 754 -8 q 856 11 808 -8 q 942 63 904 31 l 924 82 q 847 33 890 51 q 754 15 803 15 q 625 51 681 15 q 539 143 569 86 q 508 264 508 200 q 541 389 508 332 q 629 479 574 446 q 754 513 685 513 q 880 468 826 513 q 963 363 933 424 l 971 376 l 508 190 l 517 167 l 993 360 q 902 487 963 436 q 754 538 842 538 q 616 501 678 538 q 518 401 554 464 q 482 264 482 339 q 518 126 482 188 q 616 28 554 64 q 754 -8 678 -8 "},"ǽ":{"ha":1054,"x_min":75,"x_max":993,"o":"m 281 -15 q 344 -10 301 -15 q 432 14 386 -4 q 507 69 478 32 l 506 221 l 481 254 l 481 78 q 422 37 458 51 q 347 17 385 22 q 283 11 310 11 q 147 49 189 11 q 106 142 106 88 q 131 218 106 189 q 192 261 156 247 q 264 275 229 275 q 390 242 331 275 q 496 151 449 210 l 504 168 q 401 265 467 229 q 261 300 335 300 q 172 282 214 300 q 102 228 129 264 q 75 138 75 192 q 97 65 75 100 q 163 8 118 31 q 281 -15 208 -15 m 482 256 l 510 339 l 510 374 q 493 459 510 422 q 439 515 476 496 q 336 535 401 535 q 208 508 264 535 q 110 438 151 481 l 126 415 q 230 489 179 469 q 335 508 281 508 q 408 497 375 508 q 462 456 442 486 q 482 365 482 425 l 482 256 m 754 -8 q 856 11 808 -8 q 942 63 904 31 l 924 82 q 847 33 890 51 q 754 15 803 15 q 625 51 681 15 q 539 143 569 86 q 508 264 508 200 q 541 389 508 332 q 629 479 574 446 q 754 513 685 513 q 880 468 826 513 q 963 363 933 424 l 971 376 l 508 190 l 517 167 l 993 360 q 902 487 963 436 q 754 538 842 538 q 616 501 678 538 q 518 401 554 464 q 482 264 482 339 q 518 126 482 188 q 616 28 554 64 q 754 -8 678 -8 m 631 825 l 600 825 l 476 640 l 503 640 l 631 825 "},"b":{"ha":754,"x_min":131,"x_max":679,"o":"m 407 -8 q 542 22 481 -8 q 642 114 604 53 q 679 264 679 175 q 642 402 679 340 q 544 500 606 464 q 408 536 483 536 q 255 490 324 536 q 157 371 186 444 l 158 347 l 158 1044 l 131 1044 l 131 0 l 158 0 l 158 196 l 153 165 q 251 42 182 92 q 407 -8 321 -8 m 406 15 q 281 48 338 15 q 192 132 225 81 q 158 242 158 183 l 158 307 q 202 412 168 365 q 289 485 236 458 q 406 513 342 513 q 535 478 481 513 q 621 387 590 443 q 651 264 651 331 q 622 135 651 192 q 538 47 593 79 q 406 15 482 15 "},"c":{"ha":583,"x_min":75,"x_max":521,"o":"m 521 51 l 504 69 q 433 30 472 44 q 349 15 393 15 q 224 49 281 15 q 135 138 168 82 q 103 263 103 194 q 135 388 103 332 q 224 478 168 444 q 349 513 279 513 q 433 497 393 513 q 506 456 474 481 l 521 475 q 442 520 486 504 q 347 536 397 536 q 210 499 272 536 q 112 401 149 463 q 75 263 75 339 q 112 125 75 186 q 210 28 149 64 q 349 -8 272 -8 q 441 8 397 -8 q 521 51 485 24 "},"ć":{"ha":583,"x_min":75,"x_max":521,"o":"m 521 51 l 504 69 q 433 30 472 44 q 349 15 393 15 q 224 49 281 15 q 135 138 168 82 q 103 263 103 194 q 135 388 103 332 q 224 478 168 444 q 349 513 279 513 q 433 497 393 513 q 506 456 474 481 l 521 475 q 442 520 486 504 q 347 536 397 536 q 210 499 272 536 q 112 401 149 463 q 75 263 75 339 q 112 125 75 186 q 210 28 149 64 q 349 -8 272 -8 q 441 8 397 -8 q 521 51 485 24 m 450 825 l 419 825 l 296 640 l 322 640 l 450 825 "},"č":{"ha":583,"x_min":75,"x_max":533,"o":"m 521 51 l 504 69 q 433 30 472 44 q 349 15 393 15 q 224 49 281 15 q 135 138 168 82 q 103 263 103 194 q 135 388 103 332 q 224 478 168 444 q 349 513 279 513 q 433 497 393 513 q 506 456 474 481 l 521 475 q 442 520 486 504 q 347 536 397 536 q 210 499 272 536 q 112 401 149 463 q 75 263 75 339 q 112 125 75 186 q 210 28 149 64 q 349 -8 272 -8 q 441 8 397 -8 q 521 51 485 24 m 190 806 l 161 806 l 347 596 l 349 596 l 533 806 l 504 806 l 338 614 l 356 615 l 190 806 "},"ç":{"ha":583,"x_min":75,"x_max":521,"o":"m 521 51 l 504 69 q 433 30 472 44 q 349 15 393 15 q 224 49 281 15 q 135 138 168 82 q 103 263 103 194 q 135 388 103 332 q 224 478 168 444 q 349 513 279 513 q 433 497 393 513 q 506 456 474 481 l 521 475 q 442 520 486 504 q 347 536 397 536 q 210 499 272 536 q 112 401 149 463 q 75 263 75 339 q 112 125 75 186 q 210 28 149 64 q 349 -8 272 -8 q 441 8 397 -8 q 521 51 485 24 m 203 -250 l 189 -271 q 242 -298 210 -287 q 313 -308 274 -308 q 388 -297 354 -308 q 442 -261 422 -285 q 463 -201 463 -237 q 426 -118 463 -147 q 321 -89 389 -89 q 256 -97 290 -89 q 207 -115 222 -106 l 228 -121 l 322 -4 l 300 8 l 199 -115 l 218 -133 q 265 -119 235 -125 q 319 -112 296 -112 q 406 -138 378 -112 q 433 -201 433 -164 q 400 -265 433 -243 q 310 -286 367 -286 q 246 -276 272 -286 q 203 -250 219 -265 "},"ĉ":{"ha":583,"x_min":75,"x_max":535,"o":"m 521 51 l 504 69 q 433 30 472 44 q 349 15 393 15 q 224 49 281 15 q 135 138 168 82 q 103 263 103 194 q 135 388 103 332 q 224 478 168 444 q 349 513 279 513 q 433 497 393 513 q 506 456 474 481 l 521 475 q 442 520 486 504 q 347 536 397 536 q 210 499 272 536 q 112 401 149 463 q 75 263 75 339 q 112 125 75 186 q 210 28 149 64 q 349 -8 272 -8 q 441 8 397 -8 q 521 51 485 24 m 506 667 l 535 667 l 349 878 l 347 878 l 163 667 l 192 667 l 358 858 l 340 857 l 506 667 "},"ċ":{"ha":583,"x_min":75,"x_max":521,"o":"m 521 51 l 504 69 q 433 30 472 44 q 349 15 393 15 q 224 49 281 15 q 135 138 168 82 q 103 263 103 194 q 135 388 103 332 q 224 478 168 444 q 349 513 279 513 q 433 497 393 513 q 506 456 474 481 l 521 475 q 442 520 486 504 q 347 536 397 536 q 210 499 272 536 q 112 401 149 463 q 75 263 75 339 q 112 125 75 186 q 210 28 149 64 q 349 -8 272 -8 q 441 8 397 -8 q 521 51 485 24 m 315 692 q 324 670 315 679 q 347 661 333 661 q 369 670 360 661 q 378 692 378 679 q 369 713 378 704 q 347 722 360 722 q 324 713 333 722 q 315 692 315 704 "},"d":{"ha":754,"x_min":75,"x_max":624,"o":"m 346 -8 q 501 38 432 -8 q 600 158 569 85 l 596 181 l 596 0 l 624 0 l 624 1044 l 596 1044 l 596 347 l 601 364 q 501 487 571 438 q 347 536 431 536 q 210 502 272 536 q 112 407 149 468 q 75 264 75 346 q 111 126 75 188 q 209 28 147 64 q 346 -8 271 -8 m 349 15 q 225 49 281 15 q 136 139 169 82 q 103 264 103 196 q 135 394 103 338 q 224 481 168 450 q 349 513 279 513 q 463 484 410 513 q 551 408 515 456 q 596 301 586 360 l 596 256 q 563 133 596 188 q 473 47 529 79 q 349 15 417 15 "},"ð":{"ha":699,"x_min":75,"x_max":624,"o":"m 347 -8 q 453 13 403 -8 q 541 74 503 35 q 601 163 579 113 q 624 271 624 213 q 587 475 624 368 q 489 683 550 582 q 352 870 428 785 q 199 1013 276 956 l 185 994 q 320 869 253 946 q 445 703 388 793 q 542 522 503 613 q 590 350 581 431 l 594 375 q 556 435 579 406 q 500 488 532 464 q 429 524 468 511 q 346 538 390 538 q 210 501 271 538 q 112 401 149 464 q 75 264 75 339 q 112 124 75 185 q 210 27 149 63 q 347 -8 272 -8 m 349 15 q 224 49 281 15 q 135 138 168 82 q 103 264 103 194 q 135 383 103 326 q 222 476 167 440 q 349 513 278 513 q 472 478 417 513 q 561 388 528 444 q 594 264 594 332 q 561 138 594 194 q 472 49 528 82 q 349 15 417 15 m 442 953 l 428 968 l 193 815 l 207 799 l 442 953 "},"ď":{"ha":860,"x_min":75,"x_max":839,"o":"m 346 -8 q 501 38 432 -8 q 600 158 569 85 l 596 181 l 596 0 l 624 0 l 624 1044 l 596 1044 l 596 347 l 601 364 q 501 487 571 438 q 347 536 431 536 q 210 502 272 536 q 112 407 149 468 q 75 264 75 346 q 111 126 75 188 q 209 28 147 64 q 346 -8 271 -8 m 349 15 q 225 49 281 15 q 136 139 169 82 q 103 264 103 196 q 135 394 103 338 q 224 481 168 450 q 349 513 279 513 q 463 484 410 513 q 551 408 515 456 q 596 301 586 360 l 596 256 q 563 133 596 188 q 473 47 529 79 q 349 15 417 15 m 765 799 l 765 799 q 810 853 793 822 q 833 920 828 885 q 832 993 839 956 l 800 983 q 795 893 808 935 q 753 824 782 851 l 765 799 "},"đ":{"ha":754,"x_min":75,"x_max":768,"o":"m 346 -8 q 501 38 432 -8 q 600 158 569 85 l 596 181 l 596 0 l 624 0 l 624 1044 l 596 1044 l 596 347 l 601 364 q 501 487 571 438 q 347 536 431 536 q 210 502 272 536 q 112 407 149 468 q 75 264 75 346 q 111 126 75 188 q 209 28 147 64 q 346 -8 271 -8 m 349 15 q 225 49 281 15 q 136 139 169 82 q 103 264 103 196 q 135 394 103 338 q 224 481 168 450 q 349 513 279 513 q 463 484 410 513 q 551 408 515 456 q 596 301 586 360 l 596 256 q 563 133 596 188 q 473 47 529 79 q 349 15 417 15 m 446 882 l 446 856 l 768 856 l 768 882 l 446 882 "},"ǳ":{"ha":1265,"x_min":75,"x_max":1215,"o":"m 346 -8 q 501 38 432 -8 q 600 158 569 85 l 596 181 l 596 0 l 624 0 l 624 1044 l 596 1044 l 596 347 l 601 364 q 501 487 571 438 q 347 536 431 536 q 210 502 272 536 q 112 407 149 468 q 75 264 75 346 q 111 126 75 188 q 209 28 147 64 q 346 -8 271 -8 m 349 15 q 225 49 281 15 q 136 139 169 82 q 103 264 103 196 q 135 394 103 338 q 224 481 168 450 q 349 513 279 513 q 463 484 410 513 q 551 408 515 456 q 596 301 586 360 l 596 256 q 563 133 596 188 q 473 47 529 79 q 349 15 417 15 m 875 500 l 1181 500 l 1172 508 l 811 0 l 1208 0 l 1208 25 l 850 25 l 857 18 l 1215 525 l 874 525 q 839 534 850 525 q 828 557 828 543 l 828 574 l 804 574 l 804 565 q 823 512 804 524 q 875 500 842 500 "},"ǆ":{"ha":1265,"x_min":75,"x_max":1215,"o":"m 346 -8 q 501 38 432 -8 q 600 158 569 85 l 596 181 l 596 0 l 624 0 l 624 1044 l 596 1044 l 596 347 l 601 364 q 501 487 571 438 q 347 536 431 536 q 210 502 272 536 q 112 407 149 468 q 75 264 75 346 q 111 126 75 188 q 209 28 147 64 q 346 -8 271 -8 m 349 15 q 225 49 281 15 q 136 139 169 82 q 103 264 103 196 q 135 394 103 338 q 224 481 168 450 q 349 513 279 513 q 463 484 410 513 q 551 408 515 456 q 596 301 586 360 l 596 256 q 563 133 596 188 q 473 47 529 79 q 349 15 417 15 m 875 500 l 1181 500 l 1172 508 l 811 0 l 1208 0 l 1208 25 l 850 25 l 857 18 l 1215 525 l 874 525 q 839 534 850 525 q 828 557 828 543 l 828 574 l 804 574 l 804 565 q 823 512 804 524 q 875 500 842 500 m 865 804 l 836 804 l 1022 594 l 1024 594 l 1208 804 l 1179 804 l 1013 613 l 1031 614 l 865 804 "},"e":{"ha":649,"x_min":75,"x_max":588,"o":"m 349 -8 q 451 11 403 -8 q 536 63 499 31 l 518 82 q 441 33 485 51 q 349 15 397 15 q 219 51 274 15 q 133 143 164 86 q 103 264 103 200 q 135 389 103 332 q 224 479 168 446 q 347 513 279 513 q 474 468 421 513 q 557 363 528 424 l 564 376 l 103 190 l 111 167 l 588 360 q 497 487 557 436 q 349 538 436 538 q 210 501 272 538 q 112 401 149 464 q 75 264 75 339 q 112 126 75 188 q 210 28 149 64 q 349 -8 272 -8 "},"é":{"ha":649,"x_min":75,"x_max":588,"o":"m 349 -8 q 451 11 403 -8 q 536 63 499 31 l 518 82 q 441 33 485 51 q 349 15 397 15 q 219 51 274 15 q 133 143 164 86 q 103 264 103 200 q 135 389 103 332 q 224 479 168 446 q 347 513 279 513 q 474 468 421 513 q 557 363 528 424 l 564 376 l 103 190 l 111 167 l 588 360 q 497 487 557 436 q 349 538 436 538 q 210 501 272 538 q 112 401 149 464 q 75 264 75 339 q 112 126 75 188 q 210 28 149 64 q 349 -8 272 -8 m 429 826 l 399 826 l 275 642 l 301 642 l 429 826 "},"ĕ":{"ha":649,"x_min":75,"x_max":588,"o":"m 349 -8 q 451 11 403 -8 q 536 63 499 31 l 518 82 q 441 33 485 51 q 349 15 397 15 q 219 51 274 15 q 133 143 164 86 q 103 264 103 200 q 135 389 103 332 q 224 479 168 446 q 347 513 279 513 q 474 468 421 513 q 557 363 528 424 l 564 376 l 103 190 l 111 167 l 588 360 q 497 487 557 436 q 349 538 436 538 q 210 501 272 538 q 112 401 149 464 q 75 264 75 339 q 112 126 75 188 q 210 28 149 64 q 349 -8 272 -8 m 319 642 q 405 670 367 642 q 467 749 443 699 q 490 861 490 799 l 467 861 q 445 764 464 808 q 394 692 426 719 q 319 665 361 665 q 244 692 278 665 q 191 764 211 719 q 169 861 171 808 l 146 861 q 171 749 147 799 q 233 670 194 699 q 319 642 271 642 "},"ě":{"ha":649,"x_min":75,"x_max":588,"o":"m 349 -8 q 451 11 403 -8 q 536 63 499 31 l 518 82 q 441 33 485 51 q 349 15 397 15 q 219 51 274 15 q 133 143 164 86 q 103 264 103 200 q 135 389 103 332 q 224 479 168 446 q 347 513 279 513 q 474 468 421 513 q 557 363 528 424 l 564 376 l 103 190 l 111 167 l 588 360 q 497 487 557 436 q 349 538 436 538 q 210 501 272 538 q 112 401 149 464 q 75 264 75 339 q 112 126 75 188 q 210 28 149 64 q 349 -8 272 -8 m 169 806 l 140 806 l 326 596 l 328 596 l 513 806 l 483 806 l 317 614 l 335 615 l 169 806 "},"ê":{"ha":649,"x_min":75,"x_max":588,"o":"m 349 -8 q 451 11 403 -8 q 536 63 499 31 l 518 82 q 441 33 485 51 q 349 15 397 15 q 219 51 274 15 q 133 143 164 86 q 103 264 103 200 q 135 389 103 332 q 224 479 168 446 q 347 513 279 513 q 474 468 421 513 q 557 363 528 424 l 564 376 l 103 190 l 111 167 l 588 360 q 497 487 557 436 q 349 538 436 538 q 210 501 272 538 q 112 401 149 464 q 75 264 75 339 q 112 126 75 188 q 210 28 149 64 q 349 -8 272 -8 m 485 667 l 514 667 l 328 878 l 326 878 l 142 667 l 171 667 l 338 858 l 319 857 l 485 667 "},"ế":{"ha":649,"x_min":75,"x_max":614,"o":"m 349 -8 q 451 11 403 -8 q 536 63 499 31 l 518 82 q 441 33 485 51 q 349 15 397 15 q 219 51 274 15 q 133 143 164 86 q 103 264 103 200 q 135 389 103 332 q 224 479 168 446 q 347 513 279 513 q 474 468 421 513 q 557 363 528 424 l 564 376 l 103 190 l 111 167 l 588 360 q 497 487 557 436 q 349 538 436 538 q 210 501 272 538 q 112 401 149 464 q 75 264 75 339 q 112 126 75 188 q 210 28 149 64 q 349 -8 272 -8 m 478 649 l 507 649 l 321 860 l 319 860 l 135 649 l 164 649 l 331 840 l 313 839 l 478 649 m 614 951 l 583 951 l 460 767 l 486 767 l 614 951 "},"ệ":{"ha":649,"x_min":75,"x_max":588,"o":"m 349 -8 q 451 11 403 -8 q 536 63 499 31 l 518 82 q 441 33 485 51 q 349 15 397 15 q 219 51 274 15 q 133 143 164 86 q 103 264 103 200 q 135 389 103 332 q 224 479 168 446 q 347 513 279 513 q 474 468 421 513 q 557 363 528 424 l 564 376 l 103 190 l 111 167 l 588 360 q 497 487 557 436 q 349 538 436 538 q 210 501 272 538 q 112 401 149 464 q 75 264 75 339 q 112 126 75 188 q 210 28 149 64 q 349 -8 272 -8 m 293 -139 q 303 -161 293 -151 q 325 -171 313 -171 q 347 -162 338 -171 q 356 -139 356 -153 q 347 -117 356 -126 q 325 -108 338 -108 q 303 -117 313 -108 q 293 -139 293 -126 m 485 667 l 514 667 l 328 878 l 326 878 l 142 667 l 171 667 l 338 858 l 319 857 l 485 667 "},"ề":{"ha":649,"x_min":11,"x_max":588,"o":"m 349 -8 q 451 11 403 -8 q 536 63 499 31 l 518 82 q 441 33 485 51 q 349 15 397 15 q 219 51 274 15 q 133 143 164 86 q 103 264 103 200 q 135 389 103 332 q 224 479 168 446 q 347 513 279 513 q 474 468 421 513 q 557 363 528 424 l 564 376 l 103 190 l 111 167 l 588 360 q 497 487 557 436 q 349 538 436 538 q 210 501 272 538 q 112 401 149 464 q 75 264 75 339 q 112 126 75 188 q 210 28 149 64 q 349 -8 272 -8 m 472 639 l 501 639 l 315 850 l 314 850 l 129 639 l 158 639 l 325 831 l 307 829 l 472 639 m 11 964 l 139 779 l 165 779 l 42 964 l 11 964 "},"ể":{"ha":649,"x_min":75,"x_max":588,"o":"m 349 -8 q 451 11 403 -8 q 536 63 499 31 l 518 82 q 441 33 485 51 q 349 15 397 15 q 219 51 274 15 q 133 143 164 86 q 103 264 103 200 q 135 389 103 332 q 224 479 168 446 q 347 513 279 513 q 474 468 421 513 q 557 363 528 424 l 564 376 l 103 190 l 111 167 l 588 360 q 497 487 557 436 q 349 538 436 538 q 210 501 272 538 q 112 401 149 464 q 75 264 75 339 q 112 126 75 188 q 210 28 149 64 q 349 -8 272 -8 m 474 650 l 503 650 l 317 861 l 315 861 l 131 650 l 160 650 l 326 842 l 308 840 l 474 650 m 465 774 l 479 760 q 539 813 514 788 q 564 875 564 838 q 552 926 564 907 q 523 953 540 944 q 485 961 506 961 q 431 946 454 961 q 386 897 407 931 l 401 886 q 440 927 424 915 q 483 939 457 939 q 528 920 514 939 q 542 874 542 901 q 519 822 542 844 q 465 774 497 800 "},"ễ":{"ha":649,"x_min":75,"x_max":588,"o":"m 349 -8 q 451 11 403 -8 q 536 63 499 31 l 518 82 q 441 33 485 51 q 349 15 397 15 q 219 51 274 15 q 133 143 164 86 q 103 264 103 200 q 135 389 103 332 q 224 479 168 446 q 347 513 279 513 q 474 468 421 513 q 557 363 528 424 l 564 376 l 103 190 l 111 167 l 588 360 q 497 487 557 436 q 349 538 436 538 q 210 501 272 538 q 112 401 149 464 q 75 264 75 339 q 112 126 75 188 q 210 28 149 64 q 349 -8 272 -8 m 481 624 l 510 624 l 324 835 l 322 835 l 138 624 l 167 624 l 333 815 l 315 814 l 481 624 m 419 860 q 469 875 447 860 q 506 924 492 890 q 521 1013 519 958 l 499 1014 q 472 910 494 936 q 421 885 449 885 q 371 901 392 885 q 332 940 350 918 q 289 985 313 964 q 226 1006 265 1006 q 178 990 201 1006 q 140 940 156 974 q 122 853 124 907 l 144 850 q 161 931 147 903 q 193 969 175 958 q 228 981 211 981 q 275 963 256 981 q 314 924 294 944 q 358 880 333 900 q 419 860 382 860 "},"ȅ":{"ha":649,"x_min":75,"x_max":588,"o":"m 349 -8 q 451 11 403 -8 q 536 63 499 31 l 518 82 q 441 33 485 51 q 349 15 397 15 q 219 51 274 15 q 133 143 164 86 q 103 264 103 200 q 135 389 103 332 q 224 479 168 446 q 347 513 279 513 q 474 468 421 513 q 557 363 528 424 l 564 376 l 103 190 l 111 167 l 588 360 q 497 487 557 436 q 349 538 436 538 q 210 501 272 538 q 112 401 149 464 q 75 264 75 339 q 112 126 75 188 q 210 28 149 64 q 349 -8 272 -8 m 125 853 l 253 668 l 279 668 l 156 853 l 125 853 m 260 853 l 388 668 l 414 668 l 290 853 l 260 853 "},"ë":{"ha":649,"x_min":75,"x_max":588,"o":"m 349 -8 q 451 11 403 -8 q 536 63 499 31 l 518 82 q 441 33 485 51 q 349 15 397 15 q 219 51 274 15 q 133 143 164 86 q 103 264 103 200 q 135 389 103 332 q 224 479 168 446 q 347 513 279 513 q 474 468 421 513 q 557 363 528 424 l 564 376 l 103 190 l 111 167 l 588 360 q 497 487 557 436 q 349 538 436 538 q 210 501 272 538 q 112 401 149 464 q 75 264 75 339 q 112 126 75 188 q 210 28 149 64 q 349 -8 272 -8 m 179 699 l 179 699 q 188 677 179 686 q 210 668 197 668 q 231 677 222 668 q 240 699 240 686 q 231 720 240 711 q 210 729 222 729 q 188 720 197 729 q 179 699 179 711 m 410 699 l 410 699 q 419 677 410 686 q 442 668 428 668 q 463 677 453 668 q 472 699 472 686 q 463 720 472 711 q 442 729 453 729 q 419 720 428 729 q 410 699 410 711 "},"ė":{"ha":649,"x_min":75,"x_max":588,"o":"m 349 -8 q 451 11 403 -8 q 536 63 499 31 l 518 82 q 441 33 485 51 q 349 15 397 15 q 219 51 274 15 q 133 143 164 86 q 103 264 103 200 q 135 389 103 332 q 224 479 168 446 q 347 513 279 513 q 474 468 421 513 q 557 363 528 424 l 564 376 l 103 190 l 111 167 l 588 360 q 497 487 557 436 q 349 538 436 538 q 210 501 272 538 q 112 401 149 464 q 75 264 75 339 q 112 126 75 188 q 210 28 149 64 q 349 -8 272 -8 m 294 692 q 303 670 294 679 q 326 661 313 661 q 348 670 339 661 q 357 692 357 679 q 348 713 357 704 q 326 722 339 722 q 303 713 313 722 q 294 692 294 704 "},"ẹ":{"ha":649,"x_min":75,"x_max":588,"o":"m 349 -8 q 451 11 403 -8 q 536 63 499 31 l 518 82 q 441 33 485 51 q 349 15 397 15 q 219 51 274 15 q 133 143 164 86 q 103 264 103 200 q 135 389 103 332 q 224 479 168 446 q 347 513 279 513 q 474 468 421 513 q 557 363 528 424 l 564 376 l 103 190 l 111 167 l 588 360 q 497 487 557 436 q 349 538 436 538 q 210 501 272 538 q 112 401 149 464 q 75 264 75 339 q 112 126 75 188 q 210 28 149 64 q 349 -8 272 -8 m 293 -139 q 303 -161 293 -151 q 325 -171 313 -171 q 347 -162 338 -171 q 356 -139 356 -153 q 347 -117 356 -126 q 325 -108 338 -108 q 303 -117 313 -108 q 293 -139 293 -126 "},"è":{"ha":649,"x_min":75,"x_max":588,"o":"m 349 -8 q 451 11 403 -8 q 536 63 499 31 l 518 82 q 441 33 485 51 q 349 15 397 15 q 219 51 274 15 q 133 143 164 86 q 103 264 103 200 q 135 389 103 332 q 224 479 168 446 q 347 513 279 513 q 474 468 421 513 q 557 363 528 424 l 564 376 l 103 190 l 111 167 l 588 360 q 497 487 557 436 q 349 538 436 538 q 210 501 272 538 q 112 401 149 464 q 75 264 75 339 q 112 126 75 188 q 210 28 149 64 q 349 -8 272 -8 m 192 853 l 319 668 l 346 668 l 222 853 l 192 853 "},"ẻ":{"ha":649,"x_min":75,"x_max":588,"o":"m 349 -8 q 451 11 403 -8 q 536 63 499 31 l 518 82 q 441 33 485 51 q 349 15 397 15 q 219 51 274 15 q 133 143 164 86 q 103 264 103 200 q 135 389 103 332 q 224 479 168 446 q 347 513 279 513 q 474 468 421 513 q 557 363 528 424 l 564 376 l 103 190 l 111 167 l 588 360 q 497 487 557 436 q 349 538 436 538 q 210 501 272 538 q 112 401 149 464 q 75 264 75 339 q 112 126 75 188 q 210 28 149 64 q 349 -8 272 -8 m 325 613 l 339 599 q 399 651 374 626 q 424 714 424 676 q 412 765 424 746 q 383 792 400 783 q 344 800 365 800 q 290 785 314 800 q 246 736 267 769 l 261 725 q 300 766 283 754 q 343 778 317 778 q 388 759 374 778 q 401 713 401 740 q 379 661 401 683 q 325 613 357 639 "},"ȇ":{"ha":649,"x_min":75,"x_max":588,"o":"m 349 -8 q 451 11 403 -8 q 536 63 499 31 l 518 82 q 441 33 485 51 q 349 15 397 15 q 219 51 274 15 q 133 143 164 86 q 103 264 103 200 q 135 389 103 332 q 224 479 168 446 q 347 513 279 513 q 474 468 421 513 q 557 363 528 424 l 564 376 l 103 190 l 111 167 l 588 360 q 497 487 557 436 q 349 538 436 538 q 210 501 272 538 q 112 401 149 464 q 75 264 75 339 q 112 126 75 188 q 210 28 149 64 q 349 -8 272 -8 m 331 833 q 245 805 283 833 q 184 726 207 776 q 160 614 161 676 l 185 614 q 205 711 186 667 q 256 783 224 756 q 331 810 289 810 q 406 783 372 810 q 459 711 439 756 q 482 614 479 667 l 504 614 q 479 726 503 676 q 417 805 456 776 q 331 833 379 833 "},"ē":{"ha":649,"x_min":75,"x_max":588,"o":"m 349 -8 q 451 11 403 -8 q 536 63 499 31 l 518 82 q 441 33 485 51 q 349 15 397 15 q 219 51 274 15 q 133 143 164 86 q 103 264 103 200 q 135 389 103 332 q 224 479 168 446 q 347 513 279 513 q 474 468 421 513 q 557 363 528 424 l 564 376 l 103 190 l 111 167 l 588 360 q 497 487 557 436 q 349 538 436 538 q 210 501 272 538 q 112 401 149 464 q 75 264 75 339 q 112 126 75 188 q 210 28 149 64 q 349 -8 272 -8 m 167 707 l 167 683 l 488 683 l 488 707 l 167 707 "},"ę":{"ha":649,"x_min":76,"x_max":588,"o":"m 471 -261 q 519 -248 497 -261 q 558 -215 542 -235 l 543 -197 q 511 -226 529 -215 q 474 -236 493 -236 q 412 -210 439 -236 q 385 -139 385 -183 q 399 -68 385 -97 q 435 -17 413 -39 q 485 23 458 4 q 536 63 511 42 l 518 82 q 441 33 485 51 q 349 15 397 15 q 222 50 278 15 q 135 142 167 85 q 103 264 103 199 q 135 389 103 332 q 224 479 168 446 q 349 513 279 513 q 471 471 418 513 q 557 363 524 429 l 565 375 l 104 190 l 111 167 l 588 360 q 497 487 557 436 q 349 538 436 538 q 210 501 272 538 q 113 401 149 464 q 76 264 76 339 q 113 126 76 188 q 210 28 149 64 q 349 -8 272 -8 q 385 -6 367 -8 q 421 1 404 -4 q 449 11 438 6 l 433 13 q 376 -60 396 -21 q 357 -140 357 -100 q 392 -228 357 -194 q 471 -261 426 -261 "},"ẽ":{"ha":649,"x_min":75,"x_max":588,"o":"m 349 -8 q 451 11 403 -8 q 536 63 499 31 l 518 82 q 441 33 485 51 q 349 15 397 15 q 219 51 274 15 q 133 143 164 86 q 103 264 103 200 q 135 389 103 332 q 224 479 168 446 q 347 513 279 513 q 474 468 421 513 q 557 363 528 424 l 564 376 l 103 190 l 111 167 l 588 360 q 497 487 557 436 q 349 538 436 538 q 210 501 272 538 q 112 401 149 464 q 75 264 75 339 q 112 126 75 188 q 210 28 149 64 q 349 -8 272 -8 m 424 624 q 474 639 451 624 q 510 688 496 654 q 525 776 524 722 l 503 778 q 476 674 499 700 q 425 649 453 649 q 375 665 396 649 q 336 704 354 682 q 293 749 317 728 q 231 769 269 769 q 183 753 206 769 q 144 704 160 738 q 126 617 128 671 l 149 614 q 165 694 151 667 q 197 733 179 722 q 232 744 215 744 q 279 726 260 744 q 318 688 299 708 q 362 644 338 664 q 424 624 386 624 "},"ə":{"ha":649,"x_min":61,"x_max":574,"o":"m 300 533 q 198 514 246 533 q 114 463 150 494 l 131 444 q 208 492 164 474 q 300 510 251 510 q 430 474 375 510 q 515 382 485 439 q 546 261 546 325 q 513 136 546 193 q 425 46 481 79 q 301 13 369 13 q 174 57 228 13 q 93 163 121 101 l 85 149 l 546 335 l 538 358 l 61 167 q 152 38 92 89 q 300 -12 213 -12 q 438 24 376 -12 q 537 124 500 61 q 574 263 574 186 q 537 399 574 338 q 439 497 500 461 q 300 533 378 533 "},"f":{"ha":404,"x_min":69,"x_max":368,"o":"m 160 0 l 188 0 l 188 496 l 368 496 l 368 521 l 188 521 l 188 818 q 218 984 188 938 q 314 1031 249 1031 q 338 1028 328 1031 q 356 1021 349 1025 l 368 1040 q 340 1049 354 1046 q 313 1051 326 1051 q 198 999 236 1051 q 160 813 160 947 l 160 521 l 69 521 l 69 496 l 160 496 l 160 0 "},"g":{"ha":754,"x_min":75,"x_max":624,"o":"m 350 -253 q 517 -217 457 -253 q 600 -127 576 -182 q 624 -11 624 -72 l 624 525 l 603 525 l 594 356 l 599 371 q 500 490 568 443 q 349 536 432 536 q 212 502 274 536 q 113 406 150 468 q 75 264 75 344 q 112 126 75 188 q 210 28 149 64 q 346 -8 271 -8 q 505 42 433 -8 q 606 172 576 92 l 597 181 l 596 -10 q 572 -119 593 -69 q 497 -198 550 -168 q 349 -228 444 -228 q 251 -210 306 -228 q 129 -126 197 -193 l 114 -144 q 201 -213 160 -190 q 278 -244 242 -236 q 350 -253 315 -253 m 103 264 q 135 394 103 338 q 224 481 168 450 q 349 513 281 513 q 463 485 411 513 q 551 412 515 458 q 597 307 586 365 l 597 247 q 563 133 596 186 q 473 48 529 81 q 349 15 417 15 q 224 49 281 15 q 135 138 168 82 q 103 264 103 194 "},"ğ":{"ha":754,"x_min":75,"x_max":624,"o":"m 350 -253 q 517 -217 457 -253 q 600 -127 576 -182 q 624 -11 624 -72 l 624 525 l 603 525 l 594 356 l 599 371 q 500 490 568 443 q 349 536 432 536 q 212 502 274 536 q 113 406 150 468 q 75 264 75 344 q 112 126 75 188 q 210 28 149 64 q 346 -8 271 -8 q 505 42 433 -8 q 606 172 576 92 l 597 181 l 596 -10 q 572 -119 593 -69 q 497 -198 550 -168 q 349 -228 444 -228 q 251 -210 306 -228 q 129 -126 197 -193 l 114 -144 q 201 -213 160 -190 q 278 -244 242 -236 q 350 -253 315 -253 m 103 264 q 135 394 103 338 q 224 481 168 450 q 349 513 281 513 q 463 485 411 513 q 551 412 515 458 q 597 307 586 365 l 597 247 q 563 133 596 186 q 473 48 529 81 q 349 15 417 15 q 224 49 281 15 q 135 138 168 82 q 103 264 103 194 m 371 642 q 456 670 418 642 q 518 749 494 699 q 542 861 542 799 l 518 861 q 497 764 515 808 q 445 692 478 719 q 371 665 413 665 q 296 692 329 665 q 242 764 263 719 q 221 861 222 808 l 197 861 q 222 749 199 799 q 284 670 246 699 q 371 642 322 642 "},"ǧ":{"ha":754,"x_min":75,"x_max":624,"o":"m 350 -253 q 517 -217 457 -253 q 600 -127 576 -182 q 624 -11 624 -72 l 624 525 l 603 525 l 594 356 l 599 371 q 500 490 568 443 q 349 536 432 536 q 212 502 274 536 q 113 406 150 468 q 75 264 75 344 q 112 126 75 188 q 210 28 149 64 q 346 -8 271 -8 q 505 42 433 -8 q 606 172 576 92 l 597 181 l 596 -10 q 572 -119 593 -69 q 497 -198 550 -168 q 349 -228 444 -228 q 251 -210 306 -228 q 129 -126 197 -193 l 114 -144 q 201 -213 160 -190 q 278 -244 242 -236 q 350 -253 315 -253 m 103 264 q 135 394 103 338 q 224 481 168 450 q 349 513 281 513 q 463 485 411 513 q 551 412 515 458 q 597 307 586 365 l 597 247 q 563 133 596 186 q 473 48 529 81 q 349 15 417 15 q 224 49 281 15 q 135 138 168 82 q 103 264 103 194 m 222 806 l 193 806 l 379 596 l 381 596 l 565 806 l 536 806 l 369 614 l 388 615 l 222 806 "},"ĝ":{"ha":754,"x_min":75,"x_max":624,"o":"m 350 -253 q 517 -217 457 -253 q 600 -127 576 -182 q 624 -11 624 -72 l 624 525 l 603 525 l 594 356 l 599 371 q 500 490 568 443 q 349 536 432 536 q 212 502 274 536 q 113 406 150 468 q 75 264 75 344 q 112 126 75 188 q 210 28 149 64 q 346 -8 271 -8 q 505 42 433 -8 q 606 172 576 92 l 597 181 l 596 -10 q 572 -119 593 -69 q 497 -198 550 -168 q 349 -228 444 -228 q 251 -210 306 -228 q 129 -126 197 -193 l 114 -144 q 201 -213 160 -190 q 278 -244 242 -236 q 350 -253 315 -253 m 103 264 q 135 394 103 338 q 224 481 168 450 q 349 513 281 513 q 463 485 411 513 q 551 412 515 458 q 597 307 586 365 l 597 247 q 563 133 596 186 q 473 48 529 81 q 349 15 417 15 q 224 49 281 15 q 135 138 168 82 q 103 264 103 194 m 538 667 l 567 667 l 381 878 l 379 878 l 194 667 l 224 667 l 390 858 l 372 857 l 538 667 "},"ģ":{"ha":721,"x_min":75,"x_max":624,"o":"m 329 704 l 367 704 q 421 847 394 776 q 474 990 447 918 l 449 990 q 389 847 418 918 q 329 704 360 776 m 350 -253 q 517 -217 457 -253 q 600 -127 576 -182 q 624 -11 624 -72 l 624 525 l 603 525 l 594 356 l 599 371 q 500 490 568 443 q 349 536 432 536 q 212 502 274 536 q 113 406 150 468 q 75 264 75 344 q 112 126 75 188 q 210 28 149 64 q 346 -8 271 -8 q 505 42 433 -8 q 606 172 576 92 l 597 181 l 596 -10 q 572 -119 593 -69 q 497 -198 550 -168 q 349 -228 444 -228 q 251 -210 306 -228 q 129 -126 197 -193 l 114 -144 q 201 -213 160 -190 q 278 -244 242 -236 q 350 -253 315 -253 m 103 264 q 135 394 103 338 q 224 481 168 450 q 349 513 281 513 q 463 485 411 513 q 551 412 515 458 q 597 307 586 365 l 597 247 q 563 133 596 186 q 473 48 529 81 q 349 15 417 15 q 224 49 281 15 q 135 138 168 82 q 103 264 103 194 "},"ġ":{"ha":754,"x_min":75,"x_max":624,"o":"m 350 -253 q 517 -217 457 -253 q 600 -127 576 -182 q 624 -11 624 -72 l 624 525 l 603 525 l 594 356 l 599 371 q 500 490 568 443 q 349 536 432 536 q 212 502 274 536 q 113 406 150 468 q 75 264 75 344 q 112 126 75 188 q 210 28 149 64 q 346 -8 271 -8 q 505 42 433 -8 q 606 172 576 92 l 597 181 l 596 -10 q 572 -119 593 -69 q 497 -198 550 -168 q 349 -228 444 -228 q 251 -210 306 -228 q 129 -126 197 -193 l 114 -144 q 201 -213 160 -190 q 278 -244 242 -236 q 350 -253 315 -253 m 103 264 q 135 394 103 338 q 224 481 168 450 q 349 513 281 513 q 463 485 411 513 q 551 412 515 458 q 597 307 586 365 l 597 247 q 563 133 596 186 q 473 48 529 81 q 349 15 417 15 q 224 49 281 15 q 135 138 168 82 q 103 264 103 194 m 347 692 q 356 670 347 679 q 379 661 365 661 q 401 670 392 661 q 410 692 410 679 q 401 713 410 704 q 379 722 392 722 q 356 713 365 722 q 347 692 347 704 "},"h":{"ha":676,"x_min":131,"x_max":546,"o":"m 131 0 l 158 0 l 158 304 q 190 410 158 363 q 272 484 221 457 q 381 511 322 511 q 481 470 446 508 q 518 376 517 432 l 518 0 l 546 0 l 546 379 q 501 491 544 447 q 383 535 457 535 q 242 494 304 535 q 156 396 181 454 l 157 378 l 157 1044 l 131 1044 l 131 0 "},"ħ":{"ha":676,"x_min":-18,"x_max":546,"o":"m 131 0 l 158 0 l 158 304 q 190 410 158 363 q 272 484 221 457 q 381 511 322 511 q 481 470 446 508 q 518 376 517 432 l 518 0 l 546 0 l 546 379 q 501 491 544 447 q 383 535 457 535 q 242 494 304 535 q 156 396 181 454 l 157 378 l 157 1044 l 131 1044 l 131 0 m -18 796 l -18 769 l 304 769 l 304 796 l -18 796 "},"ĥ":{"ha":676,"x_min":-50,"x_max":546,"o":"m 131 0 l 158 0 l 158 304 q 190 410 158 363 q 272 484 221 457 q 381 511 322 511 q 481 470 446 508 q 518 376 517 432 l 518 0 l 546 0 l 546 379 q 501 491 544 447 q 383 535 457 535 q 242 494 304 535 q 156 396 181 454 l 157 378 l 157 1044 l 131 1044 l 131 0 m 293 1114 l 322 1114 l 136 1325 l 135 1325 l -50 1114 l -21 1114 l 146 1306 l 128 1304 l 293 1114 "},"i":{"ha":289,"x_min":114,"x_max":176,"o":"m 131 525 l 131 0 l 158 0 l 158 525 l 131 525 m 114 690 q 123 669 114 678 q 146 660 132 660 q 167 669 158 660 q 176 690 176 678 q 167 712 176 703 q 146 721 158 721 q 123 712 132 721 q 114 690 114 703 "},"ı":{"ha":289,"x_min":131,"x_max":158,"o":"m 131 525 l 131 0 l 158 0 l 158 525 l 131 525 "},"í":{"ha":289,"x_min":93,"x_max":247,"o":"m 131 525 l 131 0 l 158 0 l 158 525 l 131 525 m 247 825 l 217 825 l 93 640 l 119 640 l 247 825 "},"ĭ":{"ha":289,"x_min":-36,"x_max":308,"o":"m 131 525 l 131 0 l 158 0 l 158 525 l 131 525 m 138 640 q 223 669 185 640 q 285 747 261 697 q 308 860 308 797 l 285 860 q 263 763 282 807 q 212 691 244 718 q 138 664 179 664 q 63 691 96 664 q 9 763 29 718 q -12 860 -11 807 l -36 860 q -11 747 -35 797 q 51 669 13 697 q 138 640 89 640 "},"î":{"ha":289,"x_min":-40,"x_max":332,"o":"m 131 525 l 131 0 l 158 0 l 158 525 l 131 525 m 303 665 l 332 665 l 146 876 l 144 876 l -40 665 l -11 665 l 156 857 l 138 856 l 303 665 "},"ȉ":{"ha":289,"x_min":-56,"x_max":233,"o":"m 131 525 l 131 0 l 158 0 l 158 525 l 131 525 m -56 851 l 72 667 l 99 667 l -25 851 l -56 851 m 79 851 l 207 667 l 233 667 l 110 851 l 79 851 "},"ï":{"ha":289,"x_min":-3,"x_max":290,"o":"m 131 525 l 131 0 l 158 0 l 158 525 l 131 525 m -3 697 l -3 697 q 6 676 -3 685 q 28 667 15 667 q 49 676 40 667 q 58 697 58 685 q 49 719 58 710 q 28 728 40 728 q 6 719 15 728 q -3 697 -3 710 m 228 697 l 228 697 q 237 676 228 685 q 260 667 246 667 q 281 676 271 667 q 290 697 290 685 q 281 719 290 710 q 260 728 271 728 q 237 719 246 728 q 228 697 228 710 "},"ị":{"ha":289,"x_min":113,"x_max":176,"o":"m 131 525 l 131 0 l 158 0 l 158 525 l 131 525 m 114 690 q 123 669 114 678 q 146 660 132 660 q 167 669 158 660 q 176 690 176 678 q 167 712 176 703 q 146 721 158 721 q 123 712 132 721 q 114 690 114 703 m 113 -139 q 122 -161 113 -151 q 144 -171 132 -171 q 166 -162 157 -171 q 175 -139 175 -153 q 166 -117 175 -126 q 144 -108 157 -108 q 122 -117 132 -108 q 113 -139 113 -126 "},"ì":{"ha":289,"x_min":10,"x_max":164,"o":"m 131 525 l 131 0 l 158 0 l 158 525 l 131 525 m 10 851 l 138 667 l 164 667 l 40 851 l 10 851 "},"ỉ":{"ha":289,"x_min":64,"x_max":242,"o":"m 131 525 l 131 0 l 158 0 l 158 525 l 131 525 m 143 611 l 157 597 q 217 650 192 625 q 242 713 242 675 q 230 763 242 744 q 201 790 218 782 q 163 799 183 799 q 108 783 132 799 q 64 735 85 768 l 79 724 q 118 765 101 753 q 161 776 135 776 q 206 758 192 776 q 219 711 219 739 q 197 660 219 682 q 143 611 175 638 "},"ȋ":{"ha":289,"x_min":-22,"x_max":322,"o":"m 131 525 l 131 0 l 158 0 l 158 525 l 131 525 m 149 832 q 63 803 101 832 q 2 725 25 775 q -22 613 -21 675 l 3 613 q 23 710 4 665 q 74 781 42 754 q 149 808 107 808 q 224 781 190 808 q 277 710 257 754 q 300 613 297 665 l 322 613 q 297 725 321 675 q 235 803 274 775 q 149 832 197 832 "},"ĳ":{"ha":589,"x_min":114,"x_max":479,"o":"m 131 525 l 131 0 l 158 0 l 158 525 l 131 525 m 114 690 q 123 669 114 678 q 146 660 132 660 q 167 669 158 660 q 176 690 176 678 q 167 712 176 703 q 146 721 158 721 q 123 712 132 721 q 114 690 114 703 m 378 -251 q 439 -151 417 -211 q 461 -10 461 -90 l 461 525 l 433 525 l 433 -14 q 413 -140 433 -85 q 357 -235 392 -196 l 378 -251 m 417 690 q 426 669 417 678 q 449 660 435 660 q 470 669 461 660 q 479 690 479 678 q 470 712 479 703 q 449 721 461 721 q 426 712 435 721 q 417 690 417 703 "},"ī":{"ha":289,"x_min":-15,"x_max":306,"o":"m 131 525 l 131 0 l 158 0 l 158 525 l 131 525 m -15 706 l -15 682 l 306 682 l 306 706 l -15 706 "},"į":{"ha":289,"x_min":4,"x_max":210,"o":"m 104 -261 q 167 -239 139 -261 q 210 -186 194 -217 l 192 -174 q 155 -218 176 -200 q 107 -236 133 -236 q 54 -214 78 -236 q 31 -153 31 -192 q 63 -74 31 -112 q 158 0 96 -35 l 151 8 l 140 17 q 45 -56 86 -11 q 4 -154 4 -101 q 35 -232 4 -203 q 104 -261 65 -261 m 131 525 l 131 0 l 158 0 l 158 525 l 131 525 m 113 647 q 122 626 113 636 q 144 617 132 617 q 166 626 157 617 q 175 647 175 635 q 166 670 175 661 q 144 679 157 679 q 122 670 132 679 q 113 647 113 661 "},"ĩ":{"ha":289,"x_min":-54,"x_max":344,"o":"m 131 525 l 131 0 l 158 0 l 158 525 l 131 525 m 243 622 q 293 638 271 622 q 329 687 315 653 q 344 775 343 721 l 322 776 q 295 673 318 699 q 244 647 272 647 q 194 664 215 647 q 156 703 174 681 q 113 747 136 726 q 50 768 89 768 q 2 752 25 768 q -37 703 -21 736 q -54 615 -53 669 l -32 613 q -15 693 -29 665 q 17 732 -1 721 q 51 743 35 743 q 99 725 79 743 q 138 686 118 707 q 181 642 157 663 q 243 622 206 622 "},"j":{"ha":300,"x_min":68,"x_max":190,"o":"m 89 -251 q 150 -151 128 -211 q 172 -10 172 -90 l 172 525 l 144 525 l 144 -14 q 124 -140 144 -85 q 68 -235 103 -196 l 89 -251 m 128 690 q 137 669 128 678 q 160 660 146 660 q 181 669 172 660 q 190 690 190 678 q 181 712 190 703 q 160 721 172 721 q 137 712 146 721 q 128 690 128 703 "},"ȷ":{"ha":300,"x_min":68,"x_max":172,"o":"m 89 -251 q 150 -151 128 -211 q 172 -10 172 -90 l 172 525 l 144 525 l 144 -14 q 124 -140 144 -85 q 68 -235 103 -196 l 89 -251 "},"ĵ":{"ha":300,"x_min":-26,"x_max":346,"o":"m 89 -251 q 150 -151 128 -211 q 172 -10 172 -90 l 172 525 l 144 525 l 144 -14 q 124 -140 144 -85 q 68 -235 103 -196 l 89 -251 m 317 665 l 346 665 l 160 876 l 158 876 l -26 665 l 3 665 l 169 857 l 151 856 l 317 665 "},"k":{"ha":588,"x_min":131,"x_max":519,"o":"m 131 0 l 158 0 l 158 1044 l 131 1044 l 131 0 m 274 336 l 251 321 l 488 0 l 519 0 l 274 336 m 146 206 l 483 519 l 465 535 l 144 236 l 146 206 "},"ķ":{"ha":588,"x_min":131,"x_max":519,"o":"m 131 0 l 158 0 l 158 1044 l 131 1044 l 131 0 m 274 336 l 251 321 l 488 0 l 519 0 l 274 336 m 146 206 l 483 519 l 465 535 l 144 236 l 146 206 m 231 -254 q 285 -203 267 -235 q 308 -135 304 -172 q 310 -62 313 -99 l 279 -62 q 271 -168 286 -122 q 217 -242 256 -214 l 231 -254 "},"ĸ":{"ha":583,"x_min":131,"x_max":507,"o":"m 150 196 l 496 525 l 460 525 l 146 222 l 150 196 m 158 0 l 158 525 l 131 525 l 131 0 l 158 0 m 228 293 l 210 275 l 471 0 l 507 0 l 228 293 "},"l":{"ha":289,"x_min":131,"x_max":158,"o":"m 131 1044 l 131 0 l 158 0 l 158 1044 l 131 1044 "},"ĺ":{"ha":289,"x_min":131,"x_max":297,"o":"m 131 1044 l 131 0 l 158 0 l 158 1044 l 131 1044 m 297 1283 l 267 1283 l 143 1099 l 169 1099 l 297 1283 "},"ľ":{"ha":486,"x_min":131,"x_max":418,"o":"m 131 1044 l 131 0 l 158 0 l 158 1044 l 131 1044 m 344 799 l 344 799 q 390 853 372 822 q 413 920 407 885 q 411 993 418 956 l 379 983 q 374 893 388 935 q 332 824 361 851 l 344 799 "},"ļ":{"ha":289,"x_min":67,"x_max":163,"o":"m 131 1044 l 131 0 l 158 0 l 158 1044 l 131 1044 m 81 -254 q 135 -203 117 -235 q 158 -135 154 -172 q 160 -62 163 -99 l 129 -62 q 121 -168 136 -122 q 67 -242 106 -214 l 81 -254 "},"ŀ":{"ha":360,"x_min":131,"x_max":364,"o":"m 131 1044 l 131 0 l 158 0 l 158 1044 l 131 1044 m 301 392 l 301 392 q 311 370 301 379 q 333 361 321 361 q 355 370 346 361 q 364 392 364 379 q 355 415 364 406 q 333 424 346 424 q 311 415 321 424 q 301 392 301 406 "},"ǉ":{"ha":589,"x_min":131,"x_max":479,"o":"m 131 1044 l 131 0 l 158 0 l 158 1044 l 131 1044 m 378 -251 q 439 -151 417 -211 q 461 -10 461 -90 l 461 525 l 433 525 l 433 -14 q 413 -140 433 -85 q 357 -235 392 -196 l 378 -251 m 417 690 q 426 669 417 678 q 449 660 435 660 q 470 669 461 660 q 479 690 479 678 q 470 712 479 703 q 449 721 461 721 q 426 712 435 721 q 417 690 417 703 "},"ł":{"ha":264,"x_min":39,"x_max":256,"o":"m 256 489 l 39 410 l 39 385 l 256 463 l 256 489 m 132 1044 l 132 0 l 158 0 l 158 1044 l 132 1044 "},"m":{"ha":1063,"x_min":131,"x_max":932,"o":"m 151 525 l 131 525 l 131 0 l 158 0 l 158 304 q 190 410 158 364 q 272 484 221 457 q 381 511 322 511 q 481 470 446 507 q 518 385 515 433 l 518 0 l 544 0 l 544 313 q 579 413 547 368 q 661 485 611 458 q 768 511 711 511 q 868 470 833 507 q 904 385 903 433 l 904 0 l 932 0 l 932 392 q 885 493 929 451 q 768 535 842 535 q 631 497 693 535 q 542 388 568 460 l 547 396 q 522 466 546 435 q 462 516 499 497 q 382 535 425 535 q 240 492 304 535 q 150 375 175 449 l 156 361 l 151 525 "},"n":{"ha":676,"x_min":131,"x_max":546,"o":"m 151 525 l 131 525 l 131 0 l 158 0 l 158 304 q 190 413 158 367 q 272 485 221 460 q 381 511 322 511 q 481 470 446 508 q 518 376 517 432 l 518 0 l 546 0 l 546 379 q 501 491 544 447 q 383 535 457 535 q 240 492 304 535 q 153 375 175 450 l 157 356 l 151 525 "},"ń":{"ha":676,"x_min":131,"x_max":546,"o":"m 151 525 l 131 525 l 131 0 l 158 0 l 158 304 q 190 413 158 367 q 272 485 221 460 q 381 511 322 511 q 481 470 446 508 q 518 376 517 432 l 518 0 l 546 0 l 546 379 q 501 491 544 447 q 383 535 457 535 q 240 492 304 535 q 153 375 175 450 l 157 356 l 151 525 m 442 825 l 411 825 l 288 640 l 314 640 l 442 825 "},"ŉ":{"ha":697,"x_min":-21,"x_max":567,"o":"m -7 538 q 48 588 29 557 q 71 656 67 619 q 72 729 75 693 l 42 729 q 33 624 49 669 q -21 550 18 578 l -7 538 m 172 525 l 151 525 l 151 0 l 179 0 l 179 304 q 210 413 179 367 q 292 485 242 460 q 401 511 343 511 q 502 470 467 508 q 539 376 538 432 l 539 0 l 567 0 l 567 379 q 522 491 565 447 q 404 535 478 535 q 260 492 325 535 q 174 375 196 450 l 178 356 l 172 525 "},"ň":{"ha":676,"x_min":131,"x_max":546,"o":"m 151 525 l 131 525 l 131 0 l 158 0 l 158 304 q 190 413 158 367 q 272 485 221 460 q 381 511 322 511 q 481 470 446 508 q 518 376 517 432 l 518 0 l 546 0 l 546 379 q 501 491 544 447 q 383 535 457 535 q 240 492 304 535 q 153 375 175 450 l 157 356 l 151 525 m 182 806 l 153 806 l 339 596 l 340 596 l 525 806 l 496 806 l 329 614 l 347 615 l 182 806 "},"ņ":{"ha":676,"x_min":131,"x_max":546,"o":"m 151 525 l 131 525 l 131 0 l 158 0 l 158 304 q 190 413 158 367 q 272 485 221 460 q 381 511 322 511 q 481 470 446 508 q 518 376 517 432 l 518 0 l 546 0 l 546 379 q 501 491 544 447 q 383 535 457 535 q 240 492 304 535 q 153 375 175 450 l 157 356 l 151 525 m 275 -254 q 330 -203 311 -235 q 353 -135 349 -172 q 354 -62 357 -99 l 324 -62 q 315 -168 331 -122 q 261 -242 300 -214 l 275 -254 "},"ŋ":{"ha":676,"x_min":131,"x_max":546,"o":"m 546 -8 l 546 379 q 501 491 544 447 q 383 535 457 535 q 241 492 304 535 q 157 375 178 450 l 151 525 l 131 525 l 131 0 l 158 0 l 158 304 q 190 413 158 367 q 272 485 221 460 q 381 511 322 511 q 481 470 446 508 q 518 376 517 432 l 518 -14 q 497 -140 518 -85 q 442 -235 476 -196 l 463 -251 q 524 -150 501 -211 q 546 -8 546 -89 "},"ɲ":{"ha":676,"x_min":54,"x_max":546,"o":"m 75 -251 q 135 -150 113 -210 q 158 -10 158 -90 l 158 78 l 131 78 l 131 -14 q 110 -140 131 -85 q 54 -235 89 -196 l 75 -251 m 151 525 l 131 525 l 131 0 l 158 0 l 158 304 q 190 413 158 367 q 272 485 221 460 q 381 511 322 511 q 481 470 446 508 q 518 376 517 432 l 518 0 l 546 0 l 546 379 q 501 491 544 447 q 383 535 457 535 q 240 492 304 535 q 153 375 175 450 l 157 356 l 151 525 "},"ǌ":{"ha":976,"x_min":131,"x_max":867,"o":"m 151 525 l 131 525 l 131 0 l 158 0 l 158 304 q 190 413 158 367 q 272 485 221 460 q 381 511 322 511 q 481 470 446 508 q 518 376 517 432 l 518 0 l 546 0 l 546 379 q 501 491 544 447 q 383 535 457 535 q 240 492 304 535 q 153 375 175 450 l 157 356 l 151 525 m 765 -251 q 826 -151 804 -211 q 849 -10 849 -90 l 849 525 l 821 525 l 821 -14 q 800 -140 821 -85 q 744 -235 779 -196 l 765 -251 m 804 690 q 813 669 804 678 q 836 660 822 660 q 858 669 849 660 q 867 690 867 678 q 858 712 867 703 q 836 721 849 721 q 813 712 822 721 q 804 690 804 703 "},"ñ":{"ha":676,"x_min":131,"x_max":546,"o":"m 151 525 l 131 525 l 131 0 l 158 0 l 158 304 q 190 413 158 367 q 272 485 221 460 q 381 511 322 511 q 481 470 446 508 q 518 376 517 432 l 518 0 l 546 0 l 546 379 q 501 491 544 447 q 383 535 457 535 q 240 492 304 535 q 153 375 175 450 l 157 356 l 151 525 m 436 624 q 486 639 464 624 q 522 688 508 654 q 538 776 536 722 l 515 778 q 488 674 511 700 q 438 649 465 649 q 388 665 408 649 q 349 704 367 682 q 306 749 329 728 q 243 769 282 769 q 195 753 218 769 q 156 704 172 738 q 139 617 140 671 l 161 614 q 178 694 164 667 q 210 733 192 722 q 244 744 228 744 q 292 726 272 744 q 331 688 311 708 q 374 644 350 664 q 436 624 399 624 "},"o":{"ha":699,"x_min":75,"x_max":624,"o":"m 75 264 q 112 124 75 185 q 210 27 149 63 q 349 -8 272 -8 q 488 28 425 -8 q 587 126 550 64 q 624 264 624 188 q 587 401 624 339 q 488 501 550 464 q 349 538 425 538 q 210 501 272 538 q 112 401 149 464 q 75 264 75 339 m 103 264 q 135 383 103 326 q 222 476 167 440 q 349 513 278 513 q 472 478 417 513 q 561 388 528 444 q 594 264 594 332 q 561 138 594 194 q 472 49 528 82 q 349 15 417 15 q 224 49 281 15 q 135 138 168 82 q 103 264 103 194 "},"ó":{"ha":699,"x_min":75,"x_max":624,"o":"m 75 264 q 112 124 75 185 q 210 27 149 63 q 349 -8 272 -8 q 488 28 425 -8 q 587 126 550 64 q 624 264 624 188 q 587 401 624 339 q 488 501 550 464 q 349 538 425 538 q 210 501 272 538 q 112 401 149 464 q 75 264 75 339 m 103 264 q 135 383 103 326 q 222 476 167 440 q 349 513 278 513 q 472 478 417 513 q 561 388 528 444 q 594 264 594 332 q 561 138 594 194 q 472 49 528 82 q 349 15 417 15 q 224 49 281 15 q 135 138 168 82 q 103 264 103 194 m 453 826 l 422 826 l 299 642 l 325 642 l 453 826 "},"ŏ":{"ha":699,"x_min":75,"x_max":624,"o":"m 75 264 q 112 124 75 185 q 210 27 149 63 q 349 -8 272 -8 q 488 28 425 -8 q 587 126 550 64 q 624 264 624 188 q 587 401 624 339 q 488 501 550 464 q 349 538 425 538 q 210 501 272 538 q 112 401 149 464 q 75 264 75 339 m 103 264 q 135 383 103 326 q 222 476 167 440 q 349 513 278 513 q 472 478 417 513 q 561 388 528 444 q 594 264 594 332 q 561 138 594 194 q 472 49 528 82 q 349 15 417 15 q 224 49 281 15 q 135 138 168 82 q 103 264 103 194 m 343 642 q 428 670 390 642 q 490 749 467 699 q 514 861 514 799 l 490 861 q 469 764 488 808 q 417 692 450 719 q 343 665 385 665 q 268 692 301 665 q 215 764 235 719 q 193 861 194 808 l 169 861 q 194 749 171 799 q 256 670 218 699 q 343 642 294 642 "},"ô":{"ha":699,"x_min":75,"x_max":624,"o":"m 75 264 q 112 124 75 185 q 210 27 149 63 q 349 -8 272 -8 q 488 28 425 -8 q 587 126 550 64 q 624 264 624 188 q 587 401 624 339 q 488 501 550 464 q 349 538 425 538 q 210 501 272 538 q 112 401 149 464 q 75 264 75 339 m 103 264 q 135 383 103 326 q 222 476 167 440 q 349 513 278 513 q 472 478 417 513 q 561 388 528 444 q 594 264 594 332 q 561 138 594 194 q 472 49 528 82 q 349 15 417 15 q 224 49 281 15 q 135 138 168 82 q 103 264 103 194 m 508 667 l 538 667 l 351 878 l 350 878 l 165 667 l 194 667 l 361 858 l 343 857 l 508 667 "},"ố":{"ha":699,"x_min":75,"x_max":639,"o":"m 75 264 q 112 124 75 185 q 210 27 149 63 q 349 -8 272 -8 q 488 28 425 -8 q 587 126 550 64 q 624 264 624 188 q 587 401 624 339 q 488 501 550 464 q 349 538 425 538 q 210 501 272 538 q 112 401 149 464 q 75 264 75 339 m 103 264 q 135 383 103 326 q 222 476 167 440 q 349 513 278 513 q 472 478 417 513 q 561 388 528 444 q 594 264 594 332 q 561 138 594 194 q 472 49 528 82 q 349 15 417 15 q 224 49 281 15 q 135 138 168 82 q 103 264 103 194 m 503 649 l 532 649 l 346 860 l 344 860 l 160 649 l 189 649 l 356 840 l 338 839 l 503 649 m 639 951 l 608 951 l 485 767 l 511 767 l 639 951 "},"ộ":{"ha":699,"x_min":75,"x_max":624,"o":"m 75 264 q 112 124 75 185 q 210 27 149 63 q 349 -8 272 -8 q 488 28 425 -8 q 587 126 550 64 q 624 264 624 188 q 587 401 624 339 q 488 501 550 464 q 349 538 425 538 q 210 501 272 538 q 112 401 149 464 q 75 264 75 339 m 103 264 q 135 383 103 326 q 222 476 167 440 q 349 513 278 513 q 472 478 417 513 q 561 388 528 444 q 594 264 594 332 q 561 138 594 194 q 472 49 528 82 q 349 15 417 15 q 224 49 281 15 q 135 138 168 82 q 103 264 103 194 m 318 -139 q 328 -161 318 -151 q 350 -171 338 -171 q 372 -162 363 -171 q 381 -139 381 -153 q 372 -117 381 -126 q 350 -108 363 -108 q 328 -117 338 -108 q 318 -139 318 -126 m 508 667 l 538 667 l 351 878 l 350 878 l 165 667 l 194 667 l 361 858 l 343 857 l 508 667 "},"ồ":{"ha":699,"x_min":35,"x_max":624,"o":"m 75 264 q 112 124 75 185 q 210 27 149 63 q 349 -8 272 -8 q 488 28 425 -8 q 587 126 550 64 q 624 264 624 188 q 587 401 624 339 q 488 501 550 464 q 349 538 425 538 q 210 501 272 538 q 112 401 149 464 q 75 264 75 339 m 103 264 q 135 383 103 326 q 222 476 167 440 q 349 513 278 513 q 472 478 417 513 q 561 388 528 444 q 594 264 594 332 q 561 138 594 194 q 472 49 528 82 q 349 15 417 15 q 224 49 281 15 q 135 138 168 82 q 103 264 103 194 m 496 639 l 525 639 l 339 850 l 338 850 l 153 639 l 182 639 l 349 831 l 331 829 l 496 639 m 35 964 l 163 779 l 189 779 l 65 964 l 35 964 "},"ổ":{"ha":699,"x_min":75,"x_max":624,"o":"m 75 264 q 112 124 75 185 q 210 27 149 63 q 349 -8 272 -8 q 488 28 425 -8 q 587 126 550 64 q 624 264 624 188 q 587 401 624 339 q 488 501 550 464 q 349 538 425 538 q 210 501 272 538 q 112 401 149 464 q 75 264 75 339 m 103 264 q 135 383 103 326 q 222 476 167 440 q 349 513 278 513 q 472 478 417 513 q 561 388 528 444 q 594 264 594 332 q 561 138 594 194 q 472 49 528 82 q 349 15 417 15 q 224 49 281 15 q 135 138 168 82 q 103 264 103 194 m 499 650 l 528 650 l 342 861 l 340 861 l 156 650 l 185 650 l 351 842 l 333 840 l 499 650 m 490 774 l 504 760 q 564 813 539 788 q 589 875 589 838 q 577 926 589 907 q 548 953 565 944 q 510 961 531 961 q 456 946 479 961 q 411 897 432 931 l 426 886 q 465 927 449 915 q 508 939 482 939 q 553 920 539 939 q 567 874 567 901 q 544 822 567 844 q 490 774 522 800 "},"ỗ":{"ha":699,"x_min":75,"x_max":624,"o":"m 75 264 q 112 124 75 185 q 210 27 149 63 q 349 -8 272 -8 q 488 28 425 -8 q 587 126 550 64 q 624 264 624 188 q 587 401 624 339 q 488 501 550 464 q 349 538 425 538 q 210 501 272 538 q 112 401 149 464 q 75 264 75 339 m 103 264 q 135 383 103 326 q 222 476 167 440 q 349 513 278 513 q 472 478 417 513 q 561 388 528 444 q 594 264 594 332 q 561 138 594 194 q 472 49 528 82 q 349 15 417 15 q 224 49 281 15 q 135 138 168 82 q 103 264 103 194 m 504 624 l 533 624 l 347 835 l 346 835 l 161 624 l 190 624 l 357 815 l 339 814 l 504 624 m 443 860 q 493 875 471 860 q 529 924 515 890 q 544 1013 543 958 l 522 1014 q 495 910 518 936 q 444 885 472 885 q 394 901 415 885 q 356 940 374 918 q 313 985 336 964 q 250 1006 289 1006 q 202 990 225 1006 q 163 940 179 974 q 146 853 147 907 l 168 850 q 185 931 171 903 q 217 969 199 958 q 251 981 235 981 q 299 963 279 981 q 338 924 318 944 q 381 880 357 900 q 443 860 406 860 "},"ȍ":{"ha":699,"x_min":75,"x_max":624,"o":"m 75 264 q 112 124 75 185 q 210 27 149 63 q 349 -8 272 -8 q 488 28 425 -8 q 587 126 550 64 q 624 264 624 188 q 587 401 624 339 q 488 501 550 464 q 349 538 425 538 q 210 501 272 538 q 112 401 149 464 q 75 264 75 339 m 103 264 q 135 383 103 326 q 222 476 167 440 q 349 513 278 513 q 472 478 417 513 q 561 388 528 444 q 594 264 594 332 q 561 138 594 194 q 472 49 528 82 q 349 15 417 15 q 224 49 281 15 q 135 138 168 82 q 103 264 103 194 m 150 853 l 278 668 l 304 668 l 181 853 l 150 853 m 285 853 l 413 668 l 439 668 l 315 853 l 285 853 "},"ö":{"ha":699,"x_min":75,"x_max":624,"o":"m 75 264 q 112 124 75 185 q 210 27 149 63 q 349 -8 272 -8 q 488 28 425 -8 q 587 126 550 64 q 624 264 624 188 q 587 401 624 339 q 488 501 550 464 q 349 538 425 538 q 210 501 272 538 q 112 401 149 464 q 75 264 75 339 m 103 264 q 135 383 103 326 q 222 476 167 440 q 349 513 278 513 q 472 478 417 513 q 561 388 528 444 q 594 264 594 332 q 561 138 594 194 q 472 49 528 82 q 349 15 417 15 q 224 49 281 15 q 135 138 168 82 q 103 264 103 194 m 203 699 l 203 699 q 212 677 203 686 q 233 668 221 668 q 255 677 246 668 q 264 699 264 686 q 255 720 264 711 q 233 729 246 729 q 212 720 221 729 q 203 699 203 711 m 433 699 l 433 699 q 442 677 433 686 q 465 668 451 668 q 486 677 476 668 q 496 699 496 686 q 486 720 496 711 q 465 729 476 729 q 442 720 451 729 q 433 699 433 711 "},"ȫ":{"ha":699,"x_min":75,"x_max":624,"o":"m 75 264 q 112 124 75 185 q 210 27 149 63 q 349 -8 272 -8 q 488 28 425 -8 q 587 126 550 64 q 624 264 624 188 q 587 401 624 339 q 488 501 550 464 q 349 538 425 538 q 210 501 272 538 q 112 401 149 464 q 75 264 75 339 m 103 264 q 135 383 103 326 q 222 476 167 440 q 349 513 278 513 q 472 478 417 513 q 561 388 528 444 q 594 264 594 332 q 561 138 594 194 q 472 49 528 82 q 349 15 417 15 q 224 49 281 15 q 135 138 168 82 q 103 264 103 194 m 203 699 l 203 699 q 212 677 203 686 q 233 668 221 668 q 255 677 246 668 q 264 699 264 686 q 255 720 264 711 q 233 729 246 729 q 212 720 221 729 q 203 699 203 711 m 433 699 l 433 699 q 442 677 433 686 q 465 668 451 668 q 486 677 476 668 q 496 699 496 686 q 486 720 496 711 q 465 729 476 729 q 442 720 451 729 q 433 699 433 711 m 190 911 l 190 888 l 511 888 l 511 911 l 190 911 "},"ȱ":{"ha":699,"x_min":75,"x_max":624,"o":"m 75 264 q 112 124 75 185 q 210 27 149 63 q 349 -8 272 -8 q 488 28 425 -8 q 587 126 550 64 q 624 264 624 188 q 587 401 624 339 q 488 501 550 464 q 349 538 425 538 q 210 501 272 538 q 112 401 149 464 q 75 264 75 339 m 103 264 q 135 383 103 326 q 222 476 167 440 q 349 513 278 513 q 472 478 417 513 q 561 388 528 444 q 594 264 594 332 q 561 138 594 194 q 472 49 528 82 q 349 15 417 15 q 224 49 281 15 q 135 138 168 82 q 103 264 103 194 m 318 692 q 327 670 318 679 q 350 661 336 661 q 372 670 363 661 q 381 692 381 679 q 372 713 381 704 q 350 722 363 722 q 327 713 336 722 q 318 692 318 704 m 190 904 l 190 881 l 511 881 l 511 904 l 190 904 "},"ọ":{"ha":699,"x_min":75,"x_max":624,"o":"m 75 264 q 112 124 75 185 q 210 27 149 63 q 349 -8 272 -8 q 488 28 425 -8 q 587 126 550 64 q 624 264 624 188 q 587 401 624 339 q 488 501 550 464 q 349 538 425 538 q 210 501 272 538 q 112 401 149 464 q 75 264 75 339 m 103 264 q 135 383 103 326 q 222 476 167 440 q 349 513 278 513 q 472 478 417 513 q 561 388 528 444 q 594 264 594 332 q 561 138 594 194 q 472 49 528 82 q 349 15 417 15 q 224 49 281 15 q 135 138 168 82 q 103 264 103 194 m 318 -139 q 328 -161 318 -151 q 350 -171 338 -171 q 372 -162 363 -171 q 381 -139 381 -153 q 372 -117 381 -126 q 350 -108 363 -108 q 328 -117 338 -108 q 318 -139 318 -126 "},"ò":{"ha":699,"x_min":75,"x_max":624,"o":"m 75 264 q 112 124 75 185 q 210 27 149 63 q 349 -8 272 -8 q 488 28 425 -8 q 587 126 550 64 q 624 264 624 188 q 587 401 624 339 q 488 501 550 464 q 349 538 425 538 q 210 501 272 538 q 112 401 149 464 q 75 264 75 339 m 103 264 q 135 383 103 326 q 222 476 167 440 q 349 513 278 513 q 472 478 417 513 q 561 388 528 444 q 594 264 594 332 q 561 138 594 194 q 472 49 528 82 q 349 15 417 15 q 224 49 281 15 q 135 138 168 82 q 103 264 103 194 m 215 853 l 343 668 l 369 668 l 246 853 l 215 853 "},"ỏ":{"ha":699,"x_min":75,"x_max":624,"o":"m 75 264 q 112 124 75 185 q 210 27 149 63 q 349 -8 272 -8 q 488 28 425 -8 q 587 126 550 64 q 624 264 624 188 q 587 401 624 339 q 488 501 550 464 q 349 538 425 538 q 210 501 272 538 q 112 401 149 464 q 75 264 75 339 m 103 264 q 135 383 103 326 q 222 476 167 440 q 349 513 278 513 q 472 478 417 513 q 561 388 528 444 q 594 264 594 332 q 561 138 594 194 q 472 49 528 82 q 349 15 417 15 q 224 49 281 15 q 135 138 168 82 q 103 264 103 194 m 349 613 l 363 599 q 422 651 397 626 q 447 714 447 676 q 435 765 447 746 q 406 792 424 783 q 368 800 389 800 q 314 785 338 800 q 269 736 290 769 l 285 725 q 324 766 307 754 q 367 778 340 778 q 411 759 397 778 q 425 713 425 740 q 403 661 425 683 q 349 613 381 639 "},"ơ":{"ha":699,"x_min":75,"x_max":624,"o":"m 75 264 q 112 124 75 185 q 210 27 149 63 q 349 -8 272 -8 q 488 28 425 -8 q 587 126 550 64 q 624 264 624 188 q 587 401 624 339 q 488 501 550 464 q 349 538 425 538 q 210 501 272 538 q 112 401 149 464 q 75 264 75 339 m 103 264 q 135 383 103 326 q 222 476 167 440 q 349 513 278 513 q 472 478 417 513 q 561 388 528 444 q 594 264 594 332 q 561 138 594 194 q 472 49 528 82 q 349 15 417 15 q 224 49 281 15 q 135 138 168 82 q 103 264 103 194 m 432 524 l 432 501 q 518 513 481 501 q 576 559 556 524 q 599 669 597 594 l 574 669 q 538 553 572 583 q 432 524 503 524 "},"ớ":{"ha":699,"x_min":75,"x_max":624,"o":"m 75 264 q 112 124 75 185 q 210 27 149 63 q 349 -8 272 -8 q 488 28 425 -8 q 587 126 550 64 q 624 264 624 188 q 587 401 624 339 q 488 501 550 464 q 349 538 425 538 q 210 501 272 538 q 112 401 149 464 q 75 264 75 339 m 103 264 q 135 383 103 326 q 222 476 167 440 q 349 513 278 513 q 472 478 417 513 q 561 388 528 444 q 594 264 594 332 q 561 138 594 194 q 472 49 528 82 q 349 15 417 15 q 224 49 281 15 q 135 138 168 82 q 103 264 103 194 m 432 524 l 432 501 q 518 513 481 501 q 576 559 556 524 q 599 669 597 594 l 574 669 q 538 553 572 583 q 432 524 503 524 m 453 826 l 422 826 l 299 642 l 325 642 l 453 826 "},"ợ":{"ha":699,"x_min":75,"x_max":624,"o":"m 75 264 q 112 124 75 185 q 210 27 149 63 q 349 -8 272 -8 q 488 28 425 -8 q 587 126 550 64 q 624 264 624 188 q 587 401 624 339 q 488 501 550 464 q 349 538 425 538 q 210 501 272 538 q 112 401 149 464 q 75 264 75 339 m 103 264 q 135 383 103 326 q 222 476 167 440 q 349 513 278 513 q 472 478 417 513 q 561 388 528 444 q 594 264 594 332 q 561 138 594 194 q 472 49 528 82 q 349 15 417 15 q 224 49 281 15 q 135 138 168 82 q 103 264 103 194 m 432 524 l 432 501 q 518 513 481 501 q 576 559 556 524 q 599 669 597 594 l 574 669 q 538 553 572 583 q 432 524 503 524 m 318 -139 q 328 -161 318 -151 q 350 -171 338 -171 q 372 -162 363 -171 q 381 -139 381 -153 q 372 -117 381 -126 q 350 -108 363 -108 q 328 -117 338 -108 q 318 -139 318 -126 "},"ờ":{"ha":699,"x_min":75,"x_max":624,"o":"m 75 264 q 112 124 75 185 q 210 27 149 63 q 349 -8 272 -8 q 488 28 425 -8 q 587 126 550 64 q 624 264 624 188 q 587 401 624 339 q 488 501 550 464 q 349 538 425 538 q 210 501 272 538 q 112 401 149 464 q 75 264 75 339 m 103 264 q 135 383 103 326 q 222 476 167 440 q 349 513 278 513 q 472 478 417 513 q 561 388 528 444 q 594 264 594 332 q 561 138 594 194 q 472 49 528 82 q 349 15 417 15 q 224 49 281 15 q 135 138 168 82 q 103 264 103 194 m 432 524 l 432 501 q 518 513 481 501 q 576 559 556 524 q 599 669 597 594 l 574 669 q 538 553 572 583 q 432 524 503 524 m 215 853 l 343 668 l 369 668 l 246 853 l 215 853 "},"ở":{"ha":699,"x_min":75,"x_max":624,"o":"m 75 264 q 112 124 75 185 q 210 27 149 63 q 349 -8 272 -8 q 488 28 425 -8 q 587 126 550 64 q 624 264 624 188 q 587 401 624 339 q 488 501 550 464 q 349 538 425 538 q 210 501 272 538 q 112 401 149 464 q 75 264 75 339 m 103 264 q 135 383 103 326 q 222 476 167 440 q 349 513 278 513 q 472 478 417 513 q 561 388 528 444 q 594 264 594 332 q 561 138 594 194 q 472 49 528 82 q 349 15 417 15 q 224 49 281 15 q 135 138 168 82 q 103 264 103 194 m 432 524 l 432 501 q 518 513 481 501 q 576 559 556 524 q 599 669 597 594 l 574 669 q 538 553 572 583 q 432 524 503 524 m 349 613 l 363 599 q 422 651 397 626 q 447 714 447 676 q 435 765 447 746 q 406 792 424 783 q 368 800 389 800 q 314 785 338 800 q 269 736 290 769 l 285 725 q 324 766 307 754 q 367 778 340 778 q 411 759 397 778 q 425 713 425 740 q 403 661 425 683 q 349 613 381 639 "},"ỡ":{"ha":699,"x_min":75,"x_max":624,"o":"m 447 622 q 497 638 475 622 q 533 688 519 654 q 549 774 547 721 l 526 776 q 499 673 522 699 q 449 647 476 647 q 399 665 419 647 q 361 703 379 682 q 318 747 342 726 q 256 768 294 768 q 208 752 231 768 q 169 703 185 736 q 153 617 154 669 l 175 614 q 190 693 176 665 q 222 732 204 721 q 257 743 240 743 q 304 725 285 743 q 342 686 324 707 q 386 642 363 663 q 447 622 410 622 m 75 264 q 112 124 75 185 q 210 27 149 63 q 349 -8 272 -8 q 488 28 425 -8 q 587 126 550 64 q 624 264 624 188 q 587 401 624 339 q 488 501 550 464 q 349 538 425 538 q 210 501 272 538 q 112 401 149 464 q 75 264 75 339 m 103 264 q 135 383 103 326 q 222 476 167 440 q 349 513 278 513 q 472 478 417 513 q 561 388 528 444 q 594 264 594 332 q 561 138 594 194 q 472 49 528 82 q 349 15 417 15 q 224 49 281 15 q 135 138 168 82 q 103 264 103 194 m 432 524 l 432 501 q 518 513 481 501 q 576 559 556 524 q 599 669 597 594 l 574 669 q 538 553 572 583 q 432 524 503 524 "},"ő":{"ha":699,"x_min":75,"x_max":624,"o":"m 75 264 q 112 124 75 185 q 210 27 149 63 q 349 -8 272 -8 q 488 28 425 -8 q 587 126 550 64 q 624 264 624 188 q 587 401 624 339 q 488 501 550 464 q 349 538 425 538 q 210 501 272 538 q 112 401 149 464 q 75 264 75 339 m 103 264 q 135 383 103 326 q 222 476 167 440 q 349 513 278 513 q 472 478 417 513 q 561 388 528 444 q 594 264 594 332 q 561 138 594 194 q 472 49 528 82 q 349 15 417 15 q 224 49 281 15 q 135 138 168 82 q 103 264 103 194 m 429 853 l 399 853 l 275 668 l 301 668 l 429 853 m 563 853 l 532 853 l 408 668 l 435 668 l 563 853 "},"ȏ":{"ha":699,"x_min":75,"x_max":624,"o":"m 75 264 q 112 124 75 185 q 210 27 149 63 q 349 -8 272 -8 q 488 28 425 -8 q 587 126 550 64 q 624 264 624 188 q 587 401 624 339 q 488 501 550 464 q 349 538 425 538 q 210 501 272 538 q 112 401 149 464 q 75 264 75 339 m 103 264 q 135 383 103 326 q 222 476 167 440 q 349 513 278 513 q 472 478 417 513 q 561 388 528 444 q 594 264 594 332 q 561 138 594 194 q 472 49 528 82 q 349 15 417 15 q 224 49 281 15 q 135 138 168 82 q 103 264 103 194 m 354 833 q 269 805 307 833 q 208 726 231 776 q 183 614 185 676 l 208 614 q 228 711 210 667 q 280 783 247 756 q 354 810 313 810 q 429 783 396 810 q 483 711 463 756 q 506 614 503 667 l 528 614 q 503 726 526 676 q 441 805 479 776 q 354 833 403 833 "},"ō":{"ha":699,"x_min":75,"x_max":624,"o":"m 75 264 q 112 124 75 185 q 210 27 149 63 q 349 -8 272 -8 q 488 28 425 -8 q 587 126 550 64 q 624 264 624 188 q 587 401 624 339 q 488 501 550 464 q 349 538 425 538 q 210 501 272 538 q 112 401 149 464 q 75 264 75 339 m 103 264 q 135 383 103 326 q 222 476 167 440 q 349 513 278 513 q 472 478 417 513 q 561 388 528 444 q 594 264 594 332 q 561 138 594 194 q 472 49 528 82 q 349 15 417 15 q 224 49 281 15 q 135 138 168 82 q 103 264 103 194 m 190 707 l 190 683 l 511 683 l 511 707 l 190 707 "},"ǫ":{"ha":699,"x_min":75,"x_max":624,"o":"m 476 -261 q 539 -239 511 -261 q 581 -186 567 -217 l 564 -174 q 527 -218 549 -200 q 478 -236 506 -236 q 417 -210 444 -236 q 390 -139 390 -183 q 418 -47 390 -93 q 496 33 446 -1 q 588 131 553 72 q 624 264 624 190 q 587 401 624 339 q 488 501 550 464 q 349 538 425 538 q 210 501 272 538 q 112 401 149 464 q 75 264 75 339 q 112 124 75 185 q 210 27 149 63 q 349 -8 272 -8 q 414 -1 388 -8 q 469 24 440 7 l 450 21 q 390 -49 415 -8 q 364 -140 364 -90 q 380 -203 364 -176 q 421 -246 396 -231 q 476 -261 446 -261 m 349 15 q 224 49 281 15 q 135 138 168 82 q 103 264 103 194 q 135 383 103 326 q 222 476 167 440 q 349 513 278 513 q 472 478 417 513 q 561 388 528 444 q 594 264 594 332 q 561 138 594 194 q 472 49 528 82 q 349 15 417 15 "},"ø":{"ha":668,"x_min":75,"x_max":624,"o":"m 560 513 l 544 528 l 113 15 l 128 -3 l 560 513 m 75 264 q 112 124 75 185 q 210 27 149 63 q 349 -8 272 -8 q 488 28 425 -8 q 587 126 550 64 q 624 264 624 188 q 587 401 624 339 q 488 501 550 464 q 349 538 425 538 q 210 501 272 538 q 112 401 149 464 q 75 264 75 339 m 103 264 q 135 383 103 326 q 222 476 167 440 q 349 513 278 513 q 472 478 417 513 q 561 388 528 444 q 594 264 594 332 q 561 138 594 194 q 472 49 528 82 q 349 15 417 15 q 224 49 281 15 q 135 138 168 82 q 103 264 103 194 "},"ǿ":{"ha":668,"x_min":75,"x_max":624,"o":"m 560 513 l 544 528 l 113 15 l 128 -3 l 560 513 m 75 264 q 112 124 75 185 q 210 27 149 63 q 349 -8 272 -8 q 488 28 425 -8 q 587 126 550 64 q 624 264 624 188 q 587 401 624 339 q 488 501 550 464 q 349 538 425 538 q 210 501 272 538 q 112 401 149 464 q 75 264 75 339 m 103 264 q 135 383 103 326 q 222 476 167 440 q 349 513 278 513 q 472 478 417 513 q 561 388 528 444 q 594 264 594 332 q 561 138 594 194 q 472 49 528 82 q 349 15 417 15 q 224 49 281 15 q 135 138 168 82 q 103 264 103 194 m 438 825 l 407 825 l 283 640 l 310 640 l 438 825 "},"õ":{"ha":699,"x_min":75,"x_max":624,"o":"m 75 264 q 112 124 75 185 q 210 27 149 63 q 349 -8 272 -8 q 488 28 425 -8 q 587 126 550 64 q 624 264 624 188 q 587 401 624 339 q 488 501 550 464 q 349 538 425 538 q 210 501 272 538 q 112 401 149 464 q 75 264 75 339 m 103 264 q 135 383 103 326 q 222 476 167 440 q 349 513 278 513 q 472 478 417 513 q 561 388 528 444 q 594 264 594 332 q 561 138 594 194 q 472 49 528 82 q 349 15 417 15 q 224 49 281 15 q 135 138 168 82 q 103 264 103 194 m 449 624 q 499 639 476 624 q 535 688 521 654 q 550 776 549 722 l 528 778 q 501 674 524 700 q 450 649 478 649 q 400 665 421 649 q 361 704 379 682 q 318 749 342 728 q 256 769 294 769 q 208 753 231 769 q 169 704 185 738 q 151 617 153 671 l 174 614 q 190 694 176 667 q 222 733 204 722 q 257 744 240 744 q 304 726 285 744 q 343 688 324 708 q 387 644 363 664 q 449 624 411 624 "},"ȭ":{"ha":699,"x_min":75,"x_max":624,"o":"m 75 264 q 112 124 75 185 q 210 27 149 63 q 349 -8 272 -8 q 488 28 425 -8 q 587 126 550 64 q 624 264 624 188 q 587 401 624 339 q 488 501 550 464 q 349 538 425 538 q 210 501 272 538 q 112 401 149 464 q 75 264 75 339 m 103 264 q 135 383 103 326 q 222 476 167 440 q 349 513 278 513 q 472 478 417 513 q 561 388 528 444 q 594 264 594 332 q 561 138 594 194 q 472 49 528 82 q 349 15 417 15 q 224 49 281 15 q 135 138 168 82 q 103 264 103 194 m 449 624 q 499 639 476 624 q 535 688 521 654 q 550 776 549 722 l 528 778 q 501 674 524 700 q 450 649 478 649 q 400 665 421 649 q 361 704 379 682 q 318 749 342 728 q 256 769 294 769 q 208 753 231 769 q 169 704 185 738 q 151 617 153 671 l 174 614 q 190 694 176 667 q 222 733 204 722 q 257 744 240 744 q 304 726 285 744 q 343 688 324 708 q 387 644 363 664 q 449 624 411 624 m 190 925 l 190 901 l 511 901 l 511 925 l 190 925 "},"œ":{"ha":986,"x_min":75,"x_max":925,"o":"m 521 51 l 504 69 q 433 30 472 44 q 349 15 393 15 q 224 49 281 15 q 135 138 168 82 q 103 263 103 194 q 135 388 103 332 q 224 478 168 444 q 349 513 279 513 q 433 497 393 513 q 506 456 474 481 l 521 475 q 442 520 486 504 q 347 536 397 536 q 210 499 272 536 q 112 401 149 463 q 75 263 75 339 q 112 125 75 186 q 210 28 149 64 q 349 -8 272 -8 q 441 8 397 -8 q 521 51 485 24 m 686 -8 q 788 11 740 -8 q 874 63 836 31 l 856 82 q 778 33 822 51 q 686 15 735 15 q 556 51 611 15 q 471 143 501 86 q 440 264 440 200 q 473 389 440 332 q 561 479 506 446 q 685 513 617 513 q 812 468 758 513 q 894 363 865 424 l 901 376 l 440 190 l 449 167 l 925 360 q 834 487 894 436 q 686 538 774 538 q 548 501 610 538 q 449 401 486 464 q 413 264 413 339 q 449 126 413 188 q 548 28 486 64 q 686 -8 610 -8 "},"p":{"ha":754,"x_min":131,"x_max":679,"o":"m 407 -8 q 544 27 482 -8 q 642 124 606 63 q 679 263 679 186 q 642 401 679 339 q 544 500 606 464 q 408 536 483 536 q 255 490 324 536 q 156 369 186 443 l 158 329 l 157 525 l 131 525 l 131 -251 l 158 -251 l 158 192 l 154 158 q 253 38 185 85 q 407 -8 321 -8 m 404 15 q 283 47 338 15 q 194 133 228 79 q 158 253 160 188 l 158 267 q 192 390 158 335 q 281 479 225 446 q 406 513 338 513 q 529 479 474 513 q 618 389 585 446 q 651 263 651 332 q 618 138 651 194 q 529 49 585 82 q 404 15 474 15 "},"þ":{"ha":722,"x_min":118,"x_max":665,"o":"m 393 -8 q 531 27 469 -8 q 629 124 593 63 q 665 263 665 185 q 629 401 665 339 q 532 500 593 464 q 394 536 471 536 q 285 513 339 536 q 192 447 232 489 q 138 351 153 406 l 144 339 l 144 1044 l 118 1044 l 118 -251 l 144 -251 l 144 197 l 142 168 q 193 78 156 118 q 283 15 231 38 q 393 -8 336 -8 m 392 17 q 272 47 326 17 q 183 129 217 78 q 144 244 149 181 l 144 267 q 179 390 146 335 q 268 478 213 444 q 392 511 324 511 q 515 479 458 511 q 605 392 571 447 q 639 263 639 336 q 606 139 639 194 q 516 50 572 83 q 392 17 460 17 "},"q":{"ha":754,"x_min":75,"x_max":624,"o":"m 346 -8 q 501 38 432 -8 q 599 157 569 85 l 596 188 l 596 -251 l 624 -251 l 624 525 l 596 525 l 596 331 l 603 364 q 502 487 572 438 q 349 536 432 536 q 210 500 272 536 q 112 402 149 464 q 75 263 75 340 q 112 125 75 186 q 210 28 149 64 q 346 -8 271 -8 m 349 15 q 225 49 281 15 q 136 138 169 82 q 103 263 103 194 q 136 389 103 332 q 225 479 169 446 q 349 513 281 513 q 473 479 417 513 q 563 390 529 446 q 596 267 596 335 l 596 250 q 559 131 593 185 q 470 47 525 78 q 349 15 415 15 "},"r":{"ha":446,"x_min":131,"x_max":385,"o":"m 151 525 l 131 525 l 131 0 l 158 0 l 158 303 q 189 408 158 363 q 271 481 219 454 q 383 510 322 508 l 385 535 q 286 515 333 533 q 203 461 239 496 q 153 376 168 426 l 156 361 l 151 525 "},"ŕ":{"ha":446,"x_min":131,"x_max":385,"o":"m 151 525 l 131 525 l 131 0 l 158 0 l 158 303 q 189 408 158 363 q 271 481 219 454 q 383 510 322 508 l 385 535 q 286 515 333 533 q 203 461 239 496 q 153 376 168 426 l 156 361 l 151 525 m 326 825 l 296 825 l 172 640 l 199 640 l 326 825 "},"ř":{"ha":446,"x_min":38,"x_max":410,"o":"m 151 525 l 131 525 l 131 0 l 158 0 l 158 303 q 189 408 158 363 q 271 481 219 454 q 383 510 322 508 l 385 535 q 286 515 333 533 q 203 461 239 496 q 153 376 168 426 l 156 361 l 151 525 m 67 804 l 38 804 l 224 594 l 225 594 l 410 804 l 381 804 l 214 613 l 232 614 l 67 804 "},"ŗ":{"ha":446,"x_min":131,"x_max":385,"o":"m 151 525 l 131 525 l 131 0 l 158 0 l 158 303 q 189 408 158 363 q 271 481 219 454 q 383 510 322 508 l 385 535 q 286 515 333 533 q 203 461 239 496 q 153 376 168 426 l 156 361 l 151 525 m 156 -254 q 210 -203 192 -235 q 233 -135 229 -172 q 235 -62 238 -99 l 204 -62 q 196 -168 211 -122 q 142 -242 181 -214 l 156 -254 "},"ȑ":{"ha":446,"x_min":22,"x_max":385,"o":"m 151 525 l 131 525 l 131 0 l 158 0 l 158 303 q 189 408 158 363 q 271 481 219 454 q 383 510 322 508 l 385 535 q 286 515 333 533 q 203 461 239 496 q 153 376 168 426 l 156 361 l 151 525 m 22 851 l 150 667 l 176 667 l 53 851 l 22 851 m 157 851 l 285 667 l 311 667 l 188 851 l 157 851 "},"ȓ":{"ha":446,"x_min":56,"x_max":400,"o":"m 151 525 l 131 525 l 131 0 l 158 0 l 158 303 q 189 408 158 363 q 271 481 219 454 q 383 510 322 508 l 385 535 q 286 515 333 533 q 203 461 239 496 q 153 376 168 426 l 156 361 l 151 525 m 226 832 q 141 803 179 832 q 80 725 103 775 q 56 613 57 675 l 81 613 q 101 710 82 665 q 152 781 119 754 q 226 808 185 808 q 301 781 268 808 q 355 710 335 754 q 378 613 375 665 l 400 613 q 375 725 399 675 q 313 803 351 775 q 226 832 275 832 "},"s":{"ha":478,"x_min":75,"x_max":401,"o":"m 238 -11 q 328 8 292 -11 q 383 62 364 28 q 401 142 401 96 q 377 216 401 189 q 315 258 353 243 q 240 288 278 274 q 183 312 210 299 q 139 347 156 325 q 122 401 122 368 q 142 463 122 439 q 188 497 161 486 q 240 507 215 507 q 306 494 268 507 q 367 453 343 482 l 382 471 q 311 518 351 504 q 239 532 271 532 q 169 517 203 532 q 116 472 136 501 q 96 399 96 443 q 135 310 96 338 q 225 264 174 282 q 297 238 263 251 q 353 201 331 225 q 375 135 375 176 q 354 62 375 89 q 302 24 333 35 q 238 13 271 13 q 151 29 190 13 q 92 72 113 46 l 75 56 q 152 3 106 18 q 238 -11 199 -11 "},"ś":{"ha":478,"x_min":75,"x_max":401,"o":"m 238 -11 q 328 8 292 -11 q 383 62 364 28 q 401 142 401 96 q 377 216 401 189 q 315 258 353 243 q 240 288 278 274 q 183 312 210 299 q 139 347 156 325 q 122 401 122 368 q 142 463 122 439 q 188 497 161 486 q 240 507 215 507 q 306 494 268 507 q 367 453 343 482 l 382 471 q 311 518 351 504 q 239 532 271 532 q 169 517 203 532 q 116 472 136 501 q 96 399 96 443 q 135 310 96 338 q 225 264 174 282 q 297 238 263 251 q 353 201 331 225 q 375 135 375 176 q 354 62 375 89 q 302 24 333 35 q 238 13 271 13 q 151 29 190 13 q 92 72 113 46 l 75 56 q 152 3 106 18 q 238 -11 199 -11 m 343 825 l 313 825 l 189 640 l 215 640 l 343 825 "},"š":{"ha":478,"x_min":54,"x_max":426,"o":"m 238 -11 q 328 8 292 -11 q 383 62 364 28 q 401 142 401 96 q 377 216 401 189 q 315 258 353 243 q 240 288 278 274 q 183 312 210 299 q 139 347 156 325 q 122 401 122 368 q 142 463 122 439 q 188 497 161 486 q 240 507 215 507 q 306 494 268 507 q 367 453 343 482 l 382 471 q 311 518 351 504 q 239 532 271 532 q 169 517 203 532 q 116 472 136 501 q 96 399 96 443 q 135 310 96 338 q 225 264 174 282 q 297 238 263 251 q 353 201 331 225 q 375 135 375 176 q 354 62 375 89 q 302 24 333 35 q 238 13 271 13 q 151 29 190 13 q 92 72 113 46 l 75 56 q 152 3 106 18 q 238 -11 199 -11 m 83 806 l 54 806 l 240 596 l 242 596 l 426 806 l 397 806 l 231 614 l 249 615 l 83 806 "},"ş":{"ha":478,"x_min":75,"x_max":408,"o":"m 238 -11 q 328 8 292 -11 q 383 62 364 28 q 401 142 401 96 q 377 216 401 189 q 315 258 353 243 q 240 288 278 274 q 183 312 210 299 q 139 347 156 325 q 122 401 122 368 q 142 463 122 439 q 188 497 161 486 q 240 507 215 507 q 306 494 268 507 q 367 453 343 482 l 382 471 q 311 518 351 504 q 239 532 271 532 q 169 517 203 532 q 116 472 136 501 q 96 399 96 443 q 135 310 96 338 q 225 264 174 282 q 297 238 263 251 q 353 201 331 225 q 375 135 375 176 q 354 62 375 89 q 302 24 333 35 q 238 13 271 13 q 151 29 190 13 q 92 72 113 46 l 75 56 q 152 3 106 18 q 238 -11 199 -11 m 149 -251 l 135 -272 q 188 -299 156 -289 q 258 -310 219 -310 q 334 -298 300 -310 q 388 -262 368 -286 q 408 -203 408 -239 q 372 -119 408 -149 q 267 -90 335 -90 q 202 -99 236 -90 q 153 -117 168 -107 l 174 -122 l 268 -6 l 246 7 l 144 -117 l 164 -135 q 211 -120 181 -126 q 265 -114 242 -114 q 351 -140 324 -114 q 379 -203 379 -165 q 346 -266 379 -244 q 256 -287 313 -287 q 192 -277 218 -287 q 149 -251 165 -267 "},"ŝ":{"ha":478,"x_min":56,"x_max":428,"o":"m 238 -11 q 328 8 292 -11 q 383 62 364 28 q 401 142 401 96 q 377 216 401 189 q 315 258 353 243 q 240 288 278 274 q 183 312 210 299 q 139 347 156 325 q 122 401 122 368 q 142 463 122 439 q 188 497 161 486 q 240 507 215 507 q 306 494 268 507 q 367 453 343 482 l 382 471 q 311 518 351 504 q 239 532 271 532 q 169 517 203 532 q 116 472 136 501 q 96 399 96 443 q 135 310 96 338 q 225 264 174 282 q 297 238 263 251 q 353 201 331 225 q 375 135 375 176 q 354 62 375 89 q 302 24 333 35 q 238 13 271 13 q 151 29 190 13 q 92 72 113 46 l 75 56 q 152 3 106 18 q 238 -11 199 -11 m 399 667 l 428 667 l 242 878 l 240 878 l 56 667 l 85 667 l 251 858 l 233 857 l 399 667 "},"ș":{"ha":478,"x_min":75,"x_max":401,"o":"m 238 -11 q 328 8 292 -11 q 383 62 364 28 q 401 142 401 96 q 377 216 401 189 q 315 258 353 243 q 240 288 278 274 q 183 312 210 299 q 139 347 156 325 q 122 401 122 368 q 142 463 122 439 q 188 497 161 486 q 240 507 215 507 q 306 494 268 507 q 367 453 343 482 l 382 471 q 311 518 351 504 q 239 532 271 532 q 169 517 203 532 q 116 472 136 501 q 96 399 96 443 q 135 310 96 338 q 225 264 174 282 q 297 238 263 251 q 353 201 331 225 q 375 135 375 176 q 354 62 375 89 q 302 24 333 35 q 238 13 271 13 q 151 29 190 13 q 92 72 113 46 l 75 56 q 152 3 106 18 q 238 -11 199 -11 m 176 -256 q 231 -205 213 -236 q 254 -137 250 -174 q 256 -64 258 -100 l 225 -64 q 217 -169 232 -124 q 163 -243 201 -215 l 176 -256 "},"ß":{"ha":781,"x_min":69,"x_max":704,"o":"m 160 594 l 160 538 l 69 538 l 69 511 l 160 511 l 160 0 l 186 0 l 186 597 q 242 809 186 729 q 406 889 297 889 q 509 864 468 889 q 570 799 550 839 q 590 714 590 758 q 540 597 590 640 q 419 553 490 553 l 419 526 l 425 526 q 554 492 497 526 q 644 399 611 457 q 678 272 678 342 q 642 142 678 201 q 548 48 607 83 q 417 13 489 13 q 347 22 381 13 q 285 51 313 32 l 272 31 q 342 0 304 11 q 421 -11 379 -11 q 563 26 499 -11 q 666 128 628 64 q 704 271 704 192 q 676 393 704 338 q 601 488 649 449 q 492 540 553 526 q 583 608 549 563 q 618 722 618 654 q 594 813 618 769 q 524 885 571 857 q 403 915 476 914 q 271 875 325 913 q 188 767 217 838 q 160 594 160 696 "},"t":{"ha":422,"x_min":63,"x_max":388,"o":"m 185 754 l 185 514 l 63 514 l 63 490 l 185 490 l 185 0 l 213 0 l 213 490 l 388 490 l 388 514 l 213 514 l 213 754 l 185 754 "},"ŧ":{"ha":422,"x_min":53,"x_max":388,"o":"m 185 754 l 185 514 l 63 514 l 63 490 l 185 490 l 185 0 l 213 0 l 213 490 l 388 490 l 388 514 l 213 514 l 213 754 l 185 754 m 53 297 l 53 271 l 375 271 l 375 297 l 53 297 "},"ť":{"ha":422,"x_min":63,"x_max":388,"o":"m 185 754 l 185 514 l 63 514 l 63 490 l 185 490 l 185 0 l 213 0 l 213 490 l 388 490 l 388 514 l 213 514 l 213 754 l 185 754 m 296 636 q 351 687 332 656 q 374 755 369 718 q 375 828 378 792 l 344 828 q 336 722 351 768 q 282 649 321 676 l 296 636 "},"ţ":{"ha":422,"x_min":63,"x_max":388,"o":"m 185 754 l 185 514 l 63 514 l 63 490 l 185 490 l 185 0 l 213 0 l 213 490 l 388 490 l 388 514 l 213 514 l 213 754 l 185 754 m 89 -250 l 75 -271 q 128 -298 96 -287 q 199 -308 160 -308 q 274 -297 240 -308 q 328 -261 308 -285 q 349 -201 349 -237 q 312 -118 349 -147 q 207 -89 275 -89 q 142 -97 176 -89 q 93 -115 108 -106 l 114 -121 l 208 -4 l 186 8 l 85 -115 l 104 -133 q 151 -119 121 -125 q 206 -112 182 -112 q 292 -138 264 -112 q 319 -201 319 -164 q 286 -265 319 -243 q 196 -286 253 -286 q 132 -276 158 -286 q 89 -250 106 -265 "},"ț":{"ha":422,"x_min":63,"x_max":388,"o":"m 185 754 l 185 514 l 63 514 l 63 490 l 185 490 l 185 0 l 213 0 l 213 490 l 388 490 l 388 514 l 213 514 l 213 754 l 185 754 m 117 -254 q 172 -203 153 -235 q 194 -135 190 -172 q 196 -62 199 -99 l 165 -62 q 157 -168 172 -122 q 103 -242 142 -214 l 117 -254 "},"u":{"ha":676,"x_min":131,"x_max":546,"o":"m 293 -11 q 393 10 344 -11 q 476 68 442 32 q 524 149 511 104 l 519 161 l 522 0 l 546 0 l 546 525 l 518 525 l 518 222 q 487 115 518 163 q 405 41 456 68 q 299 14 354 14 q 195 55 231 17 q 158 150 160 93 l 158 525 l 131 525 l 131 146 q 176 33 133 76 q 293 -11 219 -11 "},"ú":{"ha":676,"x_min":131,"x_max":546,"o":"m 293 -11 q 393 10 344 -11 q 476 68 442 32 q 524 149 511 104 l 519 161 l 522 0 l 546 0 l 546 525 l 518 525 l 518 222 q 487 115 518 163 q 405 41 456 68 q 299 14 354 14 q 195 55 231 17 q 158 150 160 93 l 158 525 l 131 525 l 131 146 q 176 33 133 76 q 293 -11 219 -11 m 442 826 l 411 826 l 288 642 l 314 642 l 442 826 "}}}
